<?xml version="1.0" encoding="utf-8"?>
<svg version="1.1" xmlns:xlink="http://www.w3.org/1999/xlink" width="16px" height="16px" xmlns="http://www.w3.org/2000/svg">
  <g transform="matrix(1 0 0 1 -284 -17 )">
    <path d="M 8.000099843505478 6.597502660406887  L 1.7169580281690144 0.31434087636932817  C 1.3270391862284816 -0.07556798122065593  0.6948700469483565 -0.07556798122065593  0.30495120500782424 0.31434087636932817  C -0.08495765258215988 0.7042597183098604  -0.08495765258215988 1.336428857589985  0.30495120500782424 1.7263476995305178  L 6.588112989045383 8.009489514866981  L 0.30495120500782424 14.292541471048514  C -0.08495765258215988 14.68253020344288  -0.08495765258215988 15.31463943661972  0.30495120500782424 15.704628169014084  C 0.6948700469483565 16.09451705790297  1.3270391862284816 16.09451705790297  1.7169580281690144 15.704628169014084  L 8.000099843505478 9.421476369327076  L 14.283051956181533 15.704428482003129  C 14.672940845070421 16.094317370892014  15.30514992175274 16.094317370892014  15.695038810641627 15.704428482003129  C 16.084927699530514 15.314539593114244  16.084927699530514 14.682330516431925  15.695038810641627 14.292441627543036  L 9.412086697965572 8.009489514866981  L 15.695038810641627 1.7264974647887326  C 16.084927699530514 1.3365786228482008  16.084927699530514 0.7044094835680762  15.695038810641627 0.314490641627545  C 15.30514992175274 -0.07541821596243967  14.672940845070421 -0.07541821596243967  14.283051956181533 0.314490641627545  L 8.000099843505478 6.597502660406887  Z " fill-rule="nonzero" fill="#ffffff" stroke="none" transform="matrix(1 0 0 1 284 17 )" />
  </g>
</svg>