<?xml version="1.0" encoding="utf-8"?>
<svg version="1.1" xmlns:xlink="http://www.w3.org/1999/xlink" width="32px" height="16px" xmlns="http://www.w3.org/2000/svg">
  <g transform="matrix(1 0 0 1 -22 -82 )">
    <path d="M 31.833333333333332 8  C 31.833333333333332 5.391304347826087  31.26666666666665 2.9217391304347746  30.166666666666668 0.6260869565217431  C 29.900000000000016 0.10434782608696047  29.26666666666665 -0.1391304347826008  28.76666666666665 0.1391304347826008  C 28.26666666666665 0.4173913043478221  28.033333333333342 1.0782608695652254  28.299999999999994 1.6000000000000079  C 29.26666666666665 3.5826086956521777  29.73333333333335 5.7043478260869485  29.73333333333335 8  C 29.73333333333335 10.295652173913052  29.23333333333335 12.417391304347822  28.299999999999994 14.399999999999991  C 28.033333333333342 14.921739130434775  28.23333333333335 15.582608695652178  28.76666666666665 15.8608695652174  C 28.93333333333332 15.9304347826087  29.06666666666668 15.96521739130434  29.23333333333335 15.96521739130434  C 29.599999999999984 15.96521739130434  29.966666666666658 15.756521739130438  30.166666666666668 15.373913043478257  C 31.26666666666665 13.078260869565225  31.833333333333332 10.608695652173912  31.833333333333332 8  Z M 3.6666666666666665 1.6000000000000079  C 3.933333333333318 1.0782608695652254  3.7333333333333485 0.4173913043478221  3.2333333333333485 0.1391304347826008  C 2.7333333333333485 -0.1391304347826008  2.099999999999985 0.0695652173913004  1.8333333333333333 0.6260869565217431  C 0.7333333333333485 2.9217391304347746  0.16666666666666666 5.391304347826087  0.16666666666666666 8  C 0.16666666666666666 10.608695652173912  0.7333333333333485 13.078260869565225  1.8333333333333333 15.373913043478257  C 2 15.756521739130438  2.3666666666666742 15.96521739130434  2.7666666666666515 15.96521739130434  C 2.933333333333318 15.96521739130434  3.066666666666682 15.9304347826087  3.2333333333333485 15.8608695652174  C 3.7333333333333485 15.582608695652178  3.9666666666666592 14.921739130434775  3.7000000000000077 14.399999999999991  C 2.7333333333333485 12.417391304347822  2.2333333333333485 10.26086956521739  2.2333333333333485 8  C 2.2333333333333485 5.739130434782608  2.7333333333333485 3.5826086956521777  3.6666666666666665 1.6000000000000079  Z M 25.966666666666658 2.817391304347834  C 25.700000000000006 2.2956521739130515  25.06666666666668 2.0869565217391304  24.56666666666668 2.3304347826086915  C 24.06666666666668 2.608695652173913  23.833333333333332 3.2695652173912966  24.099999999999984 3.791304347826079  C 24.73333333333335 5.113043478260866  25.06666666666668 6.504347826086953  25.06666666666668 8  C 25.06666666666668 9.495652173913047  24.73333333333335 10.886956521739135  24.099999999999984 12.20869565217392  C 23.833333333333332 12.730434782608704  24.033333333333342 13.391304347826088  24.56666666666668 13.669565217391309  C 24.73333333333335 13.73913043478261  24.866666666666674 13.773913043478268  25.033333333333342 13.773913043478268  C 25.400000000000016 13.773913043478268  25.76666666666665 13.565217391304348  25.966666666666658 13.182608695652165  C 26.73333333333335 11.582608695652178  27.133333333333326 9.80869565217391  27.133333333333326 8  C 27.133333333333326 6.191304347826091  26.73333333333335 4.417391304347822  25.966666666666658 2.817391304347834  Z M 7.9000000000000155 3.791304347826079  C 8.166666666666666 3.2695652173912966  7.966666666666659 2.608695652173913  7.4333333333333185 2.3304347826086915  C 6.9333333333333185 2.0521739130434704  6.299999999999993 2.260869565217391  6.033333333333341 2.817391304347834  C 5.2666666666666515 4.417391304347822  4.866666666666674 6.191304347826091  4.866666666666674 8  C 4.866666666666674 9.80869565217391  5.2666666666666515 11.582608695652178  6.033333333333341 13.182608695652165  C 6.200000000000007 13.565217391304348  6.5666666666666815 13.773913043478268  6.966666666666659 13.773913043478268  C 7.133333333333326 13.773913043478268  7.299999999999993 13.73913043478261  7.4333333333333185 13.669565217391309  C 7.9333333333333185 13.391304347826088  8.166666666666666 12.730434782608704  7.9000000000000155 12.20869565217392  C 7.2666666666666515 10.886956521739135  6.9333333333333185 9.495652173913047  6.9333333333333185 8  C 6.9333333333333185 6.504347826086953  7.2666666666666515 5.113043478260866  7.9000000000000155 3.791304347826079  Z M 22.43333333333332 8  C 22.43333333333332 4.3130434782608615  19.56666666666668 1.2869565217391266  16 1.2869565217391266  C 12.46666666666666 1.2869565217391266  9.566666666666682 4.3130434782608615  9.566666666666682 8  C 9.566666666666682 11.686956521739138  12.46666666666666 14.713043478260873  16 14.713043478260873  C 19.533333333333342 14.713043478260873  22.43333333333332 11.686956521739138  22.43333333333332 8  Z M 18.133333333333326 7.6521739130434785  C 18.333333333333332 7.826086956521739  18.333333333333332 8.173913043478262  18.133333333333326 8.347826086956522  L 15.166666666666666 10.399999999999991  C 14.900000000000015 10.573913043478253  14.566666666666682 10.399999999999991  14.566666666666682 10.05217391304347  L 14.566666666666682 5.94782608695653  C 14.566666666666682 5.634782608695648  14.900000000000015 5.426086956521747  15.166666666666666 5.600000000000008  L 18.133333333333326 7.6521739130434785  Z " fill-rule="nonzero" fill="#ec808d" stroke="none" transform="matrix(1 0 0 1 22 82 )" />
  </g>
</svg>