<?xml version="1.0" encoding="utf-8"?>
<svg version="1.1" xmlns:xlink="http://www.w3.org/1999/xlink" width="20px" height="14px" xmlns="http://www.w3.org/2000/svg">
  <g transform="matrix(1 0 0 1 -138 -183 )">
    <path d="M 7.937569676700111 3.988888888888889  L 7.937569676700111 9.577777777777778  L 13.333333333333332 6.800000000000001  L 7.937569676700111 3.988888888888889  Z M 3.0100334448160537 0.1999999999999993  C 4.875510962467485 0.06666666666666643  7.205499814195465 0  10 0  C 11.24860646599777 0  12.454477889260499 0.016666666666666607  13.617614269788183 0.04999999999999982  C 14.78075065031587 0.08333333333333304  15.633593459680418 0.11851851851851758  16.17614269788183 0.155555555555555  L 16.989966555183948 0.1999999999999993  C 16.99739873652917 0.1999999999999993  17.060572277963583 0.20555555555555483  17.17948717948718 0.2166666666666659  C 17.298402081010778 0.22777777777777852  17.383872166480863 0.2388888888888896  17.435897435897438 0.25000000000000067  C 17.48792270531401 0.26111111111111174  17.575250836120404 0.27777777777777835  17.69788182831661 0.3000000000000005  C 17.82051282051282 0.32222222222222263  17.926421404682273 0.3518518518518501  18.015607580824973 0.38888888888888906  C 18.10479375696767 0.42592592592592493  18.20884429580082 0.47407407407407187  18.327759197324415 0.533333333333333  C 18.446674098848014 0.592592592592591  18.561872909698998 0.6648148148148145  18.673355629877367 0.7500000000000004  C 18.784838350055743 0.8351851851851833  18.892604979561504 0.9333333333333331  18.99665551839465 1.0444444444444438  C 19.041248606466 1.0888888888888881  19.09884801189149 1.1574074074074059  19.169453734671126 1.2500000000000002  C 19.240059457450766 1.3425925925925914  19.347826086956523 1.559259259259259  19.492753623188406 1.8999999999999995  C 19.637681159420293 2.2407407407407387  19.73615756224452 2.614814814814814  19.788182831661093 3.022222222222222  C 19.847640282422894 3.496296296296296  19.894091415830548 4.0018518518518515  19.92753623188406 4.538888888888888  C 19.960981047937572 5.075925925925926  19.98141954663694 5.496296296296295  19.988851727982162 5.8  L 19.988851727982162 6.244444444444444  L 19.988851727982162 7.755555555555556  C 19.99628390932739 8.829629629629627  19.929394277220364 9.903703703703703  19.788182831661093 10.977777777777778  C 19.73615756224452 11.385185185185186  19.643255295429213 11.753703703703703  19.50947603121516 12.083333333333334  C 19.375696767001116 12.412962962962963  19.25678186547752 12.640740740740743  19.15273132664437 12.766666666666666  L 18.99665551839465 12.955555555555556  C 18.892604979561504 13.066666666666666  18.784838350055743 13.164814814814815  18.673355629877367 13.25  C 18.561872909698998 13.335185185185185  18.446674098848014 13.405555555555557  18.327759197324415 13.461111111111112  C 18.20884429580082 13.516666666666667  18.10479375696767 13.562962962962963  18.015607580824973 13.6  C 17.926421404682273 13.637037037037036  17.82051282051282 13.666666666666666  17.69788182831661 13.688888888888888  C 17.575250836120404 13.71111111111111  17.486064659977703 13.727777777777778  17.430323299888517 13.738888888888889  C 17.37458193979933 13.75  17.289111854329246 13.761111111111111  17.17391304347826 13.772222222222222  C 17.058714232627278 13.783333333333335  16.99739873652917 13.78888888888889  16.989966555183948 13.78888888888889  C 15.124489037532516 13.92962962962963  12.794500185804534 14  10 14  C 8.461538461538462 13.985185185185186  7.1256038647343 13.961111111111112  5.992196209587513 13.927777777777777  C 4.8587885544407285 13.894444444444446  4.11371237458194 13.866666666666667  3.7569676700111483 13.844444444444445  L 3.210702341137124 13.8  L 2.809364548494983 13.755555555555555  C 2.5418060200668897 13.718518518518518  2.3392790784095134 13.68148148148148  2.201783723522854 13.644444444444444  C 2.064288368636195 13.607407407407408  1.8747677443329618 13.52962962962963  1.6332218506131548 13.411111111111111  C 1.391675956893348 13.292592592592591  1.1817168338907469 13.140740740740743  1.0033444816053512 12.955555555555556  C 0.9587513935340022 12.911111111111111  0.9011519881085099 12.842592592592592  0.8305462653288741 12.75  C 0.7599405425492383 12.657407407407408  0.6521739130434783 12.440740740740742  0.5072463768115942 12.100000000000001  C 0.36231884057971014 11.759259259259258  0.2638424377554812 11.385185185185186  0.21181716833890749 10.977777777777778  C 0.1523597175771089 10.503703703703703  0.10590858416945376 9.998148148148147  0.07246376811594203 9.461111111111112  C 0.03901895206243033 8.92407407407407  0.01858045336306206 8.503703703703703  0.011148272017837236 8.2  L 0.011148272017837236 7.755555555555556  L 0.011148272017837236 6.244444444444444  C 0.0037160906726124107 5.170370370370369  0.07060572277963582 4.096296296296295  0.21181716833890749 3.022222222222222  C 0.2638424377554812 2.614814814814814  0.35674470457079155 2.2462962962962942  0.49052396878483834 1.916666666666666  C 0.6243032329988852 1.5870370370370366  0.7432181345224824 1.359259259259258  0.8472686733556299 1.2333333333333336  L 1.0033444816053512 1.0444444444444438  C 1.1073950204384988 0.9333333333333331  1.2151616499442586 0.8351851851851833  1.3266443701226311 0.7500000000000004  C 1.4381270903010033 0.6648148148148145  1.5533259011519882 0.592592592592591  1.6722408026755853 0.533333333333333  C 1.7911557041991828 0.47407407407407187  1.89520624303233 0.42592592592592493  1.9843924191750277 0.38888888888888906  C 2.0735785953177257 0.3518518518518501  2.1794871794871797 0.32222222222222263  2.302118171683389 0.3000000000000005  C 2.424749163879599 0.27777777777777835  2.512077294685991 0.26111111111111174  2.564102564102564 0.25000000000000067  C 2.616127833519138 0.2388888888888896  2.701597918989224 0.22777777777777852  2.8205128205128203 0.2166666666666659  C 2.939427722036418 0.20555555555555483  3.0026012634708295 0.1999999999999993  3.0100334448160537 0.1999999999999993  Z " fill-rule="nonzero" fill="#ffffff" stroke="none" transform="matrix(1 0 0 1 138 183 )" />
  </g>
</svg>