<?xml version="1.0" encoding="utf-8"?>
<svg version="1.1" xmlns:xlink="http://www.w3.org/1999/xlink" width="20px" height="24px" xmlns="http://www.w3.org/2000/svg">
  <g>
    <path d="M 1.8125 0  L 18.1875 0  C 18.427083333333336 0  18.65625 0.04758757435558536  18.875 0.14276272306675608  C 19.21875 0.28023793787177453  19.4921875 0.4970257766027748  19.6953125 0.7931262392597489  C 19.8984375 1.0892267019167203  20 1.4170522141440829  20 1.7766027759418366  L 20 22.223397224058164  C 20 22.582947785855918  19.8984375 22.910773298083278  19.6953125 23.20687376074025  C 19.4921875 23.502974223397224  19.21875 23.71976206212822  18.875 23.857237276933244  C 18.677083333333336 23.94183740912095  18.447916666666668 23.984137475214805  18.1875 23.984137475214805  C 17.6875 23.984137475214805  17.255208333333336 23.81493721083939  16.890625 23.476536682088565  L 10 16.750826173165894  L 3.109375 23.476536682088565  C 2.734375 23.825512227362857  2.3020833333333335 24  1.8125 24  C 1.5729166666666665 24  1.34375 23.952412425644415  1.125 23.857237276933244  C 0.78125 23.71976206212822  0.5078125 23.502974223397224  0.3046875 23.20687376074025  C 0.1015625 22.910773298083278  0 22.582947785855918  0 22.223397224058164  L 0 1.7766027759418366  C 0 1.4170522141440829  0.1015625 1.0892267019167203  0.3046875 0.7931262392597489  C 0.5078125 0.4970257766027748  0.78125 0.28023793787177453  1.125 0.14276272306675608  C 1.34375 0.04758757435558536  1.5729166666666665 0  1.8125 0  Z " fill-rule="nonzero" fill="#000000" stroke="none" />
  </g>
</svg>