<?xml version="1.0" encoding="utf-8"?>
<svg version="1.1" xmlns:xlink="http://www.w3.org/1999/xlink" width="16px" height="14px" xmlns="http://www.w3.org/2000/svg">
  <g transform="matrix(1 0 0 1 -30 -273 )">
    <path d="M 15.951542857142858 1  L 5.231028114285714 1  L 5.231028114285714 0.4149492307692319  C 5.231028114285714 0.19400769230769355  5.048346514285713 0.014692820512821596  4.823256685714285 0.014692820512821596  L 2.2055679999999995 0.014692820512821596  C 1.9804781714285713 0.014692820512821596  1.797796571428571 0.19400769230769355  1.797796571428571 0.4149492307692319  L 1.797796571428571 0.9502921794871811  L 0.04845714285714296 0.9502921794871811  L 0.04845714285714296 2.351189615384617  L 1.797796571428571 2.351189615384617  L 1.797796571428571 2.9851957692307707  C 1.797796571428571 3.206137307692308  1.9804781714285713 3.38545217948718  2.2055679999999995 3.38545217948718  L 4.823256685714285 3.38545217948718  C 5.048346514285713 3.38545217948718  5.231028114285714 3.206137307692308  5.231028114285714 2.9851957692307707  L 5.231028114285714 2.351189615384617  L 15.951542857142858 2.351189615384617  L 15.951542857142858 1  Z M 9.717125485714286 6.265897435897436  L 9.717125485714286 5.68132294871795  C 9.717125485714286 5.460381410256412  9.534443885714284 5.281066538461539  9.309354057142857 5.281066538461539  L 6.691665371428571 5.281066538461539  C 6.466575542857142 5.281066538461539  6.283893942857142 5.460381410256412  6.283893942857142 5.68132294871795  L 6.283893942857142 6.265897435897436  L 0.04845714285714296 6.265897435897436  L 0.04845714285714296 7.666794871794873  L 6.283893942857142 7.666794871794873  L 6.283893942857142 8.251569487179488  C 6.283893942857142 8.472511025641023  6.466575542857142 8.651825897435897  6.691665371428571 8.651825897435897  L 9.309354057142857 8.651825897435897  C 9.534443885714284 8.651825897435897  9.717125485714286 8.472511025641023  9.717125485714286 8.251569487179488  L 9.717125485714286 7.666794871794873  L 15.951542857142858 7.666794871794873  L 15.951542857142858 6.265897435897436  L 9.717125485714286 6.265897435897436  Z M 14.201999542857141 11.581502692307694  L 14.201999542857141 10.996928205128206  C 14.201999542857141 10.775986666666665  14.019317942857143 10.596671794871796  13.794228114285714 10.596671794871796  L 11.176539428571429 10.596671794871796  C 10.951449599999998 10.596671794871796  10.768768 10.775986666666665  10.768768 10.996928205128206  L 10.768768 11.581502692307694  L 0.04845714285714296 11.581502692307694  L 0.04845714285714296 13  L 10.768768 13  L 10.768768 13.567174743589746  C 10.768768 13.788116282051282  10.951449599999998 13.967431153846153  11.176539428571429 13.967431153846153  L 13.794228114285714 13.967431153846153  C 14.019317942857143 13.967431153846153  14.201999542857141 13.788116282051282  14.201999542857141 13.567174743589746  L 14.201999542857141 12.982400128205128  L 15.951542857142858 12.982400128205128  L 15.951542857142858 11.581502692307694  L 14.201999542857141 11.581502692307694  Z " fill-rule="nonzero" fill="#000000" stroke="none" transform="matrix(1 0 0 1 30 273 )" />
  </g>
</svg>