<?xml version="1.0" encoding="utf-8"?>
<svg version="1.1" xmlns:xlink="http://www.w3.org/1999/xlink" width="12px" height="10px" xmlns="http://www.w3.org/2000/svg">
  <g transform="matrix(1 0 0 1 -265 -63 )">
    <path d="M 9.368303571428571 5.891927083333332  C 9.408482142857142 5.930989583333332  9.428571428571429 5.980902777777777  9.428571428571429 6.041666666666668  L 9.428571428571429 8.125  C 9.428571428571429 8.641493055555555  9.239955357142858 9.083116319444445  8.862723214285715 9.449869791666666  C 8.485491071428573 9.81662326388889  8.03125 10  7.5 10  L 1.9285714285714288 10  C 1.3973214285714288 10  0.9430803571428572 9.81662326388889  0.5658482142857143 9.449869791666666  C 0.18861607142857142 9.083116319444445  0 8.641493055555555  0 8.125  L 0 2.708333333333334  C 0 2.191840277777777  0.18861607142857142 1.7502170138888884  0.5658482142857143 1.3834635416666663  C 0.9430803571428572 1.016710069444443  1.3973214285714288 0.8333333333333337  1.9285714285714288 0.8333333333333337  L 6.642857142857143 0.8333333333333337  C 6.705357142857144 0.8333333333333337  6.756696428571429 0.8528645833333337  6.796875 0.8919270833333337  C 6.837053571428571 0.9309895833333337  6.857142857142857 0.9809027777777768  6.857142857142857 1.0416666666666663  L 6.857142857142857 1.4583333333333337  C 6.857142857142857 1.519097222222222  6.837053571428571 1.5690104166666663  6.796875 1.6080729166666663  C 6.756696428571429 1.6471354166666663  6.705357142857144 1.6666666666666663  6.642857142857143 1.6666666666666663  L 1.9285714285714288 1.6666666666666663  C 1.6339285714285716 1.6666666666666663  1.3816964285714288 1.768663194444443  1.171875 1.97265625  C 0.9620535714285715 2.1766493055555545  0.8571428571428571 2.421875  0.8571428571428571 2.708333333333334  L 0.8571428571428571 8.125  C 0.8571428571428571 8.411458333333334  0.9620535714285715 8.656684027777777  1.171875 8.860677083333334  C 1.3816964285714288 9.06467013888889  1.6339285714285716 9.166666666666666  1.9285714285714288 9.166666666666666  L 7.5 9.166666666666666  C 7.794642857142857 9.166666666666666  8.046875 9.06467013888889  8.256696428571429 8.860677083333334  C 8.466517857142858 8.656684027777777  8.571428571428571 8.411458333333334  8.571428571428571 8.125  L 8.571428571428571 6.041666666666668  C 8.571428571428571 5.980902777777777  8.591517857142858 5.930989583333332  8.631696428571429 5.891927083333332  C 8.671875 5.852864583333332  8.723214285714286 5.833333333333332  8.785714285714285 5.833333333333332  L 9.214285714285715 5.833333333333332  C 9.276785714285715 5.833333333333332  9.328125 5.852864583333332  9.368303571428571 5.891927083333332  Z M 11.872767857142858 0.1236979166666663  C 11.957589285714286 0.2061631944444431  12 0.3038194444444431  12 0.4166666666666663  L 12 3.75  C 12 3.8628472222222223  11.957589285714286 3.9605034722222223  11.872767857142858 4.04296875  C 11.78794642857143 4.125434027777778  11.6875 4.166666666666666  11.571428571428571 4.166666666666666  C 11.455357142857142 4.166666666666666  11.354910714285715 4.125434027777778  11.270089285714285 4.04296875  L 10.091517857142858 2.897135416666666  L 5.725446428571429 7.141927083333332  C 5.680803571428571 7.185329861111109  5.6294642857142865 7.20703125  5.571428571428571 7.20703125  C 5.513392857142858 7.20703125  5.462053571428572 7.185329861111109  5.417410714285714 7.141927083333332  L 4.654017857142858 6.399739583333332  C 4.609375 6.356336805555555  4.587053571428571 6.306423611111112  4.587053571428571 6.25  C 4.587053571428571 6.193576388888888  4.609375 6.143663194444445  4.654017857142858 6.100260416666668  L 9.020089285714285 1.85546875  L 7.841517857142857 0.7096354166666663  C 7.756696428571431 0.6271701388888884  7.714285714285715 0.5295138888888884  7.714285714285715 0.4166666666666663  C 7.714285714285715 0.3038194444444431  7.756696428571431 0.2061631944444431  7.841517857142857 0.1236979166666663  C 7.9263392857142865 0.041232638888889506  8.026785714285715 0  8.142857142857142 0  L 11.571428571428571 0  C 11.6875 0  11.78794642857143 0.041232638888889506  11.872767857142858 0.1236979166666663  Z " fill-rule="nonzero" fill="#000000" stroke="none" transform="matrix(1 0 0 1 265 63 )" />
  </g>
</svg>