<?xml version="1.0" encoding="utf-8"?>
<svg version="1.1" xmlns:xlink="http://www.w3.org/1999/xlink" width="27px" height="20px" xmlns="http://www.w3.org/2000/svg">
  <g transform="matrix(1 0 0 1 -147 -82 )">
    <path d="M 17.859375 11.704545454545453  C 17.953125 11.590909090909092  18 11.477272727272727  18 11.363636363636363  C 18 11.231060606060606  17.957812500000003 11.122159090909092  17.8734375 11.036931818181817  C 17.7890625 10.951704545454547  17.681250000000002 10.909090909090908  17.55 10.909090909090908  L 14.4 10.909090909090908  L 14.4 5.909090909090908  C 14.4 5.785984848484846  14.35546875 5.679450757575757  14.266406250000001 5.589488636363635  C 14.177343750000002 5.499526515151514  14.071875000000002 5.454545454545454  13.950000000000001 5.454545454545454  L 11.25 5.454545454545454  C 11.128125 5.454545454545454  11.02265625 5.499526515151514  10.93359375 5.589488636363635  C 10.84453125 5.679450757575757  10.8 5.785984848484846  10.8 5.909090909090908  L 10.8 10.909090909090908  L 7.6499999999999995 10.909090909090908  C 7.528125 10.909090909090908  7.42265625 10.954071969696969  7.3335937499999995 11.044034090909092  C 7.2445312500000005 11.133996212121211  7.2 11.240530303030303  7.2 11.363636363636363  C 7.2 11.49621212121212  7.242187500000001 11.605113636363637  7.3265625000000005 11.690340909090908  L 12.2765625 16.690340909090907  C 12.360937500000002 16.77556818181818  12.46875 16.81818181818182  12.6 16.81818181818182  C 12.731250000000001 16.81818181818182  12.8390625 16.77556818181818  12.9234375 16.690340909090907  L 17.859375 11.704545454545453  Z M 25.825781250000002 11.157670454545453  C 26.608593750000004 12.147253787878789  27.000000000000007 13.276515151515149  27 14.545454545454547  C 27.000000000000007 16.051136363636363  26.472656250000004 17.336647727272727  25.41796875 18.401988636363637  C 24.363281250000004 19.467329545454547  23.090625000000003 20  21.6 20  L 6.3 20  C 4.565625 20  3.0820312500000004 19.377367424242426  1.8492187500000001 18.132102272727273  C 0.6164062499999999 16.886837121212118  0 15.388257575757578  0 13.636363636363637  C 0 12.405303030303028  0.328125 11.268939393939394  0.9843750000000001 10.227272727272727  C 1.640625 9.185606060606057  2.521875 8.404356060606057  3.628125 7.883522727272727  C 3.609375 7.599431818181818  3.6 7.395833333333332  3.6 7.272727272727273  C 3.6 5.265151515151514  4.303125 3.5511363636363646  5.709375 2.130681818181819  C 7.1156250000000005 0.7102272727272729  8.812500000000002 0  10.8 0  C 12.262500000000001 0  13.600781250000002 0.4119318181818188  14.81484375 1.2357954545454541  C 16.028906250000002 2.0596590909090917  16.9125 3.1534090909090917  17.465625 4.517045454545454  C 18.13125 3.929924242424241  18.909375 3.6363636363636354  19.799999999999997 3.6363636363636354  C 20.793750000000003 3.6363636363636354  21.6421875 3.991477272727273  22.345312500000002 4.701704545454546  C 23.0484375 5.411931818181818  23.400000000000002 6.268939393939393  23.400000000000002 7.272727272727273  C 23.400000000000002 7.99242424242424  23.2078125 8.645833333333332  22.8234375 9.232954545454547  C 24.0421875 9.526515151515152  25.04296875 10.16808712121212  25.825781250000002 11.157670454545453  Z " fill-rule="nonzero" fill="#000000" stroke="none" transform="matrix(1 0 0 1 147 82 )" />
  </g>
</svg>