<?xml version="1.0" encoding="utf-8"?>
<svg version="1.1" xmlns:xlink="http://www.w3.org/1999/xlink" width="14px" height="14px" xmlns="http://www.w3.org/2000/svg">
  <g transform="matrix(1 0 0 1 -40 -1693 )">
    <path d="M 8.649739583333332 8.649739583333334  C 9.10546875 8.194010416666666  9.333333333333332 7.644097222222221  9.333333333333332 7  C 9.333333333333332 6.355902777777777  9.10546875 5.805989583333333  8.649739583333332 5.350260416666667  C 8.194010416666668 4.89453125  7.644097222222223 4.666666666666667  7 4.666666666666667  C 6.355902777777779 4.666666666666667  5.805989583333334 4.89453125  5.350260416666666 5.350260416666667  C 4.89453125 5.805989583333333  4.666666666666666 6.355902777777777  4.666666666666666 7  C 4.666666666666666 7.644097222222221  4.89453125 8.194010416666666  5.350260416666666 8.649739583333334  C 5.805989583333334 9.10546875  6.355902777777779 9.333333333333334  7 9.333333333333334  C 7.644097222222223 9.333333333333334  8.194010416666668 9.10546875  8.649739583333332 8.649739583333334  Z M 9.54296875 4.45703125  C 10.241753472222223 5.1558159722222205  10.591145833333332 6.0034722222222205  10.591145833333332 7  C 10.591145833333332 7.996527777777779  10.241753472222223 8.844184027777779  9.54296875 9.54296875  C 8.844184027777779 10.241753472222221  7.996527777777779 10.591145833333332  7 10.591145833333332  C 6.003472222222222 10.591145833333332  5.155815972222222 10.241753472222221  4.45703125 9.54296875  C 3.758246527777778 8.844184027777779  3.408854166666667 7.996527777777779  3.408854166666667 7  C 3.408854166666667 6.0034722222222205  3.758246527777778 5.1558159722222205  4.45703125 4.45703125  C 5.155815972222222 3.758246527777777  6.003472222222222 3.408854166666667  7 3.408854166666667  C 7.996527777777779 3.408854166666667  8.844184027777779 3.758246527777777  9.54296875 4.45703125  Z M 11.329427083333332 2.670572916666667  C 11.493489583333332 2.834635416666667  11.575520833333332 3.0321180555555545  11.575520833333332 3.263020833333333  C 11.575520833333332 3.4939236111111107  11.493489583333332 3.69140625  11.329427083333332 3.85546875  C 11.165364583333332 4.01953125  10.967881944444445 4.1015625  10.736979166666668 4.1015625  C 10.50607638888889 4.1015625  10.30859375 4.01953125  10.14453125 3.85546875  C 9.98046875 3.69140625  9.8984375 3.4939236111111107  9.8984375 3.263020833333333  C 9.8984375 3.0321180555555545  9.98046875 2.834635416666667  10.14453125 2.670572916666667  C 10.30859375 2.506510416666667  10.50607638888889 2.424479166666667  10.736979166666668 2.424479166666667  C 10.967881944444445 2.424479166666667  11.165364583333332 2.506510416666667  11.329427083333332 2.670572916666667  Z M 7.697265625 1.2532552083333328  C 7.274956597222223 1.2562934027777766  7.042534722222223 1.2578125  7 1.2578125  C 6.957465277777779 1.2578125  6.725043402777779 1.2562934027777766  6.302734375 1.2532552083333328  C 5.880425347222222 1.2502170138888875  5.559895833333334 1.2502170138888875  5.341145833333334 1.2532552083333328  C 5.122395833333334 1.2562934027777766  4.829210069444445 1.265407986111111  4.461588541666666 1.2805989583333328  C 4.09396701388889 1.2957899305555547  3.7810329861111116 1.326171875  3.5227864583333335 1.3717447916666672  C 3.264539930555556 1.4173177083333328  3.047309027777778 1.4735243055555547  2.87109375 1.5403645833333328  C 2.567274305555556 1.661892361111111  2.2999131944444446 1.8381076388888875  2.069010416666667 2.069010416666667  C 1.838107638888889 2.2999131944444438  1.6618923611111112 2.5672743055555545  1.5403645833333335 2.87109375  C 1.4735243055555556 3.047309027777777  1.4173177083333335 3.2645399305555545  1.3717447916666665 3.522786458333333  C 1.326171875 3.7810329861111107  1.2957899305555556 4.0939670138888875  1.2805989583333335 4.461588541666667  C 1.2654079861111112 4.829210069444444  1.256293402777778 5.122395833333333  1.2532552083333335 5.341145833333333  C 1.250217013888889 5.559895833333333  1.250217013888889 5.8804253472222205  1.2532552083333335 6.302734375  C 1.256293402777778 6.725043402777777  1.2578125 6.957465277777777  1.2578125 7  C 1.2578125 7.042534722222221  1.256293402777778 7.274956597222221  1.2532552083333335 7.697265625  C 1.250217013888889 8.119574652777779  1.250217013888889 8.440104166666666  1.2532552083333335 8.658854166666666  C 1.256293402777778 8.877604166666666  1.2654079861111112 9.170789930555554  1.2805989583333335 9.538411458333334  C 1.2957899305555556 9.906032986111109  1.326171875 10.218967013888888  1.3717447916666665 10.477213541666666  C 1.4173177083333335 10.735460069444443  1.4735243055555556 10.95269097222222  1.5403645833333335 11.12890625  C 1.6618923611111112 11.432725694444443  1.838107638888889 11.700086805555557  2.069010416666667 11.930989583333332  C 2.2999131944444446 12.16189236111111  2.567274305555556 12.33810763888889  2.87109375 12.459635416666668  C 3.047309027777778 12.526475694444443  3.264539930555556 12.582682291666668  3.5227864583333335 12.628255208333332  C 3.7810329861111116 12.673828125  4.09396701388889 12.704210069444443  4.461588541666666 12.719401041666668  C 4.829210069444445 12.73459201388889  5.122395833333334 12.743706597222223  5.341145833333334 12.746744791666668  C 5.559895833333334 12.74978298611111  5.880425347222222 12.74978298611111  6.302734375 12.746744791666668  C 6.725043402777779 12.743706597222223  6.957465277777779 12.7421875  7 12.7421875  C 7.042534722222223 12.7421875  7.274956597222223 12.743706597222223  7.697265625 12.746744791666668  C 8.119574652777779 12.74978298611111  8.440104166666668 12.74978298611111  8.658854166666668 12.746744791666668  C 8.877604166666668 12.743706597222223  9.170789930555557 12.73459201388889  9.538411458333332 12.719401041666668  C 9.906032986111112 12.704210069444443  10.21896701388889 12.673828125  10.477213541666668 12.628255208333332  C 10.735460069444445 12.582682291666668  10.952690972222223 12.526475694444443  11.12890625 12.459635416666668  C 11.432725694444445 12.33810763888889  11.700086805555557 12.16189236111111  11.930989583333332 11.930989583333332  C 12.161892361111112 11.700086805555557  12.33810763888889 11.432725694444443  12.459635416666668 11.12890625  C 12.526475694444445 10.95269097222222  12.582682291666668 10.735460069444443  12.628255208333332 10.477213541666666  C 12.673828125 10.218967013888888  12.704210069444445 9.906032986111109  12.719401041666668 9.538411458333334  C 12.73459201388889 9.170789930555554  12.743706597222223 8.877604166666666  12.746744791666668 8.658854166666666  C 12.749782986111112 8.440104166666666  12.749782986111112 8.119574652777779  12.746744791666668 7.697265625  C 12.743706597222223 7.274956597222221  12.7421875 7.042534722222221  12.7421875 7  C 12.7421875 6.957465277777777  12.743706597222223 6.725043402777777  12.746744791666668 6.302734375  C 12.749782986111112 5.8804253472222205  12.749782986111112 5.559895833333333  12.746744791666668 5.341145833333333  C 12.743706597222223 5.122395833333333  12.73459201388889 4.829210069444444  12.719401041666668 4.461588541666667  C 12.704210069444445 4.0939670138888875  12.673828125 3.7810329861111107  12.628255208333332 3.522786458333333  C 12.582682291666668 3.2645399305555545  12.526475694444445 3.047309027777777  12.459635416666668 2.87109375  C 12.33810763888889 2.5672743055555545  12.161892361111112 2.2999131944444438  11.930989583333332 2.069010416666667  C 11.700086805555557 1.8381076388888875  11.432725694444445 1.661892361111111  11.12890625 1.5403645833333328  C 10.952690972222223 1.4735243055555547  10.735460069444445 1.4173177083333328  10.477213541666668 1.3717447916666672  C 10.21896701388889 1.326171875  9.906032986111112 1.2957899305555547  9.538411458333332 1.2805989583333328  C 9.170789930555557 1.265407986111111  8.877604166666668 1.2562934027777766  8.658854166666668 1.2532552083333328  C 8.440104166666668 1.2502170138888875  8.119574652777779 1.2502170138888875  7.697265625 1.2532552083333328  Z M 13.954427083333332 4.110677083333333  C 13.984809027777777 4.6453993055555545  14 5.608506944444444  14 7  C 14 8.391493055555557  13.984809027777777 9.354600694444443  13.954427083333332 9.889322916666666  C 13.893663194444445 11.153211805555557  13.516927083333332 12.131510416666668  12.82421875 12.82421875  C 12.131510416666668 13.516927083333332  11.153211805555557 13.893663194444443  9.889322916666668 13.954427083333332  C 9.354600694444445 13.984809027777777  8.391493055555557 14  7 14  C 5.608506944444445 14  4.645399305555555 13.984809027777777  4.110677083333334 13.954427083333332  C 2.846788194444445 13.893663194444443  1.8684895833333335 13.516927083333332  1.17578125 12.82421875  C 0.4830729166666667 12.131510416666668  0.10633680555555557 11.153211805555557  0.04557291666666667 9.889322916666666  C 0.01519097222222222 9.354600694444443  0 8.391493055555557  0 7  C 0 5.608506944444444  0.01519097222222222 4.6453993055555545  0.04557291666666667 4.110677083333333  C 0.10633680555555557 2.8467881944444438  0.4830729166666667 1.8684895833333328  1.17578125 1.17578125  C 1.8684895833333335 0.4830729166666672  2.846788194444445 0.10633680555555469  4.110677083333334 0.045572916666667185  C 4.645399305555555 0.015190972222220323  5.608506944444445 0  7 0  C 8.391493055555557 0  9.354600694444445 0.015190972222220323  9.889322916666668 0.045572916666667185  C 11.153211805555557 0.10633680555555469  12.131510416666668 0.4830729166666672  12.82421875 1.17578125  C 13.516927083333332 1.8684895833333328  13.893663194444445 2.8467881944444438  13.954427083333332 4.110677083333333  Z " fill-rule="nonzero" fill="#000000" stroke="none" transform="matrix(1 0 0 1 40 1693 )" />
  </g>
</svg>