<?xml version="1.0" encoding="utf-8"?>
<svg version="1.1" xmlns:xlink="http://www.w3.org/1999/xlink" width="14px" height="14px" xmlns="http://www.w3.org/2000/svg">
  <g transform="matrix(1 0 0 1 -240 -1693 )">
    <path d="M 2.625 0  L 11.375 0  C 12.09809027777778 0  12.716362847222223 0.2567274305555547  13.229817708333332 0.7701822916666672  C 13.743272569444443 1.2836371527777766  14 1.9019097222222203  14 2.625  L 14 11.375  C 14 12.098090277777777  13.743272569444443 12.716362847222223  13.229817708333332 13.229817708333332  C 12.716362847222223 13.743272569444443  12.09809027777778 14  11.375 14  L 9.661458333333332 14  L 9.661458333333332 8.576822916666666  L 11.475260416666668 8.576822916666666  L 11.748697916666668 6.462239583333333  L 9.661458333333332 6.462239583333333  L 9.661458333333332 5.11328125  C 9.661458333333332 4.7730034722222205  9.73285590277778 4.5177951388888875  9.875651041666668 4.34765625  C 10.018446180555557 4.177517361111111  10.296440972222223 4.092447916666667  10.709635416666668 4.092447916666667  L 11.821614583333332 4.083333333333333  L 11.821614583333332 2.196614583333333  C 11.438802083333332 2.141927083333333  10.898003472222223 2.114583333333333  10.19921875 2.114583333333333  C 9.372829861111112 2.114583333333333  8.712022569444445 2.3576388888888875  8.216796875 2.84375  C 7.721571180555556 3.3298611111111107  7.473958333333333 4.0164930555555545  7.473958333333333 4.903645833333333  L 7.473958333333333 6.462239583333333  L 5.651041666666666 6.462239583333333  L 5.651041666666666 8.576822916666666  L 7.473958333333333 8.576822916666666  L 7.473958333333333 14  L 2.625 14  C 1.9019097222222223 14  1.283637152777778 13.743272569444443  0.7701822916666667 13.229817708333332  C 0.2567274305555555 12.716362847222223  0 12.098090277777777  0 11.375  L 0 2.625  C 0 1.9019097222222203  0.2567274305555555 1.2836371527777766  0.7701822916666667 0.7701822916666672  C 1.283637152777778 0.2567274305555547  1.9019097222222223 0  2.625 0  Z " fill-rule="nonzero" fill="#000000" stroke="none" transform="matrix(1 0 0 1 240 1693 )" />
  </g>
</svg>