<?xml version="1.0" encoding="utf-8"?>
<svg version="1.1" xmlns:xlink="http://www.w3.org/1999/xlink" width="20px" height="24px" xmlns="http://www.w3.org/2000/svg">
  <g transform="matrix(1 0 0 1 -50 -80 )">
    <path d="M 4.770212765957439 23.675675675675677  C 4.770212765957439 23.855135135135143  4.912765957446815 24  5.0893617021276505 24  L 19.5936170212766 24  C 19.77021276595744 24  19.912765957446815 23.855135135135143  20 23.675675675675677  L 20 3.8897297297297317  C 19.912765957446815 3.7102702702702635  19.77021276595744 3.5654054054054076  19.5936170212766 3.5654054054054076  L 15.229787234042561 3.5654054054054076  C 15.229787234042561 0.36756756756757736  15.282978723404263 0.4129729729729661  15.097872340425539 0.2767567567567508  C 14.978723404255314 0.1881081081081091  15.095744680851073 0.22054054054053662  0.40638297872339746 0.21621621621621623  C 0.2297872340425619 0.21621621621621623  0.08723404255318472 0.36108108108107223  0 0.5405405405405406  L 0 20.326486486486484  C 0.08723404255318472 20.505945945945953  0.2297872340425619 20.650810810810807  0.40638297872339746 20.650810810810807  L 4.770212765957439 20.650810810810807  L 4.770212765957439 23.675675675675677  Z M 1 20.00216216216216  L 1 1  L 12.957446808510634 1  L 4.9893617021276695 3.582702702702713  C 4.865957446808512 3.6237837837837823  4.772340425531904 3.747027027027036  5 3.8897297297297317  L 5 20.00216216216216  L 1 20.00216216216216  Z M 19 4.214054054054056  L 19 23  L 5.408510638297863 23  L 5.408510638297863 4.214054054054056  L 19 4.214054054054056  Z M 14.589361702127645 3.5654054054054076  L 7.042553191489366 3.5654054054054076  L 14.589361702127645 0.9902702702702791  L 14.589361702127645 3.5654054054054076  Z M 11.400000000000007 6.432432432432432  C 11.400000000000007 6.252972972972964  11.257446808510633 6.108108108108109  11.080851063829796 6.108108108108109  L 7.789361702127663 6.108108108108109  C 7.612765957446803 6.108108108108109  7.47021276595745 6.252972972972964  7.47021276595745 6.432432432432432  L 7.47021276595745 9.755675675675677  C 7.47021276595745 9.935135135135145  7.612765957446803 10.080000000000002  7.789361702127663 10.080000000000002  L 11.080851063829796 10.080000000000002  C 11.257446808510633 10.080000000000002  11.400000000000007 9.935135135135145  11.400000000000007 9.755675675675677  L 11.400000000000007 6.432432432432432  Z M 10.761702127659582 6.756756756756757  L 10.761702127659582 9.431351351351353  L 8.108510638297876 9.431351351351353  L 8.108510638297876 6.756756756756757  L 10.761702127659582 6.756756756756757  Z M 11.400000000000007 12.12108108108107  C 11.400000000000007 11.941621621621627  11.257446808510633 11.796756756756746  11.080851063829796 11.796756756756746  L 7.789361702127663 11.796756756756746  C 7.612765957446803 11.796756756756746  7.47021276595745 11.941621621621627  7.47021276595745 12.12108108108107  L 7.47021276595745 15.444324324324338  C 7.47021276595745 15.623783783783782  7.612765957446803 15.768648648648664  7.789361702127663 15.768648648648664  L 11.080851063829796 15.768648648648664  C 11.257446808510633 15.768648648648664  11.400000000000007 15.623783783783782  11.400000000000007 15.444324324324338  L 11.400000000000007 12.12108108108107  Z M 10.761702127659582 12.44540540540542  L 10.761702127659582 15.120000000000013  L 8.108510638297876 15.120000000000013  L 8.108510638297876 12.44540540540542  L 10.761702127659582 12.44540540540542  Z M 11.400000000000007 17.80972972972973  C 11.400000000000007 17.630270270270263  11.257446808510633 17.485405405405405  11.080851063829796 17.485405405405405  L 7.789361702127663 17.485405405405405  C 7.612765957446803 17.485405405405405  7.47021276595745 17.630270270270263  7.47021276595745 17.80972972972973  L 7.47021276595745 21.132972972972976  C 7.47021276595745 21.312432432432445  7.612765957446803 21.4572972972973  7.789361702127663 21.4572972972973  L 11.080851063829796 21.4572972972973  C 11.257446808510633 21.4572972972973  11.400000000000007 21.312432432432445  11.400000000000007 21.132972972972976  L 11.400000000000007 17.80972972972973  Z M 10.761702127659582 18.134054054054054  L 10.761702127659582 20.808648648648653  L 8.108510638297876 20.808648648648653  L 8.108510638297876 18.134054054054054  L 10.761702127659582 18.134054054054054  Z M 13.582978723404262 6.341621621621631  C 13.161702127659577 6.341621621621631  13.161702127659577 6.990270270270279  13.582978723404262 6.990270270270279  L 16.89361702127659 6.990270270270279  C 17.314893617021276 6.990270270270279  17.314893617021276 6.341621621621631  16.89361702127659 6.341621621621631  L 13.582978723404262 6.341621621621631  Z M 16.89361702127659 8.947027027027026  C 17.314893617021276 8.947027027027026  17.314893617021276 8.298378378378377  16.89361702127659 8.298378378378377  L 13.582978723404262 8.298378378378377  C 13.161702127659577 8.298378378378377  13.161702127659577 8.947027027027026  13.582978723404262 8.947027027027026  L 16.89361702127659 8.947027027027026  Z M 16.89361702127659 12.678918918918914  C 17.314893617021276 12.678918918918914  17.314893617021276 12.030270270270268  16.89361702127659 12.030270270270268  L 13.582978723404262 12.030270270270268  C 13.161702127659577 12.030270270270268  13.161702127659577 12.678918918918914  13.582978723404262 12.678918918918914  L 16.89361702127659 12.678918918918914  Z M 16.89361702127659 14.635675675675689  C 17.314893617021276 14.635675675675689  17.314893617021276 13.98702702702704  16.89361702127659 13.98702702702704  L 13.582978723404262 13.98702702702704  C 13.161702127659577 13.98702702702704  13.161702127659577 14.635675675675689  13.582978723404262 14.635675675675689  L 16.89361702127659 14.635675675675689  Z M 16.89361702127659 18.367567567567576  C 17.314893617021276 18.367567567567576  17.314893617021276 17.71891891891893  16.89361702127659 17.71891891891893  L 13.582978723404262 17.71891891891893  C 13.161702127659577 17.71891891891893  13.161702127659577 18.367567567567576  13.582978723404262 18.367567567567576  L 16.89361702127659 18.367567567567576  Z M 16.89361702127659 20.324324324324323  C 17.314893617021276 20.324324324324323  17.314893617021276 19.675675675675674  16.89361702127659 19.675675675675674  L 13.582978723404262 19.675675675675674  C 13.161702127659577 19.675675675675674  13.161702127659577 20.324324324324323  13.582978723404262 20.324324324324323  L 16.89361702127659 20.324324324324323  Z " fill-rule="nonzero" fill="#000000" stroke="none" transform="matrix(1 0 0 1 50 80 )" />
  </g>
</svg>