<?xml version="1.0" encoding="utf-8"?>
<svg version="1.1" xmlns:xlink="http://www.w3.org/1999/xlink" width="18px" height="14px" xmlns="http://www.w3.org/2000/svg">
  <g transform="matrix(1 0 0 1 -40 -1533 )">
    <path d="M 16.995535714285715 5.379261363636364  C 17.377232142857146 5.120738636363636  17.712053571428573 4.832386363636364  18 4.514204545454545  L 18 12.409090909090908  C 18 12.846590909090908  17.84263392857143 13.221117424242426  17.527901785714285 13.532670454545455  C 17.213169642857146 13.844223484848484  16.83482142857143 14  16.392857142857142 14  L 1.6071428571428572 14  C 1.1651785714285716 14  0.7868303571428572 13.844223484848484  0.47209821428571436 13.532670454545455  C 0.1573660714285715 13.221117424242426  0 12.846590909090908  0 12.409090909090908  L 0 4.514204545454545  C 0.2946428571428572 4.8390151515151505  0.6328125000000001 5.127367424242422  1.0145089285714286 5.379261363636364  C 3.438616071428572 7.009943181818182  5.102678571428571 8.153409090909092  6.006696428571429 8.809659090909092  C 6.388392857142858 9.088068181818182  6.69810267857143 9.305160984848484  6.935825892857142 9.4609375  C 7.173549107142858 9.616714015151514  7.489955357142858 9.775804924242424  7.885044642857142 9.938210227272728  C 8.280133928571429 10.10061553030303  8.6484375 10.181818181818182  8.989955357142858 10.181818181818182  L 9 10.181818181818182  L 9.010044642857142 10.181818181818182  C 9.351562500000002 10.181818181818182  9.719866071428571 10.10061553030303  10.114955357142858 9.938210227272728  C 10.510044642857146 9.775804924242424  10.826450892857146 9.616714015151514  11.064174107142858 9.4609375  C 11.301897321428571 9.305160984848484  11.611607142857142 9.088068181818182  11.993303571428573 8.809659090909092  C 13.13169642857143 7.994318181818182  14.799107142857146 6.850852272727273  16.995535714285715 5.379261363636364  Z M 17.522879464285715 0.46732954545454475  C 17.840959821428573 0.7788825757575746  18 1.153409090909091  18 1.590909090909091  C 18 2.1145833333333313  17.8359375 2.615056818181818  17.5078125 3.092329545454545  C 17.1796875 3.5696022727272734  16.771205357142858 3.9772727272727266  16.282366071428573 4.315340909090909  C 13.76450892857143 6.045454545454545  12.197544642857146 7.122632575757576  11.581473214285715 7.546875  C 11.51450892857143 7.593276515151515  11.372209821428571 7.694365530303029  11.154575892857142 7.850142045454547  C 10.936941964285715 8.005918560606059  10.756138392857146 8.13186553030303  10.612165178571427 8.227982954545453  C 10.468191964285714 8.324100378787877  10.294084821428573 8.431818181818182  10.08984375 8.551136363636363  C 9.885602678571429 8.670454545454547  9.693080357142858 8.759943181818182  9.512276785714285 8.819602272727272  C 9.331473214285715 8.879261363636363  9.1640625 8.909090909090908  9.010044642857142 8.909090909090908  L 9 8.909090909090908  L 8.989955357142858 8.909090909090908  C 8.8359375 8.909090909090908  8.668526785714286 8.879261363636363  8.487723214285714 8.819602272727272  C 8.306919642857142 8.759943181818182  8.114397321428571 8.670454545454547  7.91015625 8.551136363636363  C 7.705915178571429 8.431818181818182  7.531808035714286 8.324100378787877  7.387834821428571 8.227982954545453  C 7.243861607142858 8.13186553030303  7.0630580357142865 8.005918560606059  6.845424107142858 7.850142045454547  C 6.62779017857143 7.694365530303029  6.485491071428573 7.593276515151515  6.4185267857142865 7.546875  C 5.809151785714286 7.122632575757576  4.931919642857142 6.517755681818182  3.7868303571428568 5.732244318181818  C 2.641741071428571 4.946732954545453  1.9553571428571432 4.474431818181817  1.7276785714285716 4.315340909090909  C 1.3125 4.036931818181817  0.9207589285714288 3.654119318181818  0.5524553571428572 3.166903409090909  C 0.18415178571428578 2.6796875  0 2.2272727272727266  0 1.809659090909091  C 0 1.2926136363636358  0.1389508928571429 0.8617424242424223  0.41685267857142866 0.5170454545454553  C 0.6947544642857144 0.17234848484848353  1.0915178571428574 0  1.6071428571428572 0  L 16.392857142857142 0  C 16.828125 0  17.204799107142858 0.15577651515151336  17.522879464285715 0.46732954545454475  Z " fill-rule="nonzero" fill="#000000" stroke="none" transform="matrix(1 0 0 1 40 1533 )" />
  </g>
</svg>