<?xml version="1.0" encoding="utf-8"?>
<svg version="1.1" xmlns:xlink="http://www.w3.org/1999/xlink" width="16px" height="20px" xmlns="http://www.w3.org/2000/svg">
  <g transform="matrix(1 0 0 1 -252 -82 )">
    <path d="M 15.925534698795179 17.093021428571426  C 15.925534698795179 15.506168333333331  14.603395903614459 14.221890000000002  12.989872048192773 14.22188261904762  C 12.317612771084336 14.22188261904762  11.69012048192771 14.45069214285714  11.197130843373493 14.81973976190476  L 5.71421686746988 11.136651904761905  C 6.021751807228917 10.448975952380952  6.021848915662652 9.559039761904762  5.699247228915664 8.878080476190476  C 5.699262168674699 8.878080476190476  11.197130843373497 5.180215952380952  11.197130843373497 5.180215952380952  C 13.027542650602411 6.633178571428572  15.975627710843376 5.258446666666666  15.925489879518077 2.9068457142857147  C 15.925534698795184 1.3273809523809523  14.603395903614464 0.03571428571428571  12.989872048192774 0.03571428571428571  C 10.940622650602412 -0.0046595238095238625  9.460914216867474 2.175238333333333  10.278343132530123 4.006710952380953  C 10.27830578313253 4.0066740476190486  4.758049879518075 7.719270952380953  4.758049879518075 7.719270952380953  C 2.947500481927713 6.30797380952381  0.001521927710845682 7.7094764285714295  0.07453253012048448 10.022201904761907  C 0.024940000000002047 12.359579761904762  2.968976385542171 13.757000714285715  4.795473975903616 12.295395000000003  C 4.795436626506026 12.295468809523808  10.27830578313253 15.993333333333336  10.27830578313253 15.993333333333336  C 10.136378072289155 16.33282761904762  10.05421686746988 16.701875238095237  10.05421686746988 17.093087857142855  C 10.174907710843375 20.88122142857143  15.796933253012048 20.890019523809524  15.925534698795179 17.093021428571426  Z " fill-rule="nonzero" fill="#000000" stroke="none" transform="matrix(1 0 0 1 252 82 )" />
  </g>
</svg>