<?xml version="1.0" encoding="utf-8"?>
<svg version="1.1" xmlns:xlink="http://www.w3.org/1999/xlink" width="20px" height="20px" xmlns="http://www.w3.org/2000/svg">
  <g transform="matrix(1 0 0 1 -40 -1590 )">
    <path d="M 19.91139303482587 16.65670157068063  C 19.91139303482587 14.387382198952881  15.100099502487563 13.687225130890049  12.755422885572141 13.475602094240834  L 15.016666666666666 9.873507853403142  C 15.662796698915384 8.841210299897984  16.007164179104475 7.632215595214644  16.007164179104475 6.396099804066466  C 16.007164179104475 2.9047348913141446  13.317665165849222 0.07442441139630866  10 0.07442441139630866  C 6.6823348341507804 0.07442441139630866  3.9928358208955235 2.9047348913141446  3.9928358208955235 6.396099804066466  C 3.9928358208955235 7.632215595214644  4.337203301084614 8.841210299897984  4.983333333333334 9.873507853403142  L 7.2445771144278615 13.475602094240834  C 4.846417910447761 13.700732984293191  0.08646766169154305 14.40314136125654  0.08646766169154305 16.65895287958115  C 0.08646766169154305 18.914764397905756  5.225074626865672 19.959371727748692  10 19.959371727748692  C 14.774925373134325 19.959371727748692  19.91139303482587 18.92602094240838  19.91139303482587 16.65670157068063  Z M 6.938653726484673 6.336704708384216  C 6.938653726484673 6.335202789333739  6.9386547231293285 6.333700870465224  6.938656716417909 6.3321989528795815  C 6.943373396715167 4.5564683680881775  8.31259566847211 3.119581151857047  9.999988040208676 3.119581151857047  C 11.690721249727991 3.119581151857047  13.061331323790766 4.561950915661329  13.061331323790766 6.341204188506263  C 13.061331323790766 8.120457461351194  11.690721249727991 9.562827225155477  9.999988040208676 9.562827225155477  C 8.308574917975731 9.560344686079548  6.938653726484673 8.116687808622556  6.938653726484673 6.336704708384216  Z M 18.62781094527363 16.65895287958115  C 18.62781094527363 16.767015706806284  18.229900497512435 17.34109947643979  16.387960199004972 17.863403141361257  C 14.689353233830843 18.34293193717277  12.421691542288558 18.608586387434556  10 18.608586387434556  C 7.578308457711442 18.608586387434556  5.310646766169153 18.34293193717277  3.612039800995025 17.863403141361257  C 1.7700995024875619 17.34109947643979  1.372189054726368 16.767015706806284  1.372189054726368 16.65895287958115  C 1.372189054726368 16.224450261780103  3.3660199004975127 15.053769633507851  8.055373134328358 14.767853403141359  L 8.930348258706468 16.163664921465966  C 9.168163321823014 16.540955283446703  9.569776363353308 16.76777557075768  9.999999999999998 16.76777557075768  C 10.430223636646689 16.76777557075768  10.831836678176984 16.540955283446703  11.069651741293532 16.163664921465966  L 11.944626865671644 14.767853403141359  C 16.9463184079602 15.07403141361256  18.62781094527363 16.34376963350785  18.62781094527363 16.65895287958115  Z " fill-rule="nonzero" fill="#000000" stroke="none" transform="matrix(1 0 0 1 40 1590 )" />
  </g>
</svg>