<?xml version="1.0" encoding="utf-8"?>
<svg version="1.1" xmlns:xlink="http://www.w3.org/1999/xlink" width="16px" height="16px" xmlns="http://www.w3.org/2000/svg">
  <g transform="matrix(1 0 0 1 -10 -7 )">
    <path d="M 4.412517186176871 0.8197278334246719  C 4.412517186176871 0.4195121621918065  4.092513703183674 0.09731687452055156  3.695020587537415 0.09731687452055156  C 3.2975274718911565 0.09731687452055156  2.9775239888979597 0.4195121621918065  2.9775239888979597 0.8197278334246719  L 2.9775239888979597 2.986960710137008  C 2.9775239888979597 3.3871763813698736  3.2975274718911565 3.7093716690411034  3.695020587537415 3.7093716690411034  C 4.092513703183674 3.7093716690411034  4.412517186176871 3.3871763813698736  4.412517186176871 2.986960710137008  L 4.412517186176871 0.8197278334246719  Z M 11.587482813823128 0.8197278334246719  C 11.587482813823128 0.4195121621918065  11.26747968957823 0.09731687452055156  10.869986573931971 0.09731687452055156  C 10.472493458285712 0.09731687452055156  10.152489975292516 0.4195121621918065  10.152489975292516 0.8197278334246719  L 10.152489975292516 2.986960710137008  C 10.152489975292516 3.3871763813698736  10.472493458285712 3.7093716690411034  10.869986573931971 3.7093716690411034  C 11.267479689578229 3.7093716690411034  11.587482813823128 3.3871763813698736  11.587482813823128 2.986960710137008  L 11.587482813823128 0.8197278334246719  Z M 2.618775689578231 1.9033442717808275  L 0.4662858936598634 1.9033442717808275  C 0.26753933583673395 1.9033442717808275  0.10753759434013557 2.0644599758904394  0.10753759434013557 2.2645497512328876  L 0.10753759434013557 5.15419358684932  L 14.45746920838095 5.15419358684932  L 14.45746920838095 2.2645497512328876  C 14.45746920838095 2.0644599758904394  14.297467466884353 1.9033442717808275  14.098720909061223 1.9033442717808275  L 11.946231113142856 1.9033442717808275  L 11.946231113142856 2.986960710137008  C 11.946231113142856 3.5872842169863186  11.46622624740136 4.070577148493164  10.869986573931971 4.070577148493164  C 10.273746900462584 4.070577148493164  9.793741675972788 3.5872842169863186  9.793741675972788 2.986960710137008  L 9.793741675972788 1.9033442717808275  L 4.771265485496598 1.9033442717808275  L 4.771265485496598 2.986960710137008  C 4.771265485496598 3.5872842169863186  4.291260261006801 4.070577148493164  3.6950205875374142 4.070577148493164  C 3.098780914068027 4.070577148493164  2.618775689578231 3.5872842169863186  2.618775689578231 2.986960710137008  L 2.618775689578231 1.9033442717808275  Z M 14.45746920838095 6  L 0.10753759434013557 6  L 0.10753759434013557 14.184332379178084  C 0.10753759434013557 14.384440214794529  0.2675393358367341 14.545537858630144  0.4662858936598634 14.545537858630144  L 10.71863963515646 14.545537858630144  C 10.583391526312923 14.21070037917809  10.511238274612243 13.844690866849342  10.511238274612243 13.461921420273988  C 10.511238274612243 11.870305595616442  11.800423248108842 10.572277584657558  13.38122431042177 10.572277584657558  C 13.761395264435373 10.572277584657558  14.124905947428568 10.644934066849327  14.45746920838095 10.781090472328787  L 14.45746920838095 6  Z M 15.892462405659861 13.461921420273988  C 15.892462405659861 12.065501036712343  14.768141648108841 10.933483064109591  13.38122431042177 10.933483064109591  C 11.994305178993196 10.933483064109591  10.869986573931971 12.065501036712343  10.869986573931971 13.461921420273988  C 10.869986573931971 14.858341803835609  11.994305178993194 15.99035977643836  13.38122431042177 15.99035977643836  C 14.768141648108841 15.99035977643836  15.892462405659861 14.858341803835609  15.892462405659861 13.461921420273988  Z M 13.02247601110204 12.19770224219179  C 13.02247601110204 11.998208455890438  13.183087624707483 11.83649676273973  13.38122431042177 11.83649676273973  C 13.579360996136057 11.83649676273973  13.739972609741496 11.998208455890438  13.739972609741496 12.19770224219179  L 13.739972609741496 13.100715940821928  L 14.636843358040814 13.100715940821928  C 14.83497466253061 13.100715940821928  14.995591657360544 13.262427633972637  14.995591657360544 13.461921420273988  C 14.995591657360544 13.66141520657534  14.83497466253061 13.823126899726049  14.636843358040814 13.823126899726049  L 13.739972609741496 13.823126899726049  L 13.739972609741496 14.726140598356187  C 13.739972609741496 14.925634384657513  13.579360996136057 15.087346077808222  13.38122431042177 15.087346077808222  C 13.183087624707483 15.087346077808222  13.02247601110204 14.925634384657513  13.02247601110204 14.726140598356187  L 13.02247601110204 13.823126899726049  L 12.12560526280272 13.823126899726049  C 11.927473958312925 13.823126899726049  11.766856963482994 13.66141520657534  11.766856963482994 13.461921420273988  C 11.766856963482994 13.262427633972637  11.927473958312925 13.100715940821928  12.12560526280272 13.100715940821928  L 13.02247601110204 13.100715940821928  L 13.02247601110204 12.19770224219179  Z " fill-rule="nonzero" fill="#ffffff" stroke="none" transform="matrix(1 0 0 1 10 7 )" />
  </g>
</svg>