<?xml version="1.0" encoding="utf-8"?>
<svg version="1.1" xmlns:xlink="http://www.w3.org/1999/xlink" width="12px" height="16px" xmlns="http://www.w3.org/2000/svg">
  <g transform="matrix(1 0 0 1 -145 -387 )">
    <path d="M 1.0875 0  L 10.912500000000001 0  C 11.056250000000002 0  11.193750000000001 0.03172504957039024  11.325 0.09517514871117072  C 11.53125 0.18682529191451636  11.6953125 0.3313505177351832  11.8171875 0.5287508261731659  C 11.939062499999999 0.7261511346111469  12 0.9447014760960553  12 1.184401850627891  L 12 14.815598149372109  C 12 15.055298523903945  11.939062499999999 15.273848865388851  11.8171875 15.471249173826834  C 11.6953125 15.668649482264817  11.53125 15.81317470808548  11.325 15.90482485128883  C 11.20625 15.961224939413967  11.068750000000001 15.989424983476537  10.912500000000001 15.989424983476537  C 10.6125 15.989424983476537  10.353125000000002 15.87662480722626  10.134374999999999 15.651024454725711  L 6 11.167217448777263  L 1.8656249999999999 15.651024454725711  C 1.640625 15.883674818241904  1.38125 16  1.0875 16  C 0.94375 16  0.8062499999999999 15.96827495042961  0.675 15.90482485128883  C 0.46875 15.81317470808548  0.3046875 15.668649482264817  0.1828125 15.471249173826834  C 0.060937500000000006 15.273848865388851  0 15.055298523903945  0 14.815598149372109  L 0 1.184401850627891  C 0 0.9447014760960553  0.060937500000000006 0.7261511346111469  0.1828125 0.5287508261731659  C 0.3046875 0.3313505177351832  0.46875 0.18682529191451636  0.675 0.09517514871117072  C 0.8062499999999999 0.03172504957039024  0.94375 0  1.0875 0  Z " fill-rule="nonzero" fill="#ffffff" stroke="none" transform="matrix(1 0 0 1 145 387 )" />
  </g>
</svg>