<?xml version="1.0" encoding="utf-8"?>
<svg version="1.1" xmlns:xlink="http://www.w3.org/1999/xlink" width="13px" height="16px" xmlns="http://www.w3.org/2000/svg">
  <g transform="matrix(1 0 0 1 -260 -387 )">
    <path d="M 12.939496942771083 13.674417142857141  C 12.939496942771083 12.404934666666666  11.865259171686748 11.377512000000001  10.554271039156628 11.377506095238095  C 10.008060376506023 11.377506095238095  9.498222891566265 11.560553714285712  9.097668810240963 11.855791809523808  L 4.6428012048192775 8.909321523809524  C 4.892673343373495 8.359180761904762  4.892752243975904 7.647231809523809  4.630638373493977 7.10246438095238  C 4.630650512048193 7.10246438095238  9.097668810240966 4.144172761904762  9.097668810240966 4.144172761904762  C 10.584878403614459 5.3065428571428575  12.980197515060244 4.206757333333333  12.939460527108437 2.3254765714285717  C 12.939496942771088 1.061904761904762  11.865259171686752 0.02857142857142857  10.55427103915663 0.02857142857142857  C 8.88925590361446 -0.00372761904761909  7.6869928012048225 1.7401906666666664  8.351153795180725 3.205368761904762  C 8.351123448795182 3.2053392380952386  3.865915527108436 6.175416761904762  3.865915527108436 6.175416761904762  C 2.3948441415662667 5.046379047619048  0.0012365662650621165 6.167581142857143  0.06055768072289364 8.017761523809526  C 0.020263750000001662 9.88766380952381  2.412293313253014 11.005600571428571  3.896322605421688 9.836316000000002  C 3.896292259036146 9.836375047619047  8.351123448795182 12.794666666666668  8.351123448795182 12.794666666666668  C 8.235807183734938 13.066262095238095  8.169051204819278 13.361500190476189  8.169051204819278 13.674470285714285  C 8.267112515060242 16.704977142857143  12.835008268072288 16.71201561904762  12.939496942771083 13.674417142857141  Z " fill-rule="nonzero" fill="#ffffff" stroke="none" transform="matrix(1 0 0 1 260 387 )" />
  </g>
</svg>