<?xml version="1.0" encoding="utf-8"?>
<svg version="1.1" xmlns:xlink="http://www.w3.org/1999/xlink" width="20px" height="20px" xmlns="http://www.w3.org/2000/svg">
  <g transform="matrix(1 0 0 1 -249 -15 )">
    <path d="M 5.515646482721088 1.02465979178084  C 5.515646482721088 0.5243902027397581  5.115642128979593 0.12164609315068944  4.618775734421769 0.12164609315068944  C 4.1219093398639455 0.12164609315068944  3.72190498612245 0.5243902027397581  3.72190498612245 1.02465979178084  L 3.72190498612245 3.7337008876712603  C 3.72190498612245 4.233970476712342  4.1219093398639455 4.6367145863013794  4.618775734421769 4.6367145863013794  C 5.115642128979593 4.6367145863013794  5.515646482721088 4.233970476712342  5.515646482721088 3.7337008876712603  L 5.515646482721088 1.02465979178084  Z M 14.48435351727891 1.02465979178084  C 14.48435351727891 0.5243902027397581  14.084349611972788 0.12164609315068944  13.587483217414963 0.12164609315068944  C 13.09061682285714 0.12164609315068944  12.690612469115646 0.5243902027397581  12.690612469115646 1.02465979178084  L 12.690612469115646 3.7337008876712603  C 12.690612469115646 4.233970476712342  13.09061682285714 4.6367145863013794  13.587483217414963 4.6367145863013794  C 14.084349611972787 4.6367145863013794  14.48435351727891 4.233970476712342  14.48435351727891 3.7337008876712603  L 14.48435351727891 1.02465979178084  Z M 3.2734696119727884 2.3791803397260343  L 0.5828573670748293 2.3791803397260343  C 0.33442416979591744 2.3791803397260343  0.13442199292516946 2.5805749698630494  0.13442199292516946 2.8306871890411096  L 0.13442199292516946 6.44274198356165  L 18.07183651047619 6.44274198356165  L 18.07183651047619 2.8306871890411096  C 18.07183651047619 2.5805749698630494  17.87183433360544 2.3791803397260343  17.623401136326528 2.3791803397260343  L 14.93278889142857 2.3791803397260343  L 14.93278889142857 3.7337008876712603  C 14.93278889142857 4.484105271232898  14.3327828092517 5.088221435616455  13.587483217414963 5.088221435616455  C 12.84218362557823 5.088221435616455  12.242177094965985 4.484105271232898  12.242177094965985 3.7337008876712603  L 12.242177094965985 2.3791803397260343  L 5.964081856870748 2.3791803397260343  L 5.964081856870748 3.7337008876712603  C 5.964081856870748 4.484105271232898  5.364075326258502 5.088221435616455  4.618775734421768 5.088221435616455  C 3.8734761425850337 5.088221435616455  3.2734696119727884 4.484105271232898  3.2734696119727884 3.7337008876712603  L 3.2734696119727884 2.3791803397260343  Z M 18.07183651047619 7.345755682191799  L 0.13442199292516946 7.345755682191799  L 0.13442199292516946 17.730415473972606  C 0.13442199292516946 17.98055026849316  0.33442416979591766 18.18192232328768  0.5828573670748293 18  L 13.398299543945576 18  C 13.229239407891153 17.763375473972612  13.139047843265303 17.305863583561678  13.139047843265303 16.827401775342487  C 13.139047843265303 14.837881994520552  14.750529060136053 13.215346980821947  16.72653038802721 13.215346980821947  C 17.201744080544216 13.215346980821947  17.65613243428571 13.30616758356166  18.07183651047619 13.476363090410983  L 18.07183651047619 7.345755682191799  Z M 19.865578007074827 16.827401775342487  C 19.865578007074827 15.081876295890428  18.46017706013605 13.66685383013699  16.72653038802721 13.66685383013699  C 14.992881473741495 13.66685383013699  13.587483217414963 15.081876295890428  13.587483217414963 16.827401775342487  C 13.587483217414963 18.57292725479451  14.992881473741493 19.987949720547952  16.72653038802721 19.987949720547952  C 18.46017706013605 19.987949720547952  19.865578007074827 18.57292725479451  19.865578007074827 16.827401775342487  Z M 16.27809501387755 15.247127802739737  C 16.27809501387755 14.997760569863047  16.478859530884353 14.795620953424661  16.72653038802721 14.795620953424661  C 16.97420124517007 14.795620953424661  17.17496576217687 14.997760569863047  17.17496576217687 15.247127802739737  L 17.17496576217687 16.37589492602741  L 18.296054197551015 16.37589492602741  C 18.543718328163262 16.37589492602741  18.74448957170068 16.578034542465797  18.74448957170068 16.827401775342487  C 18.74448957170068 17.076769008219173  18.543718328163262 17.27890862465756  18.296054197551015 17.27890862465756  L 17.17496576217687 17.27890862465756  L 17.17496576217687 18.407675747945234  C 17.17496576217687 18.657042980821892  16.97420124517007 18.85918259726028  16.72653038802721 18.85918259726028  C 16.478859530884353 18.85918259726028  16.27809501387755 18.657042980821892  16.27809501387755 18.407675747945234  L 16.27809501387755 17.27890862465756  L 15.1570065785034 17.27890862465756  C 14.909342447891156 17.27890862465756  14.708571204353742 17.076769008219173  14.708571204353742 16.827401775342487  C 14.708571204353742 16.578034542465797  14.909342447891156 16.37589492602741  15.1570065785034 16.37589492602741  L 16.27809501387755 16.37589492602741  L 16.27809501387755 15.247127802739737  Z " fill-rule="nonzero" fill="#37406d" stroke="none" transform="matrix(1 0 0 1 249 15 )" />
  </g>
</svg>