<?xml version="1.0" encoding="utf-8"?>
<svg version="1.1" xmlns:xlink="http://www.w3.org/1999/xlink" width="15px" height="20px" xmlns="http://www.w3.org/2000/svg">
  <defs>
    <mask fill="white" id="clip19">
      <path d="M 1.359375 0  L 13.640625 0  C 13.820312500000002 0  13.9921875 0.0396563119629878  14.15625 0.1189689358889634  C 14.4140625 0.23353161489314544  14.619140625 0.414188147168979  14.771484375 0.6609385327164574  C 14.923828125 0.9076889182639336  15 1.180876845120069  15 1.4805023132848638  L 15 18.519497686715138  C 15 18.819123154879932  14.923828125 19.092311081736064  14.771484375 19.339061467283543  C 14.619140625 19.58581185283102  14.4140625 19.76646838510685  14.15625 19.881031064111035  C 14.007812500000002 19.95153117426746  13.835937500000002 19.98678122934567  13.640625 19.98678122934567  C 13.265625 19.98678122934567  12.941406250000002 19.845781009032827  12.66796875 19.56378056840714  L 7.5 13.95902181097158  L 2.33203125 19.56378056840714  C 2.05078125 19.85459352280238  1.7265625 20  1.359375 20  C 1.1796875 20  1.0078125 19.960343688037014  0.84375 19.881031064111035  C 0.5859375 19.76646838510685  0.380859375 19.58581185283102  0.228515625 19.339061467283543  C 0.076171875 19.092311081736064  0 18.819123154879932  0 18.519497686715138  L 0 1.4805023132848638  C 0 1.180876845120069  0.076171875 0.9076889182639336  0.228515625 0.6609385327164574  C 0.380859375 0.414188147168979  0.5859375 0.23353161489314544  0.84375 0.1189689358889634  C 1.0078125 0.0396563119629878  1.1796875 0  1.359375 0  Z " fill-rule="evenodd" />
    </mask>
  </defs>
  <g transform="matrix(1 0 0 1 -325 -15 )">
    <path d="M 1.359375 0  L 13.640625 0  C 13.820312500000002 0  13.9921875 0.0396563119629878  14.15625 0.1189689358889634  C 14.4140625 0.23353161489314544  14.619140625 0.414188147168979  14.771484375 0.6609385327164574  C 14.923828125 0.9076889182639336  15 1.180876845120069  15 1.4805023132848638  L 15 18.519497686715138  C 15 18.819123154879932  14.923828125 19.092311081736064  14.771484375 19.339061467283543  C 14.619140625 19.58581185283102  14.4140625 19.76646838510685  14.15625 19.881031064111035  C 14.007812500000002 19.95153117426746  13.835937500000002 19.98678122934567  13.640625 19.98678122934567  C 13.265625 19.98678122934567  12.941406250000002 19.845781009032827  12.66796875 19.56378056840714  L 7.5 13.95902181097158  L 2.33203125 19.56378056840714  C 2.05078125 19.85459352280238  1.7265625 20  1.359375 20  C 1.1796875 20  1.0078125 19.960343688037014  0.84375 19.881031064111035  C 0.5859375 19.76646838510685  0.380859375 19.58581185283102  0.228515625 19.339061467283543  C 0.076171875 19.092311081736064  0 18.819123154879932  0 18.519497686715138  L 0 1.4805023132848638  C 0 1.180876845120069  0.076171875 0.9076889182639336  0.228515625 0.6609385327164574  C 0.380859375 0.414188147168979  0.5859375 0.23353161489314544  0.84375 0.1189689358889634  C 1.0078125 0.0396563119629878  1.1796875 0  1.359375 0  Z " fill-rule="nonzero" fill="#37406d" stroke="none" fill-opacity="0" transform="matrix(1 0 0 1 325 15 )" />
    <path d="M 1.359375 0  L 13.640625 0  C 13.820312500000002 0  13.9921875 0.0396563119629878  14.15625 0.1189689358889634  C 14.4140625 0.23353161489314544  14.619140625 0.414188147168979  14.771484375 0.6609385327164574  C 14.923828125 0.9076889182639336  15 1.180876845120069  15 1.4805023132848638  L 15 18.519497686715138  C 15 18.819123154879932  14.923828125 19.092311081736064  14.771484375 19.339061467283543  C 14.619140625 19.58581185283102  14.4140625 19.76646838510685  14.15625 19.881031064111035  C 14.007812500000002 19.95153117426746  13.835937500000002 19.98678122934567  13.640625 19.98678122934567  C 13.265625 19.98678122934567  12.941406250000002 19.845781009032827  12.66796875 19.56378056840714  L 7.5 13.95902181097158  L 2.33203125 19.56378056840714  C 2.05078125 19.85459352280238  1.7265625 20  1.359375 20  C 1.1796875 20  1.0078125 19.960343688037014  0.84375 19.881031064111035  C 0.5859375 19.76646838510685  0.380859375 19.58581185283102  0.228515625 19.339061467283543  C 0.076171875 19.092311081736064  0 18.819123154879932  0 18.519497686715138  L 0 1.4805023132848638  C 0 1.180876845120069  0.076171875 0.9076889182639336  0.228515625 0.6609385327164574  C 0.380859375 0.414188147168979  0.5859375 0.23353161489314544  0.84375 0.1189689358889634  C 1.0078125 0.0396563119629878  1.1796875 0  1.359375 0  Z " stroke-width="2" stroke="#37406d" fill="none" transform="matrix(1 0 0 1 325 15 )" mask="url(#clip19)" />
  </g>
</svg>