<?xml version="1.0" encoding="utf-8"?>
<svg version="1.1" xmlns:xlink="http://www.w3.org/1999/xlink" width="16px" height="20px" xmlns="http://www.w3.org/2000/svg">
  <g transform="matrix(1 0 0 1 -22 -10 )">
    <path d="M 10.207922800058038 12.997365395194443  C 10.207922800058038 11.88311928116219  9.219440137751556 10.979811060704865  8 10.979692358042874  C 6.780619877596792 10.979888584868595  5.792230852644948 11.883174088536306  5.792230852644948 12.997365375352853  C 5.792230852644948 13.510456191909192  6.006161478151413 14.004273956822868  6.390498140357296 14.37835051546391  L 6.390498140357296 15.622582228767792  C 6.390498140357296 16.4354240965825  7.11164590477775 17.09436262477499  8.00122675446619 17.09436262477499  C 8.890807604154615 17.09436262477499  9.611955368575089 16.4354240965825  9.611955368575089 15.622582228767792  L 9.611955368575089 14.376108656521023  C 9.99487430038521 14.002272672466757  10.207922800058038 13.509394760449435  10.207922800058038 12.997365395194443  Z M 8.98140357295287 12.996805166273464  C 8.98140357295287 13.26909845674685  8.846003427834418 13.52664209027952  8.613377233095543 13.696825396825398  L 8.38274739345162 13.864964817542143  L 8.38274739345162 15.622582228767804  C 8.38274739345162 15.815732771614854  8.211385548440822 15.972312223858612  8 15.972312223858612  C 7.788614451559193 15.972312223858612  7.617252606548382 15.815732771614854  7.617252606548382 15.622582228767792  L 7.617252606548382 13.864964817542143  L 7.386622766904456 13.696825396825398  C 7.153996572165581 13.52664209027952  7.018596427047131 13.26909845674685  7.018596427047131 12.996805166273464  C 7.018596427047131 12.501547364101507  7.457985773228682 12.100061589117512  8 12.100061589117512  C 8.542014226771316 12.100061589117512  8.98140357295287 12.501547364101507  8.98140357295287 12.996805166273464  Z M 15.066105725260655 8.09441989854361  L 13.765745991098104 8.09441989854361  C 13.765745991098104 8.09441989854361  13.765745991098104 5.29209621993127  13.765745991098104 5.29209621993127  C 13.765745991098104 2.382456632171102  11.184333582281514 0.023727704140074905  8 0.023727704140074905  C 4.815666417718484 0.023727704140074905  2.2342540089018956 2.382456632171102  2.2342540089018956 5.29209621993127  C 2.2342540089018956 5.29209621993127  2.2342540089018956 8.09441989854361  2.2342540089018956 8.09441989854361  L 0.933894274739343 8.09441989854361  C 0.4325311149758721 8.09441989854361  0.026095969757941644 8.465794240403813  0.026095969757941644 8.923907707412859  C 0.026095969757941644 8.923907707412859  0.026095969757941644 8.923907707412859  0 8.923907707412859  L 0 19.146784486990676  C 0.026095969757941644 19.60489795399972  0.4325311149758721 19.976272295859925  0.933894274739343 20  L 15.066105725260655 20  C 15.567468885024129 19.976272295859925  15.97390403024206 19.60489795399972  16 19.146784486990676  L 16 8.923907707412859  C 15.97390403024206 8.923907707412859  15.97390403024206 8.923907707412859  15.97390403024206 8.923907707412859  C 15.97390403024206 8.465794240403813  15.567468885024129 8.09441989854361  15.066105725260655 8.09441989854361  Z M 3.461008475092982 8.09441989854361  C 3.461008475092982 8.09441989854361  3.461008475092982 5.29209621993127  3.461008475092982 5.29209621993127  C 3.461008475092982 3.0015288848860284  5.493184201182633 1.14465717558501  8 1.14465717558501  C 10.506815798817367 1.14465717558501  12.538991524907019 3.0015288848860284  12.538991524907019 5.29209621993127  C 12.538991524907019 5.29209621993127  12.538991524907019 8.09441989854361  12.538991524907019 8.09441989854361  L 3.461008475092982 8.09441989854361  Z M 14.74714956405097 9.215349369988544  L 14.74714956405097 18.85534282441499  L 1.252850435949028 18.85534282441499  L 1.252850435949028 9.215349369988544  L 14.74714956405097 9.215349369988544  Z " fill-rule="nonzero" fill="#ffffff" stroke="none" transform="matrix(1 0 0 1 22 10 )" />
  </g>
</svg>