<?xml version="1.0" encoding="utf-8"?>
<svg version="1.1" xmlns:xlink="http://www.w3.org/1999/xlink" width="16px" height="20px" xmlns="http://www.w3.org/2000/svg">
  <g transform="matrix(1 0 0 1 -22 -10 )">
    <path d="M 14.4 18.109715796430933  L 14.4 2  L 1.6 2  L 1.6 18.109715796430933  L 6.8875 12.742894910773298  L 8 11.619299405155319  L 9.1125 12.742894910773298  L 14.4 18.109715796430933  Z M 1.45 0  L 14.55 0  C 14.741666666666669 0  14.925 0.0396563119629878  15.1 0.1189689358889634  C 15.375 0.23353161489314544  15.59375 0.414188147168979  15.75625 0.6609385327164574  C 15.91875 0.9076889182639336  16 1.180876845120069  16 1.4805023132848638  L 16 18.519497686715138  C 16 18.819123154879932  15.91875 19.092311081736064  15.75625 19.339061467283543  C 15.59375 19.58581185283102  15.375 19.76646838510685  15.1 19.881031064111035  C 14.941666666666668 19.95153117426746  14.758333333333335 19.98678122934567  14.55 19.98678122934567  C 14.15 19.98678122934567  13.804166666666669 19.845781009032827  13.5125 19.56378056840714  L 8 13.95902181097158  L 2.4875 19.56378056840714  C 2.1875 19.85459352280238  1.8416666666666668 20  1.45 20  C 1.2583333333333333 20  1.075 19.960343688037014  0.9 19.881031064111035  C 0.625 19.76646838510685  0.40625 19.58581185283102  0.24375 19.339061467283543  C 0.08125 19.092311081736064  0 18.819123154879932  0 18.519497686715138  L 0 1.4805023132848638  C 0 1.180876845120069  0.08125 0.9076889182639336  0.24375 0.6609385327164574  C 0.40625 0.414188147168979  0.625 0.23353161489314544  0.9 0.1189689358889634  C 1.075 0.0396563119629878  1.2583333333333333 0  1.45 0  Z " fill-rule="nonzero" fill="#333333" stroke="none" transform="matrix(1 0 0 1 22 10 )" />
  </g>
</svg>