<?xml version="1.0" encoding="utf-8"?>
<svg version="1.1" xmlns:xlink="http://www.w3.org/1999/xlink" width="16px" height="20px" xmlns="http://www.w3.org/2000/svg">
  <g transform="matrix(1 0 0 1 -22 -10 )">
    <path d="M 15.9628080775575 17.6463140209137  C 15.961100976309751 18.943949231348924  14.918132123392345 19.995400880822523  13.631179358337356 19.99690661620205  L 4.298468490839337 19.99690661620205  C 3.0115786305346446 19.99540043702357  1.9687208006732293 18.94388607244163  1.9672270210327774 17.6463140209137  L 1.9672270210327774 14.576486947133462  C 1.9672270210327774 14.360839697392107  2.1406044891157125 14.186023060872941  2.354476434621907 14.186023060872941  C 2.568348380128101 14.186023060872941  2.7417258482110363 14.360839697392107  2.7417258482110363 14.576486947133462  L 2.7417258482110363 17.6463140209137  C 2.7427926687379083 18.512770014164154  3.4391455493492997 19.21490316771031  4.298468490839337 19.215978843681008  L 13.631179358337356 19.215978843681008  C 14.490565229292779 19.214903649840622  15.187029157055962 18.512833171762082  15.188309250379247 17.6463140209137  L 15.188309250379247 14.128624869592642  C 15.188309250379247 13.912977619851286  15.361686718462176 13.738160983332115  15.575558663968373 13.738160983332115  C 15.78943060947457 13.738160983332115  15.9628080775575 13.912977619851286  15.9628080775575 14.128624869592642  L 15.9628080775575 17.6463140209137  Z M 15.961259030228618 13.011898154887547  C 15.961259030228618 13.227545404628898  15.7878815627598 13.402362041148068  15.574009618011148 13.402362041148068  C 15.360137673262498 13.402362041148068  15.18676020579368 13.227545404628898  15.18676020579368 13.011898154887547  L 15.18676020579368 4.060123098478783  C 15.1860757555154 3.836238226122106  15.09087447489529 3.6232392779743194  14.92497960313467 3.4744272690879963  L 12.148401317535406 0.9860009219496813  C 12.00608257140139 0.8576666918159392  11.821965556589221 0.786521175922632  11.63103610281286 0.786083412184293  L 4.6857178946925195 0.786083412184293  C 3.611907503055705 0.7878049068169535  2.742017396549563 1.6654397450129488  2.7409513465363817 2.7481644406434236  L 2.7409513465363817 7.506747822500426  C 2.7409513465363817 7.722395072241777  2.567573879067558 7.897211708760947  2.353701934318911 7.897211708760947  C 2.1398299895702624 7.897211708760947  1.9664525221014386 7.722395072241777  1.9664525221014408 7.506747822500426  L 1.9664525221014408 2.7481644406434236  C 1.9679455516777256 1.2343237240983096  3.184340569380525 0.00730768047917385  4.685717894692521 0.005155639663245726  L 11.631036102812864 0.005155639663245726  C 12.01148186903401 0.00508144071911909  12.378717643191546 0.14583108906749853  12.663055786372423 0.4006955564451564  L 15.439634071971687 2.889512367469733  C 15.771521242116032 3.1868865487485865  15.961371197032912 3.613224763761975  15.961259030228621 4.060904026251304  L 15.961259030228618 13.011898154887547  Z M 15.554259946220974 4.244031588907489  L 13.240831949439514 4.244031588907491  C 12.383219982192113 4.242955918028377  11.68825411759713 3.5422212938151754  11.687187302119929 2.677490477230269  L 11.687187302119925 0.4858166836499511  C 11.687187314867684 0.27016944299744994  11.86056477921689 0.09535282066288842  12.074436715709057 0.09535282066288842  C 12.288308661215245 0.09535282066288842  12.461686129298183 0.270169457182059  12.461686129298183 0.48581670692341206  L 12.461686129298183 2.677490477230269  C 12.462113061017334 3.111194309739038  12.810698560103942 3.4626733408004817  13.240831949439514 3.4631038163864414  L 15.554259946220968 3.4631038163864414  C 15.768131891727165 3.4631038163864414  15.9415093598101 3.637920452905612  15.9415093598101 3.8535677026469672  C 15.9415093598101 4.069214952388318  15.768131891727165 4.244031588907489  15.554259946220968 4.244031588907489  Z M 4.164480193737497 13.000184238299726  C 3.8097597308898545 13.002527021617292  3.5673415979830607 13.003307949389814  3.4004371007261467 13.003307949389814  C 3.0546233743910527 13.003307949389814  3.0333246566436505 12.999403310527207  3.0054426988652323 12.994717743892078  C 2.8194807536944717 12.962566859327378  2.683565996655557 12.799962341486397  2.6836384361726666 12.609720352039204  L 2.6836384361726666 9.470390706504595  C 2.6836384361726666 9.254743456763244  2.857015904255602 9.079926820244069  3.0708878497617964 9.079926820244069  C 3.2847597952679903 9.079926820244069  3.4581372633509257 9.254743456763244  3.4581372633509257 9.470390706504595  L 3.4581372633509257 12.221989712982504  C 3.660668706658041 12.221989712982504  3.91896406552199 12.221989712982504  4.159833200774429 12.219256465778683  L 4.162156697255962 12.219256465778678  C 4.162543945580453 12.219255294390315  4.1629311954296275 12.219254708695146  4.1633184454967305 12.219254708695146  C 4.377191353424513 12.219254708695146  4.5505696017043 12.394072131887413  4.5505696017043 12.609720352039204  C 4.5505696017043 12.824911256590479  4.377898590509902 12.999538668491134  4.164480193737497 13.000184238299726  Z M 13.272199151940237 11.041617384816945  C 13.272199151940237 12.196609560375574  12.560047480349825 13.002917485503556  11.540032524956061 13.002917485503556  C 10.46476842259927 13.002917639720888  9.593720022950599 12.124638857848575  9.593720022950599 11.041227075148022  C 9.593720022950599 9.957815292447464  10.46476842259927 9.07953651057515  11.539261076822386 9.07953651057515  C 11.927200990499761 9.07953651057515  12.30628309552787 9.196476220057379  12.62781612772792 9.41533529854186  C 12.7387997691518 9.487152278215971  12.805908704658327 9.61098021527838  12.805908704658327 9.743947818483814  C 12.805908704658327 9.95959506822517  12.63253123657539 10.13441170474434  12.418659291069199 10.13441170474434  C 12.338328592444876 10.13441170474434  12.259986073740652 10.109222697320375  12.194484033921686 10.062333958075547  C 12.001025965007306 9.93076009535522  11.772993580481385 9.860464195174924  11.53964010589963 9.860464195174924  C 10.892891342688902 9.860464195174924  10.368597879206106 10.389109704008899  10.368597879206106 11.041226987226747  C 10.368597879206106 11.693344270444594  10.892891342688902 12.22198977927857  11.53964010589963 12.22198977927857  C 12.082181703980837 12.221989712982504  12.35325629349323 11.850268093262489  12.453166642199223 11.43208127107747  L 11.952840399842065 11.43208127107747  C 11.738968454335879 11.43208127107747  11.56559098625294 11.257264634558295  11.56559098625294 11.041617384816945  C 11.56559098625294 10.825970135075593  11.738968454335879 10.651153498556418  11.952840399842065 10.651153498556418  L 12.8849497383511 10.651153498556418  C 13.098821683857297 10.651153498556418  13.272199151940232 10.825970135075593  13.272199151940237 11.041617384816945  Z M 8.83432087220881 11.041617384816945  C 8.833253204548546 12.12451972571416  7.962767415964062 13.002056522688651  6.8887798183370235 13.002917485503556  C 5.814287202653858 13.002917485503556  4.943238803005187 12.124638703631243  4.943238803005187 11.041226920930685  C 4.943238803005187 9.957815138230131  5.814287202653858 9.079536356357814  6.888779856876974 9.079536356357814  C 7.963272511100095 9.079536356357814  8.834320910748762 9.957815138230131  8.834320910748762 11.041226920930685  Z M 8.059822045030547 11.041617384816945  C 8.05939484189949 10.389678607139565  7.535351545544415 9.861285342015922  6.8887798183370235 9.86085459276512  C 6.242031055126292 9.86085459276512  5.717737591643496 10.389500101599092  5.717737591643496 11.04161738481694  C 5.717737591643496 11.693734668034793  6.242031055126292 12.222380176868768  6.8887798183370235 12.222380176868768  C 7.5355285815477515 12.222380176868768  8.059822045030547 11.693734668034793  8.059822045030547 11.04161738481694  Z M 1.9517370444892124 16.834149137491814  L 1.9505752962484457 16.834149137491814  L 1.355372947561952 16.834149137491814  C 0.6068211382902756 16.834149137491814  0 16.222290909674708  0 15.467525535579977  C 0 14.712760161485242  0.6068211382902756 14.100901933668144  1.355372947561952 14.100901933668144  L 3.114259784083777 14.100901933668144  C 3.3281317295899715 14.100901933668144  3.5015091976729087 14.275718570187315  3.5015091976729087 14.491365819928665  C 3.5015091976729087 14.70701306967002  3.3281317295899715 14.88182970618919  3.114259784083777 14.88182970618919  L 1.355372947561952 14.881829706189196  C 1.0345650293026618 14.881829706189196  0.774498827178259 15.14405466096795  0.774498827178259 15.467525535579982  C 0.774498827178259 15.790996410192006  1.0345650293026618 16.053221364970764  1.355372947561952 16.053221364970764  L 1.9517370444892124 16.05322136497076  C 2.1656089899954067 16.05322136497076  2.3389864580783417 16.228038001489935  2.3389864580783417 16.443685251231287  C 2.3389864580783417 16.65933250097264  2.1656089899954067 16.834149137491814  1.9517370444892124 16.834149137491814  Z M 0.7783713213141513 15.355071936336948  C 0.7783722817021418 15.570262556239225  0.6057017704273473 15.744890250739939  0.3922836559657884 15.74553582259747  C 0.1784117104595942 15.74553582259747  0.0050342423766589275 15.570719186078303  0.0050342423766589275 15.355071936336948  L 0.02168596716099044 8.482907538151734  C 0.022967644929587427 7.729057239735968  0.6294135492386157 7.118625611856628  1.3770589147229448 7.118626719557466  L 15.574784165141196 7.1158934723536404  C 15.78865611064739 7.1158934723536404  15.962033578730324 7.290710108872811  15.962033578730324 7.506357358614164  L 15.962033578730324 14.491365819928665  C 15.962033578730324 14.70701306967002  15.78865611064739 14.88182970618919  15.574784165141196 14.881829706189196  L 1.763533829484896 14.88182970618919  C 1.5496618839787015 14.88182970618919  1.3762844158957663 14.70701306967002  1.3762844158957663 14.491365819928665  C 1.3762844158957663 14.275718570187315  1.5496618839787015 14.100901933668144  1.763533829484896 14.100901933668144  C 1.763533829484896 14.100901933668144  1.763533829484896 14.100901933668144  1.763533829484896 14  L 15.18676025272489 14  L 15.18676025272489 8  L 1.3758971664821782 8  C 1.055089248222888 7.897211708760947  0.7950230460984828 8.159436663539704  0.7950230460984828 8.482907538151734  L 0.7783713213141513 15.355071936336948  Z " fill-rule="nonzero" fill="#ffffff" stroke="none" transform="matrix(1 0 0 1 22 10 )" />
  </g>
</svg>