<?xml version="1.0" encoding="utf-8"?>
<svg version="1.1" xmlns:xlink="http://www.w3.org/1999/xlink" width="20px" height="20px" xmlns="http://www.w3.org/2000/svg">
  <g transform="matrix(1 0 0 1 -20 -10 )">
    <path d="M 2.9936889628040837 2.9936889628040837  C 4.786811512132832 1.2005664134753342  7.26441535947946 0.09140503959758015  9.999999999999998 0.09140503959758112  C 12.735584640520539 0.09140503959758112  15.213188487867164 1.200566413475335  17.006311037195914 2.993688962804084  C 18.799433586524664 4.786811512132834  19.908594960402418 7.26441535947946  19.908594960402418 10  C 19.908594960402418 12.735584640520539  18.799433586524664 15.213188487867166  17.006311037195914 17.006311037195914  C 15.157015250643813 18.855606823748015  12.652625091102719 19.908594960402418  9.999999999999998 19.908594960402418  C 7.347895031464163 19.908594960402418  4.842724688072744 18.855346762464574  2.9936889628040837 17.006311037195914  C 1.2005664134753342 15.213188487867164  0.09140503959758015 12.735584640520539  0.09140503959758015 9.999999999999998  C 0.09140503959758015 7.26441535947946  1.2005664134753344 4.786811512132833  2.9936889628040837 2.9936889628040837  Z M 7.146867659363929 3.6623065225320337  C 7.8771197432674995 2.9320544386284633  8.8861575230203 2.480067928007234  9.999999999999998 2.480067928007234  C 11.113842476979698 2.480067928007234  12.122880256732497 2.9320544386284624  12.85313234063607 3.6623065225320337  C 13.583384424539641 4.392558606435606  14.03537093516087 5.401336324904963  14.03537093516087 6.515178801884662  C 14.03537093516087 7.6290212788643625  13.583384424539641 8.638059058617163  12.85313234063607 9.368311142520733  C 12.122880256732497 10.098563226424304  11.113842476979698 10.550549737045532  9.999999999999998 10.550549737045532  C 8.8861575230203 10.550549737045532  7.8771197432674995 10.098563226424304  7.146867659363929 9.368311142520733  C 6.416615575460357 8.638059058617163  5.964629064839128 7.6290212788643625  5.964629064839128 6.515178801884662  C 5.964629064839128 5.401336324904963  6.416615575460357 4.392558606435606  7.146867659363929 3.6623065225320337  Z M 12.9342714610698 6.515178801884662  C 12.9342714610698 5.704827842681127  12.605553998799817 4.970934900809375  12.075028980579274 4.440409882588831  C 11.54450396235873 3.9098848643682875  10.810350959203534 3.581167402098304  9.999999999999998 3.581167402098304  C 9.18964904079646 3.581167402098304  8.45549603764127 3.9098848643682875  7.924971019420725 4.440409882588831  C 7.3944460012001825 4.970934900809375  7.0657285389301965 5.704827842681127  7.0657285389301965 6.515178801884662  C 7.0657285389301965 7.3255297610882  7.394446001200182 8.059682764243393  7.924971019420725 8.590207782463937  C 8.455496037641268 9.12073280068448  9.18964904079646 9.449450262954466  9.999999999999998 9.449450262954466  C 10.810350959203534 9.449450262954466  11.544503962358728 9.120732800684483  12.075028980579274 8.590207782463937  C 12.605553998799817 8.059682764243393  12.9342714610698 7.3255297610882  12.9342714610698 6.515178801884662  Z M 3.77179232286088 16.228207677139114  C 3.830826234202087 16.287241588480324  3.8906403293936185 16.345235254687765  3.9512346084354775 16.40244873704488  L 3.9512346084354775 15.561670607678694  C 3.9512346084354775 14.435345189093807  4.484620300773877 13.416425080570233  5.343082597414081 12.682792199981922  C 6.178659501111437 11.968923976935162  7.325789822371641 11.525779549950943  8.581105637543487 11.525779549950943  L 11.418894362456516 11.525779549950943  C 12.674470238911798 11.525779549950943  13.821600560172005 11.969444099502045  14.656657341302479 12.682792199981922  C 15.515639760509565 13.416685141853677  16.048765391564523 14.435345189093807  16.048765391564523 15.561670607678694  L 16.048765391564523 16.40244873704488  C 16.10935967060638 16.345235254687765  16.16917376579791 16.287241588480327  16.228207677139117 16.228207677139114  C 17.82160316078484 14.634812193493396  18.807495486311346 12.432353184027814  18.807495486311346 9.999999999999998  C 18.807495486311346 7.567646815972182  17.82160316078484 5.365187806506601  16.228207677139114 3.77179232286088  C 14.634812193493396 2.1783968392151585  12.432353184027814 1.1925045136886483  9.999999999999998 1.1925045136886483  C 7.567646815972182 1.1925045136886483  5.365187806506601 2.1783968392151585  3.77179232286088 3.77179232286088  C 2.1783968392151585 5.365187806506601  1.1925045136886483 7.567646815972182  1.1925045136886483 9.999999999999998  C 1.1925045136886483 12.432353184027814  2.1783968392151585 14.634812193493396  3.77179232286088 16.228207677139114  Z M 9.999999999999998 18.807495486311346  C 11.834212232112495 18.807495486311346  13.537613638653944 18.24706342049504  14.94766591747345 17.287957407162995  L 14.94766591747345 15.561670607678694  C 14.94766591747345 14.77082424473327  14.562775217980114 14.046553570348852  13.943049179539155 13.517068797262073  C 13.30043774815535 12.968079427917186  12.40686717825055 12.626879024042012  11.41889436245651 12.626879024042012  L 8.581105637543484 12.626879024042012  C 7.593132821749443 12.626879024042012  6.699562251844647 12.967819366633744  6.056690759177398 13.517068797262073  C 5.437224782019881 14.04629350906541  5.052334082526545 14.77082424473327  5.052334082526545 15.561670607678694  L 5.052334082526545 17.287957407162995  C 6.4623863613460495 18.24706342049504  8.165787767887501 18.807495486311346  9.999999999999998 18.807495486311346  Z " fill-rule="nonzero" fill="#ffffff" stroke="none" transform="matrix(1 0 0 1 20 10 )" />
  </g>
</svg>