<?xml version="1.0" encoding="utf-8"?>
<svg version="1.1" xmlns:xlink="http://www.w3.org/1999/xlink" width="20px" height="17px" xmlns="http://www.w3.org/2000/svg">
  <g transform="matrix(1 0 0 1 -20 -12 )">
    <path d="M 18.98520084566596 16.555120101137803  C 18.97463002114165 16.31441213653603  18.799154334038054 16.11883691529709  18.562367864693446 16.11883691529709  C 18.41014799154334 16.11883691529709  18.25792811839323 16.11883691529709  18.10570824524313 16.11883691529709  C 17.691331923890065 16.11883691529709  17.276955602536994 16.11883691529709  16.862579281183933 16.11883691529709  C 16.247357293868923 16.11883691529709  15.630021141649053 16.11883691529709  15.014799154334039 16.11883691529709  C 14.26638477801269 16.11883691529709  13.517970401691334 16.11883691529709  12.76744186046512 16.11883691529709  C 11.947145877378437 16.11883691529709  11.126849894291759 16.11883691529709  10.306553911205075 16.11883691529709  C 9.477801268498947 16.11883691529709  8.651162790697676 16.11883691529709  7.822410147991546 16.11883691529709  C 7.050739957716704 16.11883691529709  6.279069767441863 16.11883691529709  5.505285412262158 16.11883691529709  C 4.849894291754759 16.11883691529709  4.194503171247359 16.11883691529709  3.53911205073996 16.11883691529709  C 3.069767441860466 16.11883691529709  2.600422832980975 16.11883691529709  2.1310782241014814 16.11883691529709  C 1.9090909090909105 16.11883691529709  1.6849894291754766 16.112389380530974  1.4630021141649059 16.11883691529709  C 1.452431289640593 16.11883691529709  1.4439746300211431 16.11883691529709  1.43340380549683 16.11883691529709  C 1.5750528541226239 16.26283185840708  1.7145877378435548 16.40467762326169  1.856236786469346 16.548672566371682  C 1.856236786469346 16.256384323640958  1.856236786469346 15.96409608091024  1.856236786469346 15.673957016434892  C 1.856236786469346 14.973324905183311  1.856236786469346 14.27269279393173  1.856236786469346 13.572060682680153  C 1.856236786469346 12.723135271807838  1.856236786469346 11.876359039190898  1.856236786469346 11.027433628318585  C 1.856236786469346 10.294563843236409  1.856236786469346 9.559544879898864  1.856236786469346 8.82667509481669  C 1.856236786469346 8.469911504424779  1.873150105708248 8.110998735777498  1.856236786469346 7.754235145385589  C 1.856236786469346 7.749936788874844  1.856236786469346 7.743489254108725  1.856236786469346 7.739190897597979  C 1.8372093023255833 7.812262958280659  1.8181818181818206 7.883185840707966  1.7991543340380578 7.956257901390647  C 2.2346723044397496 7.373830594184579  2.6701902748414392 6.791403286978511  3.105708245243131 6.2089759797724415  C 3.7991543340380556 5.2826801517067015  4.492600422832983 4.356384323640961  5.183932346723045 3.430088495575223  C 5.3403805496828785 3.219469026548674  5.498942917547569 3.0088495575221255  5.655391120507401 2.798230088495577  C 5.6046511627907005 2.849810366624528  5.553911205073997 2.9013906447534783  5.503171247357298 2.952970922882429  C 6.0338266384778025 2.7101137800252855  6.564482029598311 2.467256637168143  7.097251585623682 2.224399494311  C 7.94080338266385 1.8396965865992425  8.782241014799157 1.454993678887485  9.625792811839327 1.0702907711757284  C 9.820295983086686 0.9821744627054377  10.014799154334044 0.8919089759797737  10.209302325581397 0.803792667509483  C 10.067653276955603 0.803792667509483  9.923890063424949 0.803792667509483  9.78224101479916 0.803792667509483  C 10.312896405919664 1.0466498103666262  10.843551797040172 1.2895069532237686  11.376321353065546 1.5323640960809117  C 12.219873150105713 1.9170670037926691  13.061310782241017 2.3017699115044263  13.90486257928119 2.686472819216183  C 14.099365750528548 2.774589127686474  14.293868921775905 2.864854614412138  14.48837209302326 2.952970922882429  C 14.43763213530656 2.901390644753478  14.38689217758986 2.8498103666245274  14.336152219873156 2.798230088495577  C 14.771670190274849 3.380657395701645  15.207188160676537 3.9630847029077136  15.642706131078226 4.545512010113782  C 16.336152219873156 5.471807838179522  17.02959830866808 6.39810366624526  17.720930232558146 7.324399494311  C 17.877378435517976 7.535018963337549  18.035940803382665 7.745638432364098  18.192389006342495 7.9562579013906465  C 18.173361522198736 7.883185840707966  18.154334038054973 7.812262958280659  18.135306553911207 7.739190897597978  C 18.135306553911207 8.031479140328699  18.135306553911207 8.323767383059419  18.135306553911207 8.613906447534768  C 18.135306553911207 9.31453855878635  18.135306553911207 10.015170670037927  18.135306553911207 10.715802781289508  C 18.135306553911207 11.564728192161821  18.135306553911207 12.411504424778762  18.135306553911207 13.260429835651076  C 18.135306553911207 13.99329962073325  18.135306553911207 14.728318584070795  18.135306553911207 15.461188369152971  C 18.135306553911207 15.817951959544882  18.124735729386895 16.17686472819216  18.135306553911207 16.53362831858407  C 18.135306553911207 16.537926675094816  18.135306553911207 16.544374209860933  18.135306553911207 16.548672566371682  C 18.135306553911207 16.77433628318584  18.32980972515856 16.989254108723134  18.558139534883725 16.97850821744627  C 18.78646934460888 16.967762326169407  18.98097251585624 16.789380530973453  18.98097251585624 16.548672566371682  C 18.98097251585624 16.155372945638433  18.98097251585624 15.764222503160555  18.98097251585624 15.370922882427308  C 18.98097251585624 14.481163084702908  18.98097251585624 13.589254108723136  18.98097251585624 12.699494310998737  C 18.98097251585624 11.732364096080913  18.98097251585624 10.763084702907713  18.98097251585624 9.795954487989885  C 18.98097251585624 9.17054361567636  18.98097251585624 8.545132743362833  18.98097251585624 7.919721871049306  C 18.98097251585624 7.775726927939319  18.993657505285416 7.627433628318585  18.90909090909091 7.502781289506955  C 18.799154334038054 7.3415929203539845  18.674418604651166 7.1890012642225045  18.558139534883725 7.034260429835652  C 18.0338266384778 6.333628318584072  17.51162790697675 5.632996207332492  16.987315010570825 4.934513274336285  C 16.467230443974632 4.240328697850823  15.9492600422833 3.546144121365363  15.429175475687106 2.8519595448799  C 15.312896405919664 2.695069532237675  15.194503171247359 2.5381795195954506  15.078224101479915 2.3834386852085983  C 15.021141649048626 2.308217446270545  14.964059196617342 2.237294563843238  14.879492600422836 2.196460176991152  C 14.803382663847781 2.1577749683944396  14.723044397463003 2.1255372945638444  14.644820295983088 2.089001264222505  C 13.881606765327694 1.740834386852088  13.120507399577166 1.3926675094816703  12.357293868921776 1.0445006321112533  C 11.674418604651164 0.7328697850821762  10.991543340380552 0.42123893805309903  10.308668076109935 0.10960809102402194  C 10.171247357293867 0.04728192161820639  10.042283298097253 -0.017193426042981977  9.881606765327698 0.01934260429835816  C 9.813953488372093 0.03438685208596884  9.727272727272725 0.08596713021491935  9.663847780126847 0.11605562579014071  C 9.389006342494714 0.2407079646017715  9.116279069767442 0.3653603034134026  8.841437632135307 0.4921618204804065  C 7.987315010570826 0.8833122629582824  7.133192389006345 1.272313527180786  6.279069767441861 1.663463969658662  C 5.959830866807611 1.8096080910240224  5.640591966173362 1.9557522123893825  5.321353065539113 2.101896333754743  C 5.247357293868923 2.13628318584071  5.173361522198733 2.1663716814159306  5.101479915433406 2.202907711757271  C 5.019027484143765 2.2437420986093572  4.964059196617337 2.3189633375474106  4.90909090909091 2.3920353982300906  C 4.551797040169135 2.8670037926675116  4.19661733615222 3.344121365360305  3.8414376321353076 3.821238938053099  C 3.2621564482029615 4.594943109987359  2.682875264270615 5.36864728192162  2.1035940803382664 6.144500632111254  C 1.8731501057082458 6.451833122629584  1.6448202959830882 6.759165613147917  1.4143763213530676 7.066498103666246  C 1.3023255813953494 7.214791403286979  1.1818181818181837 7.360935524652341  1.0782241014799154 7.515676359039192  C 0.9957716701902753 7.640328697850823  1.0105708245243143 7.801517067003793  1.0105708245243143 7.9433628318584075  C 1.0105708245243143 8.19266750948167  1.0105708245243143 8.439823008849558  1.0105708245243143 8.68912768647282  C 1.0105708245243143 9.546649810366626  1.0105708245243143 10.406321112515803  1.0105708245243143 11.26384323640961  C 1.0105708245243143 12.243868520859673  1.0105708245243143 13.223893805309736  1.0105708245243143 14.2039190897598  C 1.0105708245243143 14.887357774968395  1.0105708245243143 15.572945638432367  1.0105708245243143 16.25638432364096  C 1.0105708245243143 16.355246523388118  1.0105708245243143 16.456257901390646  1.0105708245243143 16.555120101137803  C 1.0105708245243143 16.787231352718077  1.2050739957716703 16.984955752212393  1.43340380549683 16.984955752212393  C 1.5856236786469344 16.984955752212393  1.7378435517970412 16.984955752212393  1.890063424947148 16.984955752212393  C 2.3044397463002113 16.984955752212393  2.7188160676532798 16.984955752212393  3.1331923890063433 16.984955752212393  C 3.7484143763213544 16.984955752212393  4.365750528541226 16.984955752212393  4.980972515856237 16.984955752212393  C 5.72938689217759 16.984955752212393  6.477801268498945 16.984955752212393  7.22832980972516 16.984955752212393  C 8.04862579281184 16.984955752212393  8.86892177589852 16.984955752212393  9.689217758985205 16.984955752212393  C 10.517970401691333 16.984955752212393  11.344608879492599 16.984955752212393  12.173361522198736 16.984955752212393  C 12.945031712473575 16.984955752212393  13.716701902748419 16.984955752212393  14.490486257928122 16.984955752212393  C 15.14587737843552 16.984955752212393  15.80126849894292 16.984955752212393  16.45665961945032 16.984955752212393  C 16.926004228329813 16.984955752212393  17.395348837209305 16.984955752212393  17.864693446088793 16.984955752212393  C 18.086680761099366 16.984955752212393  18.30866807610994 16.989254108723138  18.53276955602537 16.984955752212393  C 18.543340380549687 16.984955752212393  18.551797040169134 16.984955752212393  18.562367864693446 16.984955752212393  C 18.78435517970402 16.984955752212393  18.995771670190276 16.787231352718077  18.98520084566596 16.555120101137803  Z M 14.718816067653282 10.176359039190897  C 14.710359408033826 9.944247787610621  14.534883720930232 9.746523388116309  14.295983086680762 9.746523388116309  C 14.010570824524313 9.746523388116309  13.72727272727273 9.746523388116309  13.441860465116282 9.746523388116309  C 12.758985200845665 9.746523388116309  12.073995771670187 9.746523388116309  11.391120507399581 9.746523388116309  C 10.56448202959831 9.746523388116309  9.737843551797043 9.746523388116309  8.90909090909091 9.746523388116309  C 8.19450317124736 9.746523388116309  7.477801268498943 9.746523388116309  6.763213530655393 9.746523388116309  C 6.414376321353068 9.746523388116309  6.065539112050741 9.737926675094817  5.716701902748417 9.746523388116309  C 5.7124735729386895 9.746523388116309  5.706131078224104 9.746523388116309  5.701902748414377 9.746523388116309  C 5.47357293868922 9.746523388116309  5.279069767441862 9.944247787610621  5.279069767441862 10.176359039190897  C 5.279069767441862 10.896333754740835  5.279069767441862 11.61630847029077  5.279069767441862 12.336283185840708  C 5.279069767441862 13.47534766118837  5.279069767441862 14.616561314791403  5.279069767441862 15.755625790139066  C 5.279069767441862 16.019974715549935  5.279069767441862 16.282174462705438  5.279069767441862 16.54652338811631  C 5.279069767441862 16.778634639696584  5.47357293868922 16.976359039190896  5.701902748414377 16.976359039190896  C 5.987315010570825 16.976359039190896  6.270613107822412 16.976359039190896  6.556025369978862 16.976359039190896  C 7.2389006342494735 16.976359039190896  7.923890063424949 16.976359039190896  8.606765327695564 16.976359039190896  C 9.43340380549683 16.976359039190896  10.260042283298102 16.976359039190896  11.088794926004228 16.976359039190896  C 11.803382663847783 16.976359039190896  12.520084566596202 16.976359039190896  13.234672304439748 16.976359039190896  C 13.583509513742072 16.976359039190896  13.932346723044397 16.98495575221239  14.281183932346725 16.976359039190896  C 14.285412262156454 16.976359039190896  14.291754756871036 16.976359039190896  14.295983086680765 16.976359039190896  C 14.52431289640592 16.976359039190896  14.718816067653282 16.778634639696584  14.718816067653282 16.54652338811631  C 14.718816067653282 15.826548672566371  14.718816067653282 15.106573957016435  14.718816067653282 14.386599241466497  C 14.718816067653282 13.247534766118838  14.718816067653282 12.106321112515802  14.718816067653282 10.96725663716814  C 14.718816067653282 10.70290771175727  14.718816067653282 10.440707964601769  14.718816067653282 10.176359039190897  C 14.718816067653277 9.950695322376738  14.52431289640592 9.735777496839445  14.295983086680762 9.746523388116309  C 14.067653276955605 9.757269279393173  13.873150105708245 9.935651074589128  13.873150105708245 10.176359039190897  C 13.873150105708245 10.896333754740835  13.873150105708245 11.61630847029077  13.873150105708245 12.336283185840708  C 13.873150105708245 13.47534766118837  13.873150105708245 14.616561314791403  13.873150105708245 15.755625790139066  C 13.873150105708245 16.019974715549935  13.873150105708245 16.282174462705438  13.873150105708245 16.54652338811631  C 14.014799154334039 16.402528445006322  14.154334038054968 16.260682680151707  14.295983086680762 16.11668773704172  C 14.010570824524313 16.11668773704172  13.72727272727273 16.11668773704172  13.441860465116282 16.11668773704172  C 12.758985200845665 16.11668773704172  12.073995771670187 16.11668773704172  11.391120507399581 16.11668773704172  C 10.56448202959831 16.11668773704172  9.737843551797043 16.11668773704172  8.90909090909091 16.11668773704172  C 8.19450317124736 16.11668773704172  7.477801268498943 16.11668773704172  6.763213530655393 16.11668773704172  C 6.416490486257931 16.11668773704172  6.063424947145879 16.10164348925411  5.716701902748417 16.11668773704172  C 5.7124735729386895 16.11668773704172  5.706131078224104 16.11668773704172  5.701902748414377 16.11668773704172  C 5.8435517970401705 16.260682680151707  5.983086680761102 16.402528445006322  6.124735729386893 16.54652338811631  C 6.124735729386893 15.826548672566371  6.124735729386893 15.106573957016435  6.124735729386893 14.386599241466497  C 6.124735729386893 13.247534766118838  6.124735729386893 12.106321112515802  6.124735729386893 10.96725663716814  C 6.124735729386893 10.70290771175727  6.124735729386893 10.440707964601769  6.124735729386893 10.176359039190897  C 5.983086680761102 10.320353982300885  5.8435517970401705 10.462199747155498  5.701902748414377 10.606194690265486  C 5.987315010570825 10.606194690265486  6.270613107822412 10.606194690265486  6.556025369978862 10.606194690265486  C 7.2389006342494735 10.606194690265486  7.923890063424949 10.606194690265486  8.606765327695564 10.606194690265486  C 9.43340380549683 10.606194690265486  10.260042283298102 10.606194690265486  11.088794926004228 10.606194690265486  C 11.803382663847783 10.606194690265486  12.520084566596202 10.606194690265486  13.234672304439748 10.606194690265486  C 13.583509513742072 10.606194690265486  13.932346723044397 10.61479140328698  14.281183932346725 10.606194690265486  C 14.285412262156454 10.606194690265486  14.291754756871036 10.606194690265486  14.295983086680765 10.606194690265486  C 14.517970401691338 10.606194690265486  14.729386892177596 10.408470290771175  14.718816067653282 10.176359039190897  Z M 9.577167019027485 10.176359039190897  C 9.577167019027485 10.896333754740835  9.577167019027485 11.61630847029077  9.577167019027485 12.336283185840708  C 9.577167019027485 13.47534766118837  9.577167019027485 14.616561314791403  9.577167019027485 15.755625790139066  C 9.577167019027485 16.019974715549935  9.577167019027485 16.282174462705438  9.577167019027485 16.54652338811631  C 9.577167019027485 16.772187104930467  9.771670190274843 16.987104930467762  10 16.976359039190896  C 10.228329809725158 16.96561314791403  10.422832980972515 16.787231352718077  10.422832980972515 16.54652338811631  C 10.422832980972515 15.826548672566371  10.422832980972515 15.106573957016435  10.422832980972515 14.386599241466497  C 10.422832980972515 13.247534766118838  10.422832980972515 12.106321112515802  10.422832980972515 10.96725663716814  C 10.422832980972515 10.70290771175727  10.422832980972515 10.440707964601769  10.422832980972515 10.176359039190897  C 10.422832980972515 9.950695322376738  10.228329809725158 9.735777496839445  10 9.746523388116309  C 9.771670190274843 9.757269279393173  9.577167019027485 9.935651074589128  9.577167019027485 10.176359039190897  Z M 11.503171247357297 5.261188369152971  C 11.274841437632135 5.271934260429836  11.086680761099368 5.448166877370418  11.082452431289642 5.691024020227561  C 11.082452431289642 5.731858407079646  11.080338266384777 5.770543615676359  11.078224101479917 5.811378002528445  C 11.076109936575055 5.826422250316057  11.076109936575055 5.841466498103667  11.07399577167019 5.856510745891278  C 11.069767441860463 5.916687737041721  11.088794926004228 5.7705436156763605  11.078224101479917 5.828571428571429  C 11.063424947145876 5.9037926675094825  11.048625792811837 5.979013906447536  11.02325581395349 6.052085967130215  C 11.01902748414376 6.0671302149178254  11.002114164904864 6.142351453855879  10.989429175475687 6.1466498103666245  C 10.989429175475687 6.1466498103666245  11.035940803382665 6.047787610619468  10.997885835095133 6.123008849557522  C 10.991543340380552 6.13590391908976  10.985200845665961 6.148798988621997  10.978858350951374 6.161694058154235  C 10.94503171247357 6.228318584070797  10.906976744186048 6.292793931731985  10.864693446088797 6.3551201011378  C 10.807610993657502 6.443236409608091  10.904862579281183 6.312136536030342  10.856236786469344 6.368015170670039  C 10.830866807610992 6.395954487989886  10.807610993657505 6.423893805309735  10.782241014799155 6.451833122629583  C 10.758985200845668 6.4754740834386855  10.737843551797042 6.499115044247787  10.71247357293869 6.520606826801517  C 10.701902748414378 6.529203539823008  10.691331923890065 6.539949431099872  10.680761099365752 6.5485461441213655  C 10.670190274841438 6.557142857142857  10.659619450317127 6.565739570164348  10.649048625792812 6.576485461441214  C 10.62367864693446 6.59582806573957  10.634249471458775 6.589380530973452  10.680761099365752 6.55284450063211  C 10.680761099365752 6.576485461441214  10.53911205073996 6.64740834386852  10.517970401691333 6.660303413400758  C 10.49048625792812 6.677496839443742  10.46088794926004 6.690391908975979  10.431289640591967 6.705436156763591  C 10.416490486257924 6.71188369152971  10.3615221987315 6.739823008849559  10.418604651162791 6.71188369152971  C 10.479915433403802 6.681795195954488  10.405919661733611 6.716182048040455  10.391120507399577 6.720480404551201  C 10.329809725158565 6.744121365360304  10.264270613107822 6.761314791403286  10.200845665961944 6.776359039190898  C 10.18181818181818 6.780657395701643  10.16279069767442 6.782806573957017  10.143763213530654 6.787104930467763  C 10.080338266384777 6.802149178255373  10.167019027484145 6.789254108723136  10.171247357293867 6.784955752212389  C 10.160676532769555 6.797850821744627  10.073995771670191 6.79355246523388  10.054968287526425 6.79355246523388  C 9.980972515856234 6.795701643489254  9.909090909090905 6.7914032869785075  9.835095137420716 6.784955752212389  C 9.786469344608877 6.782806573957016  9.875264270613105 6.791403286978508  9.875264270613105 6.791403286978508  C 9.860465116279066 6.784955752212389  9.835095137420716 6.784955752212389  9.818181818181815 6.780657395701643  C 9.775898520084564 6.772060682680152  9.735729386892178 6.761314791403287  9.693446088794925 6.750568900126423  C 9.661733615221987 6.741972187104931  9.630021141649049 6.731226295828066  9.600422832980971 6.720480404551202  C 9.591966173361524 6.718331226295829  9.54968287526427 6.703286978508218  9.547568710359407 6.7011378002528454  C 9.547568710359407 6.696839443742101  9.625792811839322 6.73982300884956  9.58350951374207 6.716182048040456  C 9.517970401691327 6.679646017699117  9.45243128964059 6.649557522123895  9.389006342494712 6.608723135271809  C 9.382663847780126 6.6044247787610635  9.308668076109935 6.563590391908977  9.308668076109935 6.552844500632112  C 9.308668076109935 6.557142857142858  9.376321353065538 6.610872313527182  9.329809725158562 6.567888748419723  C 9.317124735729385 6.5549936788874845  9.30232558139535 6.544247787610619  9.28752642706131 6.531352718078383  C 9.232558139534882 6.4819216182048045  9.183932346723044 6.426042983565108  9.135306553911203 6.370164348925411  C 9.086680761099364 6.314285714285715  9.183932346723044 6.4453855878634645  9.126849894291755 6.357269279393173  C 9.109936575052854 6.3293299620733245  9.09090909090909 6.303539823008849  9.073995771670191 6.275600505689001  C 9.057082452431288 6.247661188369152  9.040169133192387 6.219721871049304  9.02536997885835 6.1896333754740835  C 9.0169133192389 6.172439949431099  9.008456659619448 6.155246523388116  9.000000000000002 6.138053097345134  C 8.95983086680761 6.058533501896334  8.991543340380549 6.1466498103666245  9.004228329809724 6.148798988621998  C 8.980972515856235 6.142351453855879  8.949260042283298 5.983312262958281  8.94291754756871 5.957522123893806  C 8.93446088794926 5.920986093552466  8.92600422832981 5.882300884955754  8.919661733615222 5.84361567635904  C 8.913319238900632 5.8070796460177005  8.928118393234671 5.787737041719343  8.921775898520085 5.871554993678888  C 8.923890063424947 5.852212389380533  8.91754756871036 5.8307206068268025  8.915433403805498 5.81352718078382  C 8.909090909090908 5.738305941845766  8.909090909090908 5.663084702907713  8.915433403805498 5.590012642225034  C 8.915433403805498 5.574968394437423  8.91754756871036 5.559924146649812  8.919661733615222 5.544879898862201  C 8.92600422832981 5.467509481668775  8.919661733615222 5.562073324905185  8.915433403805498 5.570670037926677  C 8.930232558139535 5.534134007585336  8.932346723044397 5.480404551201013  8.940803382663848 5.4417193426043  C 8.955602536997883 5.377243994943111  8.9830866807611 5.314917825537297  9.000000000000002 5.250442477876108  C 9.014799154334037 5.19456384323641  8.964059196617336 5.323514538558787  8.989429175475689 5.274083438685211  C 8.997885835095135 5.256890012642226  9.004228329809724 5.239696586599243  9.012684989429175 5.22250316055626  C 9.029598308668076 5.188116308470293  9.046511627906979 5.1558786346396985  9.06553911205074 5.123640960809104  C 9.082452431289642 5.095701643489256  9.099365750528543 5.067762326169407  9.118393234672304 5.0398230088495595  C 9.116279069767442 5.041972187104934  9.147991543340382 4.994690265486728  9.150105708245242 4.994690265486728  C 9.150105708245242 4.994690265486728  9.082452431289642 5.0763590391909  9.135306553911205 5.0161820480404575  C 9.183932346723045 4.96030341340076  9.232558139534884 4.904424778761064  9.287526427061312 4.854993678887486  C 9.300211416490487 4.844247787610621  9.382663847780128 4.775474083438687  9.329809725158562 4.816308470290773  C 9.281183932346723 4.854993678887486  9.35940803382664 4.794816687737043  9.376321353065538 4.7840707964601785  C 9.437632135306554 4.743236409608093  9.503171247357294 4.708849557522125  9.568710359408032 4.674462705436158  C 9.634249471458775 4.64007585335019  9.49260042283298 4.700252844500633  9.58350951374207 4.668015170670039  C 9.615221987315008 4.657269279393175  9.644820295983088 4.646523388116309  9.676532769556026 4.635777496839445  C 9.712473572938691 4.62503160556258  9.750528541226217 4.614285714285715  9.786469344608882 4.607838179519596  C 9.805496828752641 4.603539823008851  9.824524312896406 4.601390644753477  9.843551797040167 4.597092288242732  C 9.900634249471459 4.586346396965866  9.839323467230447 4.601390644753477  9.816067653276955 4.599241466498104  C 9.885835095137418 4.605689001264223  9.964059196617335 4.58849557522124  10.035940803382658 4.590644753476614  C 10.069767441860463 4.590644753476614  10.103594080338267 4.594943109987359  10.137420718816069 4.597092288242733  C 10.22198731501057 4.603539823008852  10.109936575052851 4.594943109987359  10.112050739957713 4.592793931731987  C 10.116279069767442 4.586346396965868  10.175475687103589 4.603539823008852  10.18181818181818 4.605689001264226  C 10.260042283298091 4.622882427307209  10.336152219873142 4.64652338811631  10.412262156448197 4.6744627054361585  C 10.47357293868921 4.695954487989889  10.391120507399572 4.66156763590392  10.389006342494707 4.663716814159295  C 10.39323467230444 4.66156763590392  10.433403805496823 4.685208596713024  10.43974630021141 4.687357774968397  C 10.477801268498936 4.706700379266754  10.5137420718816 4.726042983565111  10.549682875264265 4.74753476611884  C 10.581395348837203 4.7668773704171965  10.61099365750528 4.788369152970926  10.642706131078217 4.807711757269283  C 10.655391120507394 4.816308470290774  10.704016913319235 4.854993678887488  10.655391120507394 4.816308470290774  C 10.60253699788583 4.7733249051833155  10.665961945031707 4.827054361567639  10.676532769556019 4.83565107458913  C 10.735729386892173 4.88723135271808  10.788583509513735 4.945259165613151  10.8414376321353 5.005436156763592  C 10.84355179704016 5.0097345132743385  10.868921775898512 5.03337547408344  10.866807610993652 5.037673830594187  C 10.832980972515848 4.990391908975982  10.824524312896402 4.9796460176991175  10.84355179704016 5.005436156763592  C 10.852008456659615 5.0161820480404575  10.860465116279066 5.029077117572696  10.866807610993652 5.0398230088495595  C 10.887949260042278 5.069911504424781  10.90697674418604 5.102149178255375  10.926004228329804 5.134386852085969  C 10.94503171247357 5.166624525916564  10.961945031712467 5.201011378002531  10.978858350951368 5.233249051833125  C 10.976744186046508 5.231099873577752  11.00422832980972 5.282680151706702  11.002114164904855 5.284829329962076  C 11.006342494714584 5.278381795195957  10.968287526427057 5.188116308470293  10.995771670190273 5.274083438685211  C 11.02114164904862 5.351453855878637  11.044397463002106 5.428824273072062  11.061310782241012 5.510493046776235  C 11.065539112050738 5.5276864728192185  11.065539112050738 5.553476611883693  11.071881606765324 5.568520859671304  C 11.063424947145872 5.547029077117574  11.063424947145872 5.482553729456386  11.067653276955598 5.542730720606829  C 11.080338266384777 5.590012642225032  11.082452431289642 5.639443742098608  11.082452431289642 5.691024020227561  C 11.084566596194508 5.91668773704172  11.274841437632139 6.131605562579015  11.505285412262158 6.120859671302149  C 11.731501057082454 6.110113780025285  11.93023255813954 5.93173198482933  11.928118393234673 5.691024020227561  C 11.919661733615225 4.852844500632112  11.401691331923892 4.126422250316056  10.632135306553913 3.8405815423514547  C 9.904862579281184 3.567635903919091  9.025369978858354 3.81479140328698  8.532769556025372 4.418710493046777  C 8.010570824524315 5.061314791403287  7.913319238900636 5.983312262958281  8.346723044397464 6.705436156763591  C 8.775898520084569 7.421112515802782  9.59830866807611 7.767130214917825  10.399577167019029 7.6080910240202275  C 11.285412262156452 7.434007585335019  11.917547568710361 6.591529709228824  11.926004228329813 5.691024020227561  C 11.92811839323468 5.465360303413401  11.729386892177594 5.250442477876106  11.503171247357297 5.261188369152971  Z M 19.55813953488372 16.11883691529709  C 19.38689217758985 16.11883691529709  19.217758985200845 16.11883691529709  19.04651162790698 16.11883691529709  C 18.583509513742072 16.11883691529709  18.118393234672304 16.11883691529709  17.655391120507396 16.11883691529709  C 16.970401691331926 16.11883691529709  16.283298097251585 16.11883691529709  15.598308668076113 16.11883691529709  C 14.76109936575053 16.11883691529709  13.923890063424945 16.11883691529709  13.088794926004226 16.11883691529709  C 12.17124735729387 16.11883691529709  11.255813953488374 16.11883691529709  10.338266384778013 16.11883691529709  C 9.412262156448204 16.11883691529709  8.488372093023255 16.11883691529709  7.562367864693447 16.11883691529709  C 6.699788583509513 16.11883691529709  5.837209302325582 16.11883691529709  4.974630021141648 16.11883691529709  C 4.2452431289640575 16.11883691529709  3.517970401691332 16.11883691529709  2.788583509513742 16.11883691529709  C 2.2663847780126836 16.11883691529709  1.744186046511628 16.11883691529709  1.22198731501057 16.11883691529709  C 0.9725158562367865 16.11883691529709  0.7230443974630006 16.114538558786347  0.4735729386892173 16.11883691529709  C 0.4630021141649044 16.11883691529709  0.4524312896405914 16.11883691529709  0.4418604651162786 16.11883691529709  C 0.21987315010570777 16.11883691529709  0.008456659619449837 16.316561314791404  0.01902748414376273 16.548672566371682  C 0.02959830866807563 16.78078381795196  0.20507399577166877 16.97850821744627  0.4418604651162786 16.97850821744627  C 0.613107822410148 16.97850821744627  0.7822410147991543 16.97850821744627  0.9534883720930214 16.97850821744627  C 1.4164904862579282 16.97850821744627  1.8816067653276956 16.97850821744627  2.3446088794925997 16.97850821744627  C 3.029598308668075 16.97850821744627  3.7167019027484134 16.97850821744627  4.401691331923889 16.97850821744627  C 5.23890063424947 16.97850821744627  6.07610993657505 16.97850821744627  6.9112050739957684 16.97850821744627  C 7.828752642706131 16.97850821744627  8.744186046511626 16.97850821744627  9.661733615221987 16.97850821744627  C 10.587737843551796 16.97850821744627  11.511627906976745 16.97850821744627  12.437632135306554 16.97850821744627  C 13.300211416490484 16.97850821744627  14.16279069767442 16.97850821744627  15.025369978858347 16.97850821744627  C 15.754756871035937 16.97850821744627  16.482029598308664 16.97850821744627  17.211416490486254 16.97850821744627  C 17.733615221987314 16.97850821744627  18.25581395348837 16.97850821744627  18.778012684989424 16.97850821744627  C 19.027484143763214 16.97850821744627  19.276955602536997 16.982806573957017  19.52642706131078 16.97850821744627  C 19.536997885835092 16.97850821744627  19.547568710359407 16.97850821744627  19.55813953488372 16.97850821744627  C 19.78012684989429 16.97850821744627  19.99154334038055 16.78078381795196  19.980972515856234 16.548672566371682  C 19.970401691331922 16.31441213653603  19.79492600422833 16.11883691529709  19.55813953488372 16.11883691529709  Z " fill-rule="nonzero" fill="#ffffff" stroke="none" transform="matrix(1 0 0 1 20 12 )" />
  </g>
</svg>