<?xml version="1.0" encoding="utf-8"?>
<svg version="1.1" xmlns:xlink="http://www.w3.org/1999/xlink" width="20px" height="20px" xmlns="http://www.w3.org/2000/svg">
  <g transform="matrix(1 0 0 1 -20 -10 )">
    <path d="M 9.194782608695654 13.48326086956522  C 9.524565217391306 13.247173913043477  9.740217391304348 12.860652173913042  9.740217391304348 12.424782608695653  C 9.740217391304348 11.707391304347826  9.156739130434783 11.123913043478261  8.439347826086955 11.123913043478261  L 7.925652173913043 11.123913043478261  L 7.925652173913043 11.108478260869566  C 7.925652173913043 10.39521739130435  7.633260869565217 9.80521739130435  7.117391304347826 9.457608695652175  L 7.117391304347826 7.622608695652175  C 8.824130434782608 7.239782608695652  10.103260869565215 5.7126086956521736  10.103260869565215 3.8921739130434787  C 10.103260869565215 1.784130434782609  8.388260869565215 0.069130434782609  6.280217391304347 0.069130434782609  C 4.172173913043478 0.069130434782609  2.4571739130434778 1.784130434782609  2.4571739130434778 3.8921739130434787  C 2.4571739130434778 5.7126086956521736  3.7363043478260867 7.240000000000001  5.4430434782608685 7.622608695652175  L 5.4430434782608685 9.181956521739131  L 4.257173913043478 9.28717391304348  C 3.5536956521739125 9.349565217391305  2.9413043478260863 9.770000000000001  2.532826086956521 10.470869565217392  L 1.954565217391304 11.463695652173913  C 1.8639130434782605 11.619347826086958  1.7147826086956517 11.705000000000002  1.5345652173913038 11.705000000000002  L 0.32673913043478264 11.705000000000002  C 0.14869565217391306 11.705000000000002  0.004347826086956526 11.849347826086959  0.004347826086956526 12.027391304347825  L 0.004347826086956526 18.280434782608697  C 0.004347826086956526 18.458478260869565  0.14869565217391306 18.602826086956522  0.32673913043478264 18.602826086956522  L 1.5345652173913047 18.602826086956522  C 1.62304347826087 18.602826086956522  1.7036956521739133 18.623043478260872  1.7745652173913042 18.662826086956525  C 2.1889130434782613 18.895869565217392  2.6034782608695655 19.004347826086956  3.079130434782609 19.004347826086956  L 5.443260869565218 19.004347826086956  L 5.443260869565218 19.093695652173913  C 5.443260869565218 19.555434782608696  5.818913043478261 19.930869565217392  6.280434782608696 19.930869565217392  C 6.74195652173913 19.930869565217392  7.117608695652173 19.55521739130435  7.117608695652173 19.093695652173913  L 7.117608695652173 19.004347826086956  L 7.176956521739131 19.004347826086956  C 7.8417391304347825 19.004347826086956  8.382826086956522 18.463260869565218  8.382826086956522 17.798260869565215  C 8.382826086956522 17.63695652173913  8.349782608695651 17.47891304347826  8.28804347826087 17.332608695652173  C 8.749347826086955 17.15608695652174  9.077826086956522 16.708695652173912  9.077826086956522 16.186086956521738  C 9.077826086956522 15.947608695652175  9.006304347826088 15.717173913043482  8.88 15.521739130434785  C 9.277391304347828 15.29304347826087  9.546956521739132 14.863478260869565  9.546956521739132 14.377391304347828  C 9.546956521739132 14.038043478260873  9.414347826086956 13.721304347826088  9.194782608695654 13.48326086956522  Z M 7.1173913043478265 10.398478260869563  C 7.223695652173912 10.599130434782609  7.280652173913044 10.840217391304348  7.280652173913044 11.108478260869566  L 7.280652173913044 11.12391304347826  L 7.1173913043478265 11.12391304347826  L 7.1173913043478265 10.398478260869563  Z M 6.280217391304347 7.070434782608696  C 4.527608695652173 7.070434782608696  3.1019565217391296 5.644565217391304  3.1019565217391296 3.8921739130434787  C 3.1019565217391296 2.1397826086956524  4.527608695652173 0.713913043478261  6.280217391304347 0.713913043478261  C 8.03282608695652 0.713913043478261  9.458478260869564 2.1395652173913042  9.458478260869564 3.8921739130434787  C 9.458478260869564 5.644782608695652  8.03282608695652 7.070434782608696  6.280217391304347 7.070434782608696  Z M 6.087826086956522 7.710434782608696  C 6.151521739130434 7.713695652173912  6.2156521739130435 7.715217391304349  6.2802173913043475 7.715217391304349  C 6.3447826086956525 7.715217391304349  6.40891304347826 7.713478260869565  6.472608695652174 7.710434782608696  L 6.472608695652174 11.123913043478261  L 6.087826086956522 11.123913043478261  L 6.087826086956522 7.710434782608696  Z M 0.6491304347826087 17.95804347826087  L 0.6491304347826087 12.350217391304348  L 1.212173913043478 12.350217391304348  L 1.212173913043478 17.95804347826087  L 0.6491304347826087 17.95804347826087  Z M 6.472608695652173 19.004347826086956  L 6.472608695652174 19.093695652173913  C 6.472608695652174 19.199782608695653  6.386304347826087 19.286086956521743  6.2802173913043475 19.286086956521743  C 6.174130434782608 19.286086956521743  6.087826086956522 19.199782608695653  6.087826086956522 19.093695652173913  L 6.087826086956522 19.004347826086956  L 6.472608695652173 19.004347826086956  Z M 9.094782608695656 12.42478260869565  C 9.095217391304347 12.786304347826087  8.801086956521738 13.080652173913043  8.43695652173913 13.080652173913043  C 8.272173913043478 13.080652173913043  8.13391304347826 13.205  8.116304347826087 13.368913043478262  C 8.098913043478262 13.532826086956522  8.207826086956523 13.683478260869567  8.368913043478262 13.718260869565217  C 8.677608695652175 13.785  8.901739130434782 14.062173913043477  8.901739130434782 14.377608695652173  C 8.901739130434782 14.74217391304348  8.605217391304349 15.044565217391304  8.240652173913045 15.05130434782609  C 8.091956521739132 15.05413043478261  7.964347826086957 15.158478260869565  7.931956521739131 15.303695652173914  C 7.899565217391304 15.448913043478264  7.970869565217392 15.597391304347827  8.104347826086958 15.663043478260871  C 8.303695652173914 15.761086956521739  8.432391304347826 15.966304347826089  8.432391304347826 16.186304347826088  C 8.432391304347826 16.50717391304348  8.171304347826087 16.76826086956522  7.850652173913043 16.76826086956522  L 7.703913043478261 16.76826086956522  C 7.5649999999999995 16.76826086956522  7.441739130434782 16.857173913043482  7.39804347826087 16.988913043478263  C 7.354130434782611 17.120652173913044  7.399565217391305 17.265652173913047  7.510652173913045 17.348913043478266  C 7.652608695652176 17.455217391304355  7.737608695652175 17.62347826086957  7.737608695652175 17.79847826086957  C 7.737608695652175 18.10782608695653  7.485869565217392 18.35956521739131  7.176739130434784 18.35956521739131  L 3.0786956521739146 18.35956521739131  C 2.7134782608695667 18.35956521739131  2.4084782608695665 18.279782608695655  2.090217391304349 18.100869565217398  C 2.0169565217391314 18.05978260869566  1.9384782608695663 18.027608695652177  1.8567391304347838 18.004130434782613  L 1.8567391304347838 12.305217391304348  C 2.1300000000000012 12.22695652173913  2.360000000000001 12.048260869565217  2.511521739130436 11.788478260869564  L 3.0897826086956535 10.79565217391304  C 3.3019565217391325 10.431304347826085  3.686739130434784 9.985217391304346  4.313913043478262 9.929565217391303  L 5.442608695652176 9.829347826086956  L 5.442608695652176 11.132391304347827  C 5.299565217391305 11.165434782608694  5.192826086956524 11.293260869565216  5.192826086956524 11.446304347826086  C 5.192826086956524 11.624347826086955  5.337173913043481 11.768695652173912  5.5152173913043505 11.768695652173912  L 8.438913043478264 11.768695652173912  C 8.800652173913047 11.768695652173912  9.094782608695656 12.06304347826087  9.094782608695656 12.42478260869565  Z M 6.602173913043478 5.493478260869566  C 6.602608695652173 5.671086956521739  6.458260869565216 5.815434782608696  6.2802173913043475 5.815434782608696  C 6.102173913043478 5.815434782608696  5.957826086956521 5.671086956521739  5.957826086956521 5.493043478260869  L 5.957826086956521 5.418695652173914  C 5.557173913043478 5.319130434782609  5.252173913043478 5.036956521739131  5.155869565217391 4.650869565217391  C 5.112826086956521 4.47804347826087  5.21804347826087 4.30304347826087  5.390652173913043 4.260000000000001  C 5.563478260869566 4.216956521739132  5.738478260869565 4.321956521739131  5.781521739130434 4.494782608695653  C 5.84195652173913 4.737391304347827  6.101739130434782 4.817826086956522  6.305434782608695 4.8130434782608695  C 6.482608695652175 4.808913043478261  6.657608695652174 4.746956521739131  6.730652173913043 4.6623913043478264  C 6.7536956521739135 4.6356521739130425  6.776304347826087 4.598260869565217  6.767173913043479 4.523478260869565  C 6.758478260869564 4.45195652173913  6.738260869565217 4.284782608695653  6.230217391304348 4.201521739130435  C 5.391521739130435 4.06391304347826  5.244130434782608 3.5856521739130436  5.230869565217391 3.313043478260869  C 5.209347826086956 2.8717391304347823  5.499130434782609 2.5002173913043473  5.957608695652174 2.37195652173913  L 5.957608695652174 2.2915217391304346  C 5.957608695652174 2.113478260869565  6.1019565217391305 1.9691304347826084  6.28 1.9691304347826084  C 6.458043478260869 1.9691304347826084  6.602391304347826 2.113478260869565  6.602391304347826 2.2915217391304346  L 6.602391304347826 2.3689130434782606  C 6.897826086956521 2.4484782608695648  7.17391304347826 2.6460869565217386  7.32195652173913 2.9991304347826087  C 7.390869565217391 3.163260869565217  7.313695652173912 3.352391304347826  7.149565217391304 3.4213043478260867  C 6.985652173913044 3.4902173913043475  6.796304347826086 3.413043478260869  6.727391304347826 3.248913043478261  C 6.60891304347826 2.966521739130435  6.314565217391303 2.950869565217391  6.159347826086956 2.986086956521739  C 6.09 3.0017391304347822  5.864347826086957 3.069565217391305  5.874782608695651 3.2819565217391307  C 5.877608695652174 3.339347826086957  5.884999999999999 3.4915217391304347  6.3343478260869555 3.565434782608696  C 6.988260869565217 3.6728260869565217  7.349130434782608 3.9691304347826084  7.406956521739129 4.4460869565217385  C 7.436304347826086 4.6869565217391305  7.37086956521739 4.907826086956521  7.218043478260868 5.0845652173913045  C 7.074565217391305 5.250434782608696  6.8547826086956505 5.369782608695653  6.602173913043478 5.424782608695652  L 6.602173913043478 5.493478260869566  Z M 6.2802173913043475 6.744347826086957  C 7.852826086956522 6.744347826086957  9.132391304347827 5.4647826086956535  9.132391304347827 3.8921739130434787  C 9.132391304347827 2.3195652173913044  7.852826086956521 1.04  6.2802173913043475 1.04  C 4.707608695652175 1.04  3.428043478260871 2.319565217391305  3.428043478260871 3.8921739130434787  C 3.428043478260871 5.464782608695652  4.707608695652175 6.744347826086957  6.2802173913043475 6.744347826086957  Z M 6.2802173913043475 6.099565217391304  C 5.0630434782608695 6.099565217391304  4.072826086956521 5.1091304347826085  4.072826086956521 3.8921739130434787  C 4.072826086956521 2.6750000000000003  5.0630434782608695 1.6849999999999998  6.2802173913043475 1.6849999999999998  C 7.4973913043478255 1.6849999999999998  8.487608695652174 2.6752173913043475  8.487608695652174 3.8921739130434787  C 8.487608695652174 5.109130434782609  7.4973913043478255 6.099565217391304  6.2802173913043475 6.099565217391304  Z M 19.087173913043475 13.48326086956522  C 19.41717391304348 13.247173913043477  19.632608695652173 12.860652173913042  19.632608695652173 12.424782608695653  C 19.632608695652173 11.720000000000002  19.069130434782608 11.144565217391305  18.368913043478262 11.124782608695654  C 18.36282608695652 11.124347826086957  18.356521739130432 11.123913043478261  18.350217391304348 11.123913043478261  L 18.331739130434784 11.123913043478261  L 17.818043478260872 11.123913043478261  L 17.818043478260872 11.108478260869568  C 17.818043478260872 10.39521739130435  17.525652173913045 9.80521739130435  17.009782608695655 9.457608695652176  L 17.009782608695655 7.6226086956521755  C 18.716521739130435 7.239782608695653  19.995652173913044 5.712608695652175  19.995652173913044 3.8921739130434796  C 19.995652173913044 1.7841304347826104  18.280652173913047 0.06913043478261055  16.172608695652176 0.06913043478261055  C 14.064565217391305 0.06913043478261055  12.349565217391305 1.7841304347826104  12.349565217391305 3.8921739130434796  C 12.349565217391305 5.712608695652175  13.628695652173914 7.240000000000002  15.335434782608697 7.6226086956521755  L 15.335434782608697 9.181956521739131  L 14.149565217391306 9.28717391304348  C 13.446086956521741 9.349565217391307  12.833695652173915 9.770000000000001  12.425217391304349 10.470869565217393  L 11.846739130434784 11.463695652173914  C 11.756086956521742 11.619347826086958  11.606956521739132 11.705000000000004  11.42695652173913 11.705000000000004  L 10.21913043478261 11.705000000000004  C 10.041086956521742 11.705000000000004  9.896739130434785 11.84934782608696  9.896739130434785 12.027391304347827  L 9.896739130434785 18.280434782608697  C 9.896739130434785 18.458478260869565  10.041086956521744 18.602826086956522  10.21913043478261 18.602826086956522  L 11.42695652173913 18.602826086956522  C 11.515434782608695 18.602826086956522  11.596086956521741 18.623043478260872  11.666956521739131 18.662826086956525  C 12.081304347826087 18.895869565217392  12.495869565217392 19.004347826086956  12.971521739130436 19.004347826086956  L 15.335652173913045 19.004347826086956  L 15.335652173913045 19.093695652173913  C 15.335652173913045 19.555434782608696  15.711304347826086 19.930869565217392  16.172826086956526 19.930869565217392  C 16.634565217391305 19.930869565217392  17.01 19.55521739130435  17.01 19.093695652173913  L 17.01 19.004347826086956  L 17.069347826086958 19.004347826086956  C 17.73413043478261 19.004347826086956  18.27521739130435 18.463260869565218  18.27521739130435 17.798260869565215  C 18.27521739130435 17.63695652173913  18.242173913043477 17.47891304347826  18.180434782608693 17.332608695652173  C 18.641739130434782 17.15608695652174  18.970217391304345 16.708695652173912  18.970217391304345 16.186086956521738  C 18.970217391304345 15.947608695652175  18.898695652173913 15.717173913043482  18.772391304347824 15.521739130434785  C 19.16978260869565 15.29304347826087  19.439347826086955 14.863478260869565  19.439347826086955 14.377391304347828  C 19.439347826086955 14.038043478260873  19.30673913043478 13.721304347826088  19.087173913043475 13.48326086956522  Z M 17.009999999999998 10.398478260869563  C 17.116304347826087 10.599130434782609  17.173260869565215 10.840217391304348  17.173260869565215 11.108478260869566  L 17.173260869565215 11.12391304347826  L 17.009999999999998 11.12391304347826  L 17.009999999999998 10.398478260869563  Z M 16.17282608695652 7.070434782608696  C 14.420217391304348 7.070434782608696  12.994565217391305 5.644565217391304  12.994565217391305 3.8921739130434787  C 12.994565217391305 2.1397826086956524  14.420217391304348 0.713913043478261  16.17282608695652 0.713913043478261  C 17.925434782608693 0.713913043478261  19.35108695652174 2.1395652173913042  19.35108695652174 3.8921739130434787  C 19.35108695652174 5.644782608695652  17.925434782608693 7.070434782608696  16.17282608695652 7.070434782608696  Z M 15.98021739130435 7.710434782608696  C 16.04413043478261 7.713695652173912  16.108260869565218 7.715217391304349  16.172608695652176 7.715217391304349  C 16.237173913043478 7.715217391304349  16.30130434782609 7.713478260869565  16.365000000000002 7.710434782608696  L 16.365000000000002 11.123913043478261  L 15.98021739130435 11.123913043478261  L 15.98021739130435 7.710434782608696  Z M 10.541521739130435 17.95804347826087  L 10.541521739130435 12.350217391304348  L 11.104565217391304 12.350217391304348  L 11.104565217391304 17.95804347826087  L 10.541521739130435 17.95804347826087  Z M 16.364999999999995 19.004347826086956  L 16.365 19.093695652173913  C 16.365 19.199782608695653  16.278695652173912 19.286086956521743  16.172608695652173 19.286086956521743  C 16.066521739130433 19.286086956521743  15.980217391304345 19.199782608695653  15.980217391304345 19.093695652173913  L 15.980217391304345 19.004347826086956  L 16.364999999999995 19.004347826086956  Z M 18.98739130434783 12.42478260869565  C 18.98782608695652 12.786304347826087  18.693478260869565 13.080652173913043  18.329565217391306 13.080652173913043  C 18.164782608695653 13.080652173913043  18.026521739130434 13.205  18.008913043478262 13.368913043478262  C 17.991521739130437 13.532826086956522  18.100434782608698 13.683478260869567  18.261521739130437 13.718260869565217  C 18.57021739130435 13.785  18.79434782608696 14.062173913043477  18.79434782608696 14.377608695652173  C 18.79434782608696 14.74217391304348  18.497826086956522 15.044565217391304  18.13326086956522 15.05130434782609  C 17.984565217391307 15.05413043478261  17.856956521739132 15.158478260869565  17.824565217391307 15.303695652173914  C 17.79217391304348 15.448913043478264  17.863478260869567 15.597391304347827  17.996956521739133 15.663043478260871  C 18.196304347826093 15.761086956521739  18.325000000000003 15.966521739130437  18.325000000000003 16.186304347826088  C 18.325000000000003 16.50717391304348  18.063913043478266 16.76826086956522  17.74326086956522 16.76826086956522  L 17.596521739130438 16.76826086956522  C 17.457608695652176 16.76826086956522  17.334565217391308 16.857173913043482  17.29065217391305 16.988913043478263  C 17.246739130434786 17.120652173913044  17.292173913043484 17.265652173913047  17.403260869565223 17.348913043478266  C 17.54521739130435 17.455217391304355  17.630217391304353 17.62347826086957  17.630217391304353 17.79847826086957  C 17.630217391304353 18.10782608695653  17.37847826086957 18.35956521739131  17.06934782608696 18.35956521739131  L 12.971304347826091 18.35956521739131  C 12.606086956521743 18.35956521739131  12.301086956521743 18.279782608695655  11.982826086956527 18.100869565217398  C 11.90956521739131 18.05978260869566  11.831086956521744 18.027608695652177  11.749347826086963 18.003913043478267  L 11.749347826086963 12.305217391304348  C 12.02260869565218 12.22695652173913  12.252608695652178 12.048260869565217  12.403913043478267 11.788478260869564  L 12.982391304347834 10.79565217391304  C 13.19456521739131 10.431304347826085  13.579347826086963 9.985217391304346  14.20652173913044 9.929565217391303  L 15.335217391304354 9.829347826086956  L 15.335217391304354 11.132391304347827  C 15.192173913043485 11.165434782608694  15.085434782608703 11.293260869565216  15.085434782608703 11.446304347826086  C 15.085434782608703 11.624347826086955  15.22978260869566 11.768695652173912  15.407826086956529 11.768695652173912  L 18.33152173913044 11.768695652173912  C 18.693260869565226 11.768695652173912  18.98739130434783 12.06304347826087  18.98739130434783 12.42478260869565  Z M 16.49456521739131 5.493043478260868  C 16.495217391304347 5.671086956521739  16.35086956521739 5.815434782608696  16.172608695652176 5.815434782608696  C 15.994565217391305 5.815434782608696  15.850217391304348 5.671086956521739  15.850217391304348 5.493043478260869  L 15.850217391304348 5.418695652173914  C 15.449565217391303 5.319130434782609  15.144565217391307 5.036956521739131  15.048260869565219 4.650869565217391  C 15.00521739130435 4.47804347826087  15.110434782608698 4.30304347826087  15.283043478260872 4.260000000000001  C 15.455652173913045 4.216956521739132  15.630869565217392 4.321956521739131  15.673913043478262 4.494782608695653  C 15.73434782608696 4.737391304347827  15.994347826086958 4.817826086956522  16.197826086956525 4.8130434782608695  C 16.375 4.808913043478261  16.550000000000004 4.746956521739131  16.623043478260872 4.6623913043478264  C 16.64608695652174 4.6356521739130425  16.668695652173913 4.59804347826087  16.659565217391307 4.523260869565217  C 16.65086956521739 4.45195652173913  16.63065217391305 4.284782608695651  16.122608695652175 4.2013043478260865  C 15.283913043478263 4.063695652173912  15.136521739130437 3.5854347826086945  15.123260869565222 3.3128260869565214  C 15.101739130434787 2.871521739130434  15.391521739130438 2.499999999999999  15.850000000000007 2.371739130434782  L 15.850000000000007 2.2913043478260864  C 15.850000000000007 2.1132608695652166  15.994347826086964 1.96891304347826  16.172391304347833 1.96891304347826  C 16.3504347826087 1.96891304347826  16.494782608695658 2.1132608695652166  16.494782608695658 2.2913043478260864  L 16.494782608695658 2.3686956521739124  C 16.790217391304353 2.4482608695652166  17.066304347826097 2.645869565217391  17.214347826086964 2.9986956521739123  C 17.283260869565225 3.162826086956521  17.206086956521748 3.3519565217391296  17.041956521739138 3.420869565217391  C 16.877826086956528 3.489782608695652  16.68891304347827 3.4126086956521733  16.619782608695658 3.2484782608695646  C 16.501304347826093 2.966086956521739  16.206739130434787 2.950434782608695  16.05173913043479 2.985652173913043  C 15.982391304347834 3.0013043478260863  15.756739130434791 3.069130434782608  15.767173913043486 3.2815217391304348  C 15.77000000000001 3.3389130434782603  15.777391304347834 3.4910869565217384  16.226739130434794 3.5649999999999995  C 16.880652173913052 3.672391304347826  17.241521739130445 3.9686956521739125  17.299347826086965 4.445652173913043  C 17.328695652173923 4.686739130434782  17.263260869565226 4.907608695652173  17.110434782608706 5.0843478260869555  C 16.967173913043485 5.250217391304347  16.747391304347833 5.369565217391303  16.49456521739131 5.424347826086954  L 16.49456521739131 5.493043478260868  Z M 16.17282608695652 6.744347826086957  C 17.745434782608697 6.744347826086957  19.025000000000002 5.4647826086956535  19.025000000000002 3.8921739130434787  C 19.025000000000002 2.3195652173913044  17.745434782608697 1.04  16.17282608695652 1.04  C 14.600217391304348 1.04  13.320652173913043 2.319565217391305  13.320652173913043 3.8921739130434787  C 13.320652173913043 5.464782608695652  14.600217391304348 6.744347826086957  16.17282608695652 6.744347826086957  Z M 16.172608695652176 6.099565217391304  C 14.955652173913045 6.099347826086956  13.965434782608696 5.1091304347826085  13.965434782608696 3.8921739130434787  C 13.965434782608696 2.6750000000000003  14.955652173913041 1.6849999999999998  16.172608695652176 1.6849999999999998  C 17.389782608695654 1.6849999999999998  18.380000000000003 2.6752173913043475  18.380000000000003 3.8921739130434787  C 18.380000000000003 5.109130434782609  17.38978260869565 6.099565217391304  16.172608695652176 6.099565217391304  Z " fill-rule="nonzero" fill="#ffffff" stroke="none" transform="matrix(1 0 0 1 20 10 )" />
  </g>
</svg>