<svg width="68" height="70" viewBox="0 0 68 70" fill="none" xmlns="http://www.w3.org/2000/svg">
<path d="M29.7129 1.06855C31.1296 -0.356184 33.4281 -0.356184 34.8457 1.06855L46.8148 13.0998C48.2322 14.5245 48.2322 16.8346 46.8148 18.2593C45.398 19.6822 43.1001 19.6822 41.6832 18.2593L41.5176 18.0903L29.7129 6.22626C29.5965 6.10867 29.5028 5.97755 29.4053 5.84825C28.3199 4.41808 28.4137 2.37582 29.7129 1.06855ZM8.12429 21.7153C9.4981 20.4081 11.6484 20.3149 13.1537 21.4055C13.2898 21.5041 13.4273 21.5972 13.5519 21.7153L26.0338 33.5791L26.2107 33.746C27.7099 35.1709 27.7099 37.4809 26.2107 38.9056C24.7115 40.3286 22.2814 40.3286 20.7831 38.9056L8.12429 26.873C6.62524 25.4484 6.62524 23.14 8.12429 21.7153Z" fill="#01FD97" fill-opacity="0.2"/>
<path d="M30.4012 5.37604L42.1109 17.1785L25.0152 34.4103L13.3076 22.6081C13.1908 22.4907 13.0617 22.3981 12.9341 22.2999L30.096 5C30.1928 5.12863 30.2857 5.25906 30.4012 5.37604ZM36.2036 26.4885C36.5462 26.1444 37.0992 26.1348 37.4526 26.4692L67.6968 55.1529C67.8721 55.32 67.9732 55.5526 67.9768 55.7969C67.9807 56.0425 67.886 56.2773 67.7159 56.4503L62.8844 61.3209C62.7112 61.4939 62.4787 61.59 62.2359 61.586C61.9931 61.5823 61.7621 61.4802 61.5965 61.3018L33.1331 30.8227C32.8022 30.4672 32.8095 29.9097 33.1527 29.5638L36.2036 26.4885ZM8.63578 60.2668C8.63578 60.0158 8.73724 59.7781 8.92219 59.599C9.10738 59.422 9.35337 59.3224 9.61345 58.9462H39.5967C39.8538 59.3224 40.105 59.4239 40.2872 59.599C40.4699 59.7761 40.5736 60.0196 40.5736 60.2668V63.4943H43.9961V66.7197H49.2109V69.9462H0V66.7197H5.21321V63.4943H8.63578V60.2668Z" fill="#03C5FB" fill-opacity="0.2"/>
</svg>
