<?xml version="1.0" encoding="utf-8"?>
<svg version="1.1" xmlns:xlink="http://www.w3.org/1999/xlink" width="30px" height="28px" xmlns="http://www.w3.org/2000/svg">
  <g transform="matrix(1 0 0 1 -20 -16 )">
    <path d="M 22.5 22.139534883720927  C 20.8786948125 22.139534883720927  19.377546062500002 21.603548660465123  18.150887687500003 20.6923705116279  L 11.9038326875 27.200930204651172  C 11.417924 27.707179255813955  10.6316924375 27.708827479069768  10.140133749999997 27.196691916279065  C 9.651978374999999 26.68810213023255  9.6532078125 25.86223425116279  10.13606575 25.359163720930226  L 16.384112562499993 18.849570697674423  C 15.512527187499998 17.572887906976746  15 16.01159371162791  15 14.325581395348834  C 15 10.010054046511627  18.35786437499999 6.5116279069767415  22.5 6.5116279069767415  C 26.64213562500001 6.5116279069767415  30 10.010054046511627  30 14.325581395348834  C 30 18.641108744186056  26.64213562500001 22.139534883720927  22.5 22.139534883720927  Z M 18.978968500000008 17.987859367441857  C 19.032829812499998 18.04397533953488  19.080733249999994 18.103953879069763  19.1226893125 18.166935255813954  C 20.012367374999997 19.016455972093027  21.1980735625 19.534883720930225  22.5 19.534883720930225  C 25.261423750000006 19.534883720930225  27.5 17.202599627906977  27.5 14.325581395348834  C 27.5 11.448563162790691  25.261423750000006 9.116279069767444  22.5 9.116279069767444  C 19.738576249999994 9.116279069767444  17.5 11.448563162790691  17.5 14.325581395348834  C 17.5 15.678888204651159  17.995312374999997 16.911665888372085  18.807366687500007 17.837868967441864  C 18.867589062500002 17.881692548837208  18.925051374999995 17.931685311627916  18.978968500000008 17.987859367441857  Z M 1.5 3  C 0.6600000000000001 3  0 2.3400000000000034  0 1.5  C 0 0.6599999999999966  0.6600000000000001 0  1.5 0  L 24.5 0  C 25.340000000000003 0  26 0.6599999999999966  26 1.5  C 26 2.3400000000000034  25.340000000000003 3  24.5 3  L 1.5 3  Z M 1.5 10  C 0.6600000000000001 10  0 9.340000000000003  0 8.5  C 0 7.659999999999997  0.6600000000000001 7  1.5 7  L 12.5 7  C 13.340000000000003 7  14 7.659999999999997  14 8.5  C 14 9.340000000000003  13.340000000000003 10  12.5 10  L 1.5 10  Z M 1.5 17  C 0.6600000000000001 17  0 16.340000000000003  0 15.5  C 0 14.659999999999997  0.6600000000000001 14  1.5 14  L 6.5 14  C 7.34 14  8 14.659999999999997  8 15.5  C 8 16.340000000000003  7.34 17  6.5 17  L 1.5 17  Z M 1.5 24  C 0.6600000000000001 24  0 23.340000000000003  0 22.5  C 0 21.659999999999997  0.6600000000000001 21  1.5 21  L 6.5 21  C 7.34 21  8 21.659999999999997  8 22.5  C 8 23.340000000000003  7.34 24  6.5 24  L 1.5 24  Z " fill-rule="nonzero" fill="#37406d" stroke="none" transform="matrix(1 0 0 1 20 16 )" />
  </g>
</svg>