<?xml version="1.0" encoding="utf-8"?>
<svg version="1.1" xmlns:xlink="http://www.w3.org/1999/xlink" width="33px" height="16px" xmlns="http://www.w3.org/2000/svg">
  <g transform="matrix(1 0 0 1 -39 -232 )">
    <path d="M 32.828125 8  C 32.828125 5.391304347826087  32.243749999999984 2.9217391304347746  31.109375 0.6260869565217431  C 30.834375000000016 0.10434782608696047  30.181249999999984 -0.1391304347826008  29.665624999999984 0.1391304347826008  C 29.149999999999984 0.4173913043478221  28.909375000000008 1.0782608695652254  29.184374999999992 1.6000000000000079  C 30.181249999999984 3.5826086956521777  30.662500000000016 5.7043478260869485  30.662500000000016 8  C 30.662500000000016 10.295652173913052  30.146875000000016 12.417391304347822  29.184374999999992 14.399999999999991  C 28.909375000000008 14.921739130434775  29.115625000000016 15.582608695652178  29.665624999999984 15.8608695652174  C 29.837499999999984 15.9304347826087  29.975000000000016 15.96521739130434  30.146875000000016 15.96521739130434  C 30.524999999999984 15.96521739130434  30.903124999999992 15.756521739130438  31.109375 15.373913043478257  C 32.243749999999984 13.078260869565225  32.828125 10.608695652173912  32.828125 8  Z M 3.78125 1.6000000000000079  C 4.056249999999984 1.0782608695652254  3.8500000000000156 0.4173913043478221  3.3343750000000156 0.1391304347826008  C 2.8187500000000156 -0.1391304347826008  2.1656249999999844 0.0695652173913004  1.890625 0.6260869565217431  C 0.7562500000000156 2.9217391304347746  0.171875 5.391304347826087  0.171875 8  C 0.171875 10.608695652173912  0.7562500000000156 13.078260869565225  1.890625 15.373913043478257  C 2.0625 15.756521739130438  2.440625000000008 15.96521739130434  2.8531249999999844 15.96521739130434  C 3.0249999999999844 15.96521739130434  3.1625000000000156 15.9304347826087  3.3343750000000156 15.8608695652174  C 3.8500000000000156 15.582608695652178  4.090624999999992 14.921739130434775  3.815625000000008 14.399999999999991  C 2.8187500000000156 12.417391304347822  2.3031250000000156 10.26086956521739  2.3031250000000156 8  C 2.3031250000000156 5.739130434782608  2.8187500000000156 3.5826086956521777  3.78125 1.6000000000000079  Z M 26.778124999999992 2.817391304347834  C 26.503125000000008 2.2956521739130515  25.850000000000016 2.0869565217391304  25.334375000000016 2.3304347826086915  C 24.818750000000016 2.608695652173913  24.578125 3.2695652173912966  24.853124999999984 3.791304347826079  C 25.506250000000016 5.113043478260866  25.850000000000016 6.504347826086953  25.850000000000016 8  C 25.850000000000016 9.495652173913047  25.506250000000016 10.886956521739135  24.853124999999984 12.20869565217392  C 24.578125 12.730434782608704  24.784375000000008 13.391304347826088  25.334375000000016 13.669565217391309  C 25.506250000000016 13.73913043478261  25.643750000000008 13.773913043478268  25.815625000000008 13.773913043478268  C 26.193750000000016 13.773913043478268  26.571874999999984 13.565217391304348  26.778124999999992 13.182608695652165  C 27.568750000000016 11.582608695652178  27.981249999999992 9.80869565217391  27.981249999999992 8  C 27.981249999999992 6.191304347826091  27.568750000000016 4.417391304347822  26.778124999999992 2.817391304347834  Z M 8.146875000000016 3.791304347826079  C 8.421875 3.2695652173912966  8.215624999999992 2.608695652173913  7.665624999999984 2.3304347826086915  C 7.149999999999984 2.0521739130434704  6.496874999999992 2.260869565217391  6.221875000000008 2.817391304347834  C 5.431249999999984 4.417391304347822  5.018750000000008 6.191304347826091  5.018750000000008 8  C 5.018750000000008 9.80869565217391  5.431249999999984 11.582608695652178  6.221875000000008 13.182608695652165  C 6.393750000000008 13.565217391304348  6.771875000000016 13.773913043478268  7.184374999999992 13.773913043478268  C 7.356249999999992 13.773913043478268  7.528124999999992 13.73913043478261  7.665624999999984 13.669565217391309  C 8.181249999999984 13.391304347826088  8.421875 12.730434782608704  8.146875000000016 12.20869565217392  C 7.493749999999984 10.886956521739135  7.149999999999984 9.495652173913047  7.149999999999984 8  C 7.149999999999984 6.504347826086953  7.493749999999984 5.113043478260866  8.146875000000016 3.791304347826079  Z M 23.134374999999984 8  C 23.134374999999984 4.3130434782608615  20.178125000000016 1.2869565217391266  16.5 1.2869565217391266  C 12.856249999999992 1.2869565217391266  9.865625000000016 4.3130434782608615  9.865625000000016 8  C 9.865625000000016 11.686956521739138  12.856249999999992 14.713043478260873  16.5 14.713043478260873  C 20.143750000000008 14.713043478260873  23.134374999999984 11.686956521739138  23.134374999999984 8  Z M 18.699999999999992 7.6521739130434785  C 18.90625 7.826086956521739  18.90625 8.173913043478262  18.699999999999992 8.347826086956522  L 15.640625 10.399999999999991  C 15.365625000000016 10.573913043478253  15.021875000000016 10.399999999999991  15.021875000000016 10.05217391304347  L 15.021875000000016 5.94782608695653  C 15.021875000000016 5.634782608695648  15.365625000000016 5.426086956521747  15.640625 5.600000000000008  L 18.699999999999992 7.6521739130434785  Z " fill-rule="nonzero" fill="#333333" stroke="none" transform="matrix(1 0 0 1 39 232 )" />
  </g>
</svg>