<?xml version="1.0" encoding="utf-8"?>
<svg version="1.1" xmlns:xlink="http://www.w3.org/1999/xlink" width="20px" height="20px" xmlns="http://www.w3.org/2000/svg">
  <g transform="matrix(1 0 0 1 -260 -75 )">
    <path d="M 7.734375 12.265625  C 6.680689102564101 11.211939102564102  6.153846153846154 9.943910256410255  6.153846153846154 8.461538461538463  C 6.153846153846154 6.979166666666665  6.680689102564101 5.711137820512819  7.734375 4.657451923076923  C 8.788060897435896 3.603766025641024  10.056089743589745 3.076923076923077  11.538461538461537 3.076923076923077  C 13.020833333333332 3.076923076923077  14.288862179487179 3.603766025641024  15.342548076923077 4.657451923076923  C 16.396233974358974 5.711137820512819  16.923076923076923 6.979166666666665  16.923076923076923 8.461538461538463  C 16.923076923076923 9.943910256410255  16.396233974358974 11.211939102564102  15.342548076923077 12.265625  C 14.288862179487179 13.319310897435894  13.020833333333332 13.846153846153847  11.538461538461537 13.846153846153847  C 10.056089743589745 13.846153846153847  8.788060897435896 13.319310897435894  7.734375 12.265625  Z M 0.44471153846153744 17.379807692307693  C 0.1482371794871784 17.67628205128205  0 18.036858974358974  0 18.461538461538463  C 0 18.87820512820513  0.1522435897435881 19.23878205128205  0.4567307692307687 19.54326923076923  C 0.7612179487179471 19.84775641025641  1.12179487179487 20  1.5384615384615374 20  C 1.9711538461538458 20  2.3317307692307687 19.84775641025641  2.6201923076923084 19.54326923076923  L 6.742788461538463 15.432692307692308  C 8.177083333333332 16.42628205128205  9.775641025641024 16.923076923076923  11.538461538461537 16.923076923076923  C 12.684294871794872 16.923076923076923  13.780048076923077 16.700721153846153  14.825721153846153 16.256009615384617  C 15.871394230769232 15.811298076923077  16.772836538461537 15.210336538461537  17.530048076923077 14.453125  C 18.287259615384613 13.695913461538463  18.888221153846153 12.794471153846153  19.332932692307693 11.748798076923077  C 19.77764423076923 10.703125  20 9.607371794871792  20 8.461538461538463  C 20 7.315705128205126  19.77764423076923 6.219951923076923  19.332932692307693 5.174278846153846  C 18.888221153846153 4.128605769230768  18.287259615384613 3.2271634615384626  17.530048076923077 2.469951923076923  C 16.772836538461537 1.7127403846153855  15.871394230769232 1.1117788461538458  14.825721153846153 0.6670673076923084  C 13.780048076923077 0.22235576923076872  12.684294871794872 0  11.538461538461537 0  C 10.392628205128204 0  9.296875 0.22235576923076872  8.251201923076923 0.6670673076923084  C 7.205528846153846 1.1117788461538458  6.304086538461537 1.7127403846153855  5.546875 2.469951923076923  C 4.789663461538463 3.2271634615384626  4.188701923076923 4.128605769230768  3.7439903846153855 5.174278846153846  C 3.299278846153846 6.219951923076923  3.076923076923077 7.315705128205126  3.076923076923077 8.461538461538463  C 3.076923076923077 10.224358974358974  3.573717948717947 11.822916666666664  4.567307692307692 13.257211538461537  L 0.44471153846153744 17.379807692307693  Z " fill-rule="nonzero" fill="#37406d" stroke="none" transform="matrix(1 0 0 1 260 75 )" />
  </g>
</svg>