<svg width="2104" height="711" viewBox="0 0 2104 711" fill="none" xmlns="http://www.w3.org/2000/svg">
<path d="M2104 328.6C2098.98 342.733 2093.96 356.465 2088.95 370.2C2077.75 400.874 2066.59 431.564 2055.34 462.219C2047.21 484.373 2039.55 506.728 2030.53 528.517C2024.8 542.358 2014.54 551.968 1998.11 552C1984.24 552.027 1970.36 552.005 1956.24 552.005C1956.24 538.867 1956.24 525.139 1956.24 511.504C1964.11 510.717 1971.87 510.572 1979.35 509.04C1989.68 506.923 1993.89 498.978 1990.28 488.828C1983.46 469.649 1976.29 450.596 1969.15 431.533C1962.18 412.912 1955.08 394.338 1948.01 375.753C1941.9 359.667 1935.75 343.595 1928.99 327.652C1928.99 337.565 1928.99 347.478 1928.99 357.861C1920.01 357.861 1911.28 357.861 1902 357.861C1902 359.932 1902 361.539 1902 363.145C1902 384.473 1901.88 405.802 1902.09 427.128C1902.14 432.137 1903.59 437.118 1903.9 442.142C1904.28 448.411 1911.21 452.79 1917.07 452.989C1919.07 453.057 1921.07 453 1923.07 453C1924.87 453 1926.67 453 1928.73 453C1928.73 464.605 1928.73 475.873 1928.73 487.73C1913.98 490.369 1899.05 492.274 1883.71 490.174C1875.54 489.055 1868.17 486.637 1861.95 481.371C1854.48 475.057 1852.59 465.969 1851.05 456.979C1846.65 431.193 1848.28 405.143 1848.01 379.179C1847.94 372.358 1848 365.535 1848 358.241C1841.12 358.241 1834.38 358.241 1827.32 358.241C1827.32 347.046 1827.32 336.318 1827.32 325.113C1834.02 325.113 1840.75 325.113 1847.95 325.113C1847.95 309.584 1847.95 294.519 1847.95 279.231C1866.03 279.231 1883.64 279.231 1901.72 279.231C1901.72 294.178 1901.72 309.243 1901.72 324.999C1930.27 324.999 1958.36 324.999 1986.56 324.999C1991.72 343.045 1996.95 360.86 2001.89 378.755C2006.84 396.67 2011.49 414.664 2016.54 433.616C2019.2 424.696 2021.7 416.706 2023.96 408.648C2029.1 390.271 2034.11 371.855 2039.22 353.468C2041.42 345.525 2043.85 337.642 2045.95 329.671C2046.84 326.3 2048.35 324.869 2052.08 324.913C2069.07 325.112 2086.07 325 2103.53 325C2104 326.067 2104 327.133 2104 328.6Z" fill="#37406D"/>
<path d="M981.485 321.234C992.387 319.225 1002.73 319.886 1012.94 322.945C1033.76 329.183 1046.62 343.848 1054.91 363.063C1062.47 380.564 1063.14 399.217 1061.81 417.762C1060.46 436.512 1054.68 454.202 1042.44 468.858C1031.86 481.527 1018.51 489.548 1001.4 491.168C985.998 492.627 971.904 490.174 959.403 480.971C954.647 477.471 950.57 473.049 946.079 468.953C946.079 495.916 946.079 523.24 946.079 550.779C928.285 550.779 911.008 550.779 893.365 550.779C893.365 475.793 893.365 400.736 893.365 325.339C910.594 325.339 927.99 325.339 945.878 325.339C945.878 331.616 945.878 337.979 945.878 345.603C954.978 332.207 966.315 324.213 981.485 321.234ZM977.885 363.948C975.55 363.966 973.189 363.766 970.884 364.039C962.557 365.026 955.943 369.127 952.231 376.581C943.876 393.36 943.974 410.867 948.922 428.587C952.282 440.625 963.535 448.946 974.679 448.995C988.934 449.058 998.547 442.18 1003.07 428.858C1008.21 413.673 1007.86 398.465 1002.93 383.384C998.9 371.027 988.922 363.749 977.885 363.948Z" fill="#37406D"/>
<path d="M720 364C720 350.863 720 338.225 720 325.295C737.682 325.295 755.075 325.295 772.77 325.295C772.77 331.615 772.77 337.89 772.77 343.391C779.054 338.193 785.105 332.176 792.138 327.703C797.294 324.424 803.58 322.316 809.642 321.185C823.972 318.513 837.836 320.607 850.917 327.405C865.878 335.179 875.36 347.822 881.856 362.791C889.502 380.408 890.203 399.258 888.796 417.963C887.4 436.503 881.721 454.054 869.62 468.616C859.064 481.317 845.791 489.377 828.723 491.218C817.981 492.376 807.998 490.856 798.032 487.523C787.68 484.061 780.298 476.678 773.112 468.146C773.112 495.872 773.112 523.097 773.112 550.66C755.409 550.66 738.015 550.66 720 550.66C720 488.66 720 426.58 720 364ZM821.476 442.017C824.303 438.049 828.219 434.462 829.762 430.046C835.177 414.554 835.107 398.728 829.926 383.12C825.885 370.945 813.822 362.417 802.216 363.039C789.512 363.718 779.973 370.972 776.051 383.587C771.513 398.182 771.226 413.112 775.445 427.718C781.963 450.28 807.953 454.954 821.476 442.017Z" fill="#37406D"/>
<path d="M587.057 484.01C564.03 472.011 551.187 453.234 546.872 428.085C543.596 408.988 543.839 390.088 550.112 371.791C559.215 345.236 577.834 328.583 605.525 323.145C615.599 321.166 626.063 319.896 636.288 320.224C659.063 320.956 679.965 327.292 696.189 344.663C706.136 355.313 712.599 367.92 714.763 382.107C716.569 393.944 717.48 406.163 716.749 418.087C715.429 439.598 707.528 458.74 691.027 473.37C680.366 482.823 667.74 488.856 653.625 490.866C644.045 492.23 634.262 493.107 624.612 492.809C611.764 492.413 599.054 490.259 587.057 484.01ZM633.305 362C619.118 360.633 609.704 367.302 604.669 380.027C602.556 385.365 601.944 391.339 600.976 397.079C598.6 411.163 600.252 424.748 606.933 437.484C611.75 446.667 624.109 453.319 632.764 451.997C646.637 449.877 655.212 441.982 659.091 428.634C663.56 413.258 663.673 397.639 658.573 382.71C654.346 370.336 647.987 363.216 633.305 362Z" fill="#37406D"/>
<path d="M1148.03 493C1129.65 492.649 1112.63 489.314 1097.44 479.115C1079.76 467.237 1069.54 450.447 1066.19 429.78C1064.44 418.948 1063.59 407.732 1064.23 396.8C1065.52 374.657 1072.86 354.657 1090.04 339.55C1100.74 330.148 1113.35 324.127 1127.47 322.122C1136.72 320.809 1146.18 319.775 1155.48 320.175C1179.09 321.188 1200.39 328.364 1216.37 346.934C1225.12 357.104 1230.89 369.061 1232.79 382.244C1234.45 393.773 1235.45 405.625 1234.77 417.219C1233.31 442.126 1223.77 463.62 1202.86 478.395C1191.34 486.534 1178.05 491.032 1163.79 491.999C1158.7 492.344 1153.61 492.667 1148.03 493ZM1119.01 396.87C1118.92 408.852 1118.59 420.787 1122.91 432.37C1127.16 443.777 1137.75 452.25 1149.47 451.912C1160.78 451.586 1169.83 446.375 1174.4 435.928C1182.92 416.431 1182.78 396.41 1174.3 377.007C1168.79 364.422 1157.64 360.808 1144.52 361.968C1135.65 362.752 1126.25 370.751 1123.01 380.972C1121.45 385.888 1120.35 390.95 1119.01 396.87Z" fill="#37406D"/>
<path d="M1610 467C1610 419.871 1610 373.242 1610 326.307C1627.66 326.307 1645.05 326.307 1662.91 326.307C1662.91 332.345 1662.91 338.386 1662.91 344.333C1668.3 339.451 1672.85 333.707 1678.77 330.375C1685.66 326.492 1693.59 323.112 1701.33 322.384C1715.14 321.087 1729.2 321.02 1742.21 327.961C1754.17 334.341 1760.03 344.845 1762.86 357.335C1764.22 363.355 1764.88 369.654 1764.91 375.832C1765.09 412.645 1765 449.459 1765 486.636C1747.46 486.636 1730.07 486.636 1712 486.636C1712 485.041 1712 483.284 1712 481.527C1712 456.201 1712.27 430.871 1711.86 405.553C1711.71 395.776 1710.35 385.973 1708.9 376.278C1707.6 367.527 1701.09 363.325 1692.37 362.928C1683.92 362.544 1676.22 363.716 1670.68 370.853C1665.91 377.005 1664.12 384.322 1664.08 391.859C1663.89 421.515 1664 451.173 1664 480.831C1664 482.653 1664 484.476 1664 486.648C1646.1 486.648 1628.38 486.648 1610 486.648C1610 480.357 1610 473.928 1610 467Z" fill="#37406D"/>
<path d="M1462.99 474.965C1457.06 467.873 1454.14 459.748 1453.13 451.134C1452.18 442.952 1452.08 434.642 1452.05 426.387C1451.93 394.896 1452 363.404 1452 331.913C1452 330.115 1452 328.317 1452 326.261C1470.08 326.261 1487.81 326.261 1506 326.261C1506 328.194 1506 329.979 1506 331.764C1506 361.59 1505.9 391.416 1506.09 421.24C1506.13 426.746 1507 432.318 1508.11 437.729C1509.53 444.617 1516.79 450.064 1523.97 449.946C1528.38 449.874 1533.01 450.025 1537.14 448.764C1546.43 445.93 1550.44 438.203 1551.86 429.371C1553.15 421.291 1553.82 413.039 1553.91 404.854C1554.16 380.363 1554 355.868 1554 331.375C1554 329.747 1554 328.119 1554 326.248C1571.78 326.248 1589.17 326.248 1606.78 326.248C1606.78 379.712 1606.78 432.98 1606.78 486.624C1589.82 486.624 1572.76 486.624 1555.24 486.624C1555.24 480.441 1555.24 474.044 1555.24 466.387C1552.45 469.542 1550.54 471.855 1548.47 474.008C1536.23 486.74 1521.26 492.503 1503.67 490.941C1496.56 490.31 1489.39 489.497 1482.46 487.861C1474.68 486.024 1468.26 481.462 1462.99 474.965Z" fill="#37406D"/>
<path d="M1367.99 322.773C1368 308.009 1368 293.726 1368 279.223C1386.04 279.223 1403.65 279.223 1421.73 279.223C1421.73 294.191 1421.73 309.256 1421.73 324.79C1430.92 324.79 1439.65 324.79 1448.69 324.79C1448.69 335.985 1448.69 346.712 1448.69 357.915C1439.95 357.915 1431.22 357.915 1422 357.915C1422 360.826 1422 363.274 1422 365.721C1422 386.049 1421.87 406.378 1422.09 426.703C1422.15 431.879 1423.05 437.094 1424.04 442.199C1425.35 448.951 1430.25 452.804 1437.14 452.982C1440.94 453.08 1444.73 453 1448.76 453C1448.76 464.662 1448.76 475.932 1448.76 487.686C1431.31 491.099 1413.6 493.197 1395.94 488.825C1382.54 485.51 1374.51 476.205 1372.12 462.653C1370.59 453.982 1369.27 445.155 1369.14 436.378C1368.75 410.48 1369 384.572 1369 358.195C1361.07 358.195 1354.33 358.195 1347.3 358.195C1347.3 346.999 1347.3 336.272 1347.3 325C1352.93 325 1358.55 325.106 1364.15 324.92C1365.45 324.877 1366.71 323.836 1367.99 322.773Z" fill="#37406D"/>
<path d="M1242.19 486.999C1240.81 486.036 1239.19 485.12 1239.12 484.104C1238.84 479.624 1239 475.115 1239 470.616C1239 424.462 1239 378.308 1239 332.154C1239 330.334 1239 328.514 1239 326.347C1256.24 326.347 1273.3 326.347 1290.85 326.347C1290.85 334.257 1290.85 342.29 1290.85 351.775C1297.16 341.462 1303.86 333.302 1313.39 328.391C1322.74 323.57 1332.87 321.278 1343.77 322.18C1343.77 339.834 1343.77 357.255 1343.77 374.469C1330.59 373.787 1317.59 372.479 1305.84 380.517C1297.45 386.26 1294.42 394.782 1294.16 403.993C1293.38 430.899 1293.33 457.826 1292.99 484.745C1292.98 485.243 1292.93 485.74 1292.85 487C1276.15 487 1259.41 487 1242.19 486.999Z" fill="#37406D"/>
<path d="M1823 393C1823 424.452 1823 455.405 1823 486.678C1805.05 486.678 1787.33 486.678 1769.3 486.678C1769.3 433.367 1769.3 380.006 1769.3 326.322C1786.95 326.322 1804.67 326.322 1823 326.322C1823 348.345 1823 370.422 1823 393Z" fill="#37406D"/>
<path d="M1803 269C1809.8 269 1816.09 269 1822.69 269C1822.69 283.309 1822.69 297.352 1822.69 311.698C1805.02 311.698 1787.32 311.698 1769.31 311.698C1769.31 297.692 1769.31 283.649 1769.31 269C1780.34 269 1791.42 269 1803 269Z" fill="#37406D"/>
<path d="M1586.47 711C1580.85 709.284 1575.5 708.012 1570.59 705.771C1553.34 697.894 1541.93 684.821 1537.67 666.186C1532.93 645.415 1532.93 624.926 1542.93 605.342C1551.5 588.551 1565.66 578.978 1583.56 575.165C1598.59 571.965 1613.81 572.029 1628.68 576.918C1652.16 584.643 1665.74 600.893 1669.99 625.1C1670.63 628.8 1670.97 632.556 1671.59 637.38C1673.71 615.257 1680.26 596.346 1699 584.028C1717.6 571.807 1738.22 570.972 1758.63 576.554C1796.16 586.814 1805.33 625.348 1801.43 652.993C1773.19 652.993 1744.91 652.993 1716.69 652.993C1714.46 664.062 1720.23 675.636 1729.84 678.841C1739.27 681.988 1753.39 680.055 1758.17 668.729C1758.67 667.555 1760.38 666.137 1761.54 666.119C1774.19 665.932 1786.83 666.002 1799.5 666.002C1798.25 684.823 1778.25 707.07 1750.17 710.634C1741.65 711 1733.29 711 1724.3 710.631C1722.01 710.139 1720.29 710.277 1718.72 709.852C1697.67 704.147 1682.47 691.904 1675.96 670.521C1673.8 663.455 1672.66 656.08 1671.41 650.44C1670.78 654.324 1670.28 659.889 1668.92 665.236C1664.51 682.639 1655.16 696.424 1638.4 704.115C1632.47 706.84 1626.15 708.729 1620 711C1608.98 711 1597.96 711 1586.47 711ZM1615.91 674.616C1618.24 671.856 1621.32 669.44 1622.78 666.277C1628.9 653.012 1629.13 639.293 1625.16 625.287C1623.34 618.874 1620.51 613.295 1614.64 609.988C1603.07 603.463 1586.59 605.806 1581.1 624.458C1577.61 636.314 1577.7 648.512 1581.06 660.435C1585.76 677.125 1601.07 683.153 1615.91 674.616ZM1731.24 628.999C1741.1 628.494 1750.95 627.988 1761.05 627.471C1760.83 618.307 1757.59 610.742 1749.62 605.986C1741 600.843 1731.94 601.799 1724.37 607.554C1717.88 612.484 1714.86 620.053 1715.07 629C1720.38 629 1725.34 629 1731.24 628.999Z" fill="#0098DA"/>
<path d="M1342.47 711C1337.42 709.683 1332.7 708.709 1328.28 706.99C1306.12 698.385 1294.27 681.671 1291.01 658.531C1288.49 640.696 1288.99 623.001 1297.25 606.602C1306.18 588.871 1320.61 577.933 1340.55 574.993C1352.86 573.179 1365.16 572.907 1377.19 576.655C1399.68 583.66 1412.99 599.344 1417.8 621.928C1419.91 631.805 1419.88 642.134 1420.88 652.846C1391.35 652.846 1362.96 652.846 1334.67 652.846C1332.82 663.048 1337.56 673.62 1345.19 677.691C1353.19 681.96 1367.91 680.576 1373.29 673.22C1373.48 672.954 1373.89 672.774 1373.96 672.493C1376.03 664.588 1382.28 665.903 1388.07 665.973C1397.57 666.087 1407.06 666.024 1416.56 666.051C1416.87 666.052 1417.19 666.215 1417.5 666.307C1416.17 684.942 1396.2 707.066 1368.17 710.634C1359.65 711 1351.29 711 1342.47 711ZM1369.36 606.902C1360.43 601.671 1351.25 601.075 1342.77 607.209C1335.77 612.272 1333.26 620.018 1332.97 628.133C1348.6 628.133 1363.74 628.133 1379.03 628.133C1379.01 619.234 1375.95 612.647 1369.36 606.902Z" fill="#0098DA"/>
<path d="M1850.47 711C1845.08 709.658 1840.08 708.55 1835.24 706.932C1820.06 701.847 1809.06 692.451 1804.82 676.41C1804.08 673.601 1803.59 670.725 1802.89 667.428C1817.14 667.428 1831.16 667.428 1845.58 667.428C1847.38 672.893 1849.18 678.832 1855.45 681.818C1863.61 685.707 1877.77 684.649 1882.94 679.562C1888.67 673.915 1888.1 668.37 1880.43 665.072C1872.59 661.698 1864.23 659.476 1856.01 657.038C1843.79 653.417 1831.96 648.971 1821.19 642.034C1811.05 635.507 1806.55 621.374 1808.59 609.621C1812.33 588.08 1826.79 578.959 1846.43 574.941C1863.21 571.506 1879.77 572.674 1895.95 577.592C1911.62 582.357 1922.23 592.298 1924.25 609.513C1924.32 610.112 1924.73 610.671 1925.17 611.67C1911.06 611.67 1897.34 611.67 1883.59 611.67C1880.3 598.445 1865.7 597.538 1855.53 602.017C1848.37 605.169 1847.73 612.381 1854.56 615.721C1863.34 620.016 1872.92 622.669 1882.17 625.999C1893.43 630.052 1905.54 631.838 1915.66 638.907C1924.21 644.876 1928.33 653.15 1928.99 663.337C1929.84 676.266 1926.52 687.851 1916.69 696.681C1907.57 704.867 1896.49 708.981 1884.17 710.63C1872.98 711 1861.96 711 1850.47 711Z" fill="#0098DA"/>
<path d="M1484 695.979C1484 641.183 1484 586.884 1484 532.293C1498.39 532.293 1512.45 532.293 1526.75 532.293C1526.75 590.365 1526.75 648.302 1526.75 706.62C1512.79 706.62 1498.73 706.62 1484 706.62C1484 703.339 1484 699.907 1484 695.979Z" fill="#0098DA"/>
<path d="M1239 555C1239 547.196 1239 539.892 1239 532.296C1253.38 532.296 1267.44 532.296 1281.75 532.296C1281.75 590.358 1281.75 648.295 1281.75 706.616C1267.8 706.616 1253.74 706.616 1239 706.616C1239 656.338 1239 605.919 1239 555Z" fill="#0098DA"/>
<path d="M1600.92 529.997C1606.36 531.338 1611.31 532.977 1616.4 533.914C1621.53 534.858 1625.19 532.005 1626.65 527.382C1627.59 524.419 1629 523.89 1631.58 523.971C1635.23 524.085 1638.89 524 1642.98 524C1640.52 533.287 1638.59 542.25 1631.5 549.078C1625.58 554.772 1618.6 555.979 1611.03 554.463C1604.69 553.19 1598.47 551.264 1592.2 549.607C1587.14 548.269 1582.82 549.472 1580.64 554.104C1578.96 557.695 1576.76 558.313 1573.37 558.048C1570.42 557.817 1567.42 558 1564.42 558C1566.1 538.713 1578.14 522.397 1600.92 529.997Z" fill="#0098DA"/>
<path d="M1427 609C1427 598.53 1427 588.56 1427 578.296C1441.38 578.296 1455.44 578.296 1469.75 578.296C1469.75 621.023 1469.75 663.627 1469.75 706.615C1455.8 706.615 1441.74 706.615 1427 706.615C1427 674.34 1427 641.92 1427 609Z" fill="#0098DA"/>
<path d="M1427 548.002C1427 542.532 1427 537.56 1427 532.297C1441.38 532.297 1455.44 532.297 1469.75 532.297C1469.75 543.682 1469.75 554.955 1469.75 566.614C1455.8 566.614 1441.74 566.614 1427 566.614C1427 560.69 1427 554.596 1427 548.002Z" fill="#0098DA"/>
<path d="M182.531 0C188.666 0.998142 194.318 2.07862 199.999 2.97826C214.322 5.24643 227.851 10.0676 241.163 15.6113C262.737 24.5957 282.089 37.3344 300.61 51.3484C308.314 57.1769 315.387 63.8438 322.678 70.2092C326.649 73.6763 330.474 77.3105 334.641 81.3513C328.666 87.2205 322.415 92.6077 316.02 97.683C300.827 83.5158 285.079 70.6603 267.165 60.5119C243.095 46.8754 218.124 37.7709 189.823 41.969C174.868 44.1874 162.009 50.7423 150.892 60.6933C139.763 70.6551 131.768 82.8851 126.018 96.6726C117.398 117.338 112.874 138.95 112.149 161.191C111.487 181.491 111.295 201.866 114.978 222.018C117.228 234.329 118.841 246.777 121.584 258.974C127.058 283.307 134.209 307.176 144.016 330.155C149.462 342.916 155.321 355.501 161.001 368.533C163.648 374.083 166.288 379.265 168.966 384.783C170.603 388.166 172.043 391.31 173.83 394.242C178.721 402.269 183.757 410.206 188.827 418.519C192.275 423.301 195.63 427.743 198.996 432.532C216.368 458.224 236.589 481.015 259.716 501.253C276.327 515.79 294.15 528.325 314.494 537.258C333.881 545.77 353.676 550.265 374.944 547.07C390.447 544.741 403.713 537.997 414.963 527.434C431.386 512.013 440.364 492.295 445.958 470.885C449.384 457.774 452.037 444.501 452.011 430.843C451.981 415.002 452.617 399.127 451.757 383.333C451.113 371.509 448.557 359.789 446.948 347.693C453.706 341.618 460.368 335.874 467.029 330.13C469.022 342.139 471.022 354.147 473.005 366.158C476.456 387.047 477.675 408.12 476.851 429.223C476.328 442.614 474.382 455.952 473.025 469.31C471.311 486.195 466.722 502.392 460.996 518.286C451.655 544.215 437.826 567.378 416.819 585.5C400.351 599.705 381.349 609.451 359.625 612.938C350.761 614.361 341.729 616.113 332.85 615.767C314.622 615.057 296.671 612.036 279.347 605.778C254.414 596.772 231.738 583.802 210.492 568.066C192.254 554.559 175.756 539.136 160.312 522.623C150.928 512.589 142.499 501.661 133.319 490.63C129.689 485.392 126.382 480.658 122.952 475.605C115.921 464.77 109.013 454.256 102.036 443.404C98.9937 438.302 96.0195 433.536 92.8755 428.467C92.319 427.461 91.9161 426.766 91.5482 426.053C78.9755 401.686 67.0729 377.027 57.9464 351.107C47.048 320.153 37.9408 288.753 33.9861 256.069C32.1384 240.798 30.058 225.517 29.1942 210.178C28.5445 198.64 29.1781 186.964 30.1238 175.421C31.2568 161.594 32.9915 147.792 35.0737 134.072C38.2085 113.416 45.0569 93.7968 54.492 75.2768C64.3522 55.9222 77.4859 38.8806 94.9495 25.5741C109.737 14.3066 126.084 6.36603 144.488 2.98833C149.99 1.97865 155.496 0.995374 161 0C168.021 0 175.042 0 182.531 0Z" fill="#37406D"/>
<path d="M0 196.469C0.333035 195.006 0.921723 194.022 0.961494 193.016C1.82266 171.24 5.87625 150.017 12.0381 129.17C18.7893 106.329 28.5112 84.853 42.0039 65.1695C44.8146 61.0691 52.4991 50.4701 55.5 46.5C55.9135 46.7817 53 52.5 52.2196 54.0855C49.7153 58.2896 47.2627 62.5256 44.6979 66.6925C32.6191 86.316 24.3119 107.554 19.1781 129.884C15.9062 144.115 13.7045 158.671 12.1715 173.202C10.6845 187.297 9.63739 201.59 10.2313 215.719C11.2321 239.526 14.6003 263.105 19.6372 286.485C25.9328 315.708 35.1684 344.003 46.4994 371.504C55.5001 393.349 66.7069 414.286 76.9572 435.614C77.6544 437.065 78.5453 438.423 79.6454 440.363C82.6179 445.67 85.2912 450.436 87.9789 455.556C90.7036 460.221 93.2828 464.623 96.1545 468.825C100.567 475.283 105.181 481.604 109.817 488.323C113.271 492.846 116.62 497.028 119.969 501.209C130.752 513.412 140.862 526.302 152.466 537.667C173.637 558.402 196.99 576.424 223.152 590.717C246.077 603.242 270.253 612.239 295.697 617.729C304.446 619.617 313.517 620.1 322.469 620.908C325.087 621.144 327.802 620.286 330.65 620.794C329.288 621.196 327.918 621.969 326.566 621.94C316.121 621.717 305.633 621.854 295.247 620.911C266.225 618.276 239.341 608.374 213.678 595.134C195.744 585.882 178.601 575.194 163.393 561.804C150.88 550.785 138.615 539.469 126.577 527.932C121.014 522.601 116.256 516.43 111.012 509.985C104.626 501.201 98.3615 493.072 92.0268 484.616C91.6346 484.171 91.3125 484.052 90.9898 483.971C90.9892 484.01 91.0662 484.015 91.2869 483.688C87.148 476.904 82.7885 470.448 78.3082 463.646C75.1761 458.72 72.1646 454.141 69.1532 449.562C63.0823 437.915 56.7885 426.379 50.9824 414.602C33.9047 379.961 20.4311 343.927 11.3545 306.399C7.58215 290.801 5.48803 274.777 3.08732 258.877C1.81534 250.453 1.52159 241.882 0.393113 233.188C2.98023e-08 220.979 0 208.958 0 196.469Z" fill="#37406D"/>
<path d="M316.165 97.9949C322.415 92.6077 328.666 87.2205 334.956 81.4989C341.353 77.5137 344.427 77.8009 349.313 82.8572C353.329 87.013 357.276 91.2461 361.05 95.6206C366.426 101.852 367.566 109.346 366.644 117.952C363.604 123.981 363.189 128.804 368.524 133.096C371.072 135.146 372.943 138.03 375.144 140.516C379.592 145.541 379.328 150.464 374.319 155.147C372.545 156.805 370.736 158.428 368.881 160.124C370.454 162.17 371.677 163.952 373.089 165.571C386.621 181.083 400.139 196.608 413.756 212.045C421.428 220.742 429.277 229.282 437.046 237.892C438.879 239.533 440.713 241.174 441.9 242.236C445.982 239.714 449.525 236.389 453.677 235.218C460.493 233.294 463.034 240.172 467.029 243.701C469.958 246.288 472.205 249.648 474.769 252.679C483.499 249.924 491.709 250.087 499.461 254.876C500.147 255.3 501.024 255.53 501.538 256.098C507.175 262.329 512.824 268.551 518.329 274.897C521.562 278.624 520.311 283.014 517.491 285.597C505.987 296.136 493.963 306.105 482.222 316.387C477.249 320.741 472.501 325.352 467.341 329.988C460.368 335.874 453.706 341.618 446.644 347.812C444 350.176 441.724 352.054 439.518 354.01C424.493 367.336 409.449 380.642 394.487 394.039C389.758 398.273 384.68 398.325 380.195 393.66C377.574 390.935 375.224 387.951 372.651 385.178C363.61 375.433 358.945 364.676 364.173 351.302C364.648 350.084 364.006 347.911 363.122 346.773C359.604 342.242 355.73 337.99 352.092 333.548C348.984 329.753 349.076 325.58 352.493 322.056C354.765 319.712 357.387 317.706 360.137 315.3C352.938 307.153 345.805 299.081 338.655 290.99C329.872 298.644 321.448 305.984 313.177 313.191C313.657 314.271 313.867 315.096 314.333 315.737C319.657 323.068 319.767 325.201 313.254 331.146C302.444 341.011 291.309 350.52 280.32 360.191C263.526 374.971 246.718 389.737 229.958 404.556C219.593 413.72 209.307 422.972 198.986 432.185C195.63 427.743 192.275 423.301 189.066 418.249C216.105 393.97 242.998 370.3 270.028 346.509C261.452 336.811 253.147 327.421 244.778 317.957C235.167 326.441 226.115 334.484 217.006 342.46C200.998 356.477 184.955 370.454 168.927 384.447C166.288 379.265 163.648 374.083 161.317 368.384C168.372 362.124 175.182 356.453 181.851 350.621C195.846 338.384 209.773 326.07 223.716 313.773C238.033 301.147 252.309 288.475 266.66 275.887C271.376 271.75 276.459 272.191 279.621 276.084C280.536 277.21 281.739 278.102 283.134 279.403C291.554 272.033 299.814 264.803 308.705 257.022C301.47 248.743 294.42 240.676 286.662 231.798C284.67 234.21 283.42 236.269 281.673 237.735C276.58 242.009 271.629 242.266 267.358 237.76C263.757 233.96 260.621 229.724 257.201 225.749C255.722 224.029 254.43 222.902 251.456 223.832C242.394 226.667 233.824 224.705 226.916 218.294C221.201 212.99 216.055 207.015 211.1 200.974C208.635 197.969 209.728 191.643 212.478 189.173C217.493 184.668 222.611 180.279 227.678 175.833C241.278 163.901 254.861 151.95 268.478 140.038C275.028 134.308 281.69 128.704 288.212 122.943C297.572 114.675 306.851 106.315 316.165 97.9949ZM375.186 302.59C393.202 286.726 411.218 270.862 429.334 254.909C404.657 226.842 380.431 199.287 355.958 171.452C337.128 188.025 318.688 204.255 300.017 220.688C301.451 222.393 302.695 223.927 303.997 225.411C310.345 232.645 316.706 239.867 323.066 247.09C338.898 265.07 354.709 283.069 370.619 300.98C371.552 302.031 373.288 302.369 375.186 302.59ZM275.71 183.204C284.221 175.735 292.742 168.277 301.24 160.793C316.205 147.614 331.184 134.452 346.092 121.209C350.407 117.377 351.447 112.3 348.628 108.279C346.483 105.22 343.796 102.54 341.054 99.3473C303.99 131.961 267.292 164.254 230.42 196.699C231.387 198.012 232.02 198.96 232.74 199.837C241.316 210.27 245.038 210.506 254.958 201.533C261.627 195.5 268.431 189.617 275.71 183.204ZM417.067 324.565C407.593 332.947 398.129 341.339 388.645 349.708C375.935 360.923 375.814 363.197 387.384 375.427C387.594 375.649 387.958 375.725 388.611 376.049C425.351 343.695 462.197 311.247 499.085 278.763C497.829 277.359 496.963 276.348 496.052 275.379C486.679 265.4 484.163 265.449 473.712 274.723C455.078 291.26 436.301 307.636 417.067 324.565ZM350.878 139.499C323.295 163.715 295.713 187.931 268.026 212.239C270.582 215.081 272.782 217.527 275.199 220.215C303.074 195.679 330.729 171.337 358.711 146.707C356.05 143.926 353.77 141.543 350.878 139.499ZM449.368 273.864C453.238 270.458 457.109 267.052 461.282 263.379C458.83 260.697 456.54 258.194 454.106 255.531C426.115 280.145 398.535 304.398 370.694 328.88C373.149 331.61 375.332 334.037 377.853 336.84C401.652 315.873 425.237 295.094 449.368 273.864ZM280.96 303.563C278.116 300.383 275.271 297.202 272.214 293.784C267.197 298.232 262.438 302.452 257.44 306.884C266.001 316.603 274.187 325.896 282.591 335.435C287.667 330.923 292.424 326.695 297.347 322.319C291.85 316.022 286.643 310.057 280.96 303.563ZM306.468 281.979C302.284 285.639 298.1 289.299 293.843 293.022C296.208 295.666 298.394 298.11 300.946 300.964C309.668 293.312 318.556 285.514 327.658 277.529C325.19 274.71 323.035 272.248 320.633 269.504C315.898 273.67 311.446 277.588 306.468 281.979Z" fill="#0198DA"/>
<path d="M437.017 237.515C429.277 229.282 421.428 220.742 413.756 212.045C400.139 196.608 386.621 181.083 373.089 165.571C371.677 163.952 370.454 162.17 368.881 160.124C370.736 158.428 372.545 156.805 374.319 155.147C379.328 150.464 379.592 145.541 375.144 140.516C372.943 138.03 371.072 135.146 368.524 133.096C363.189 128.804 363.604 123.981 366.573 118.419C376.857 131.998 387.728 145.273 396.689 159.732C407.767 177.606 417.447 196.364 427.338 214.949C431.115 222.047 433.804 229.724 437.017 237.515Z" fill="#36416E"/>
<path d="M92.0968 484.942C98.3615 493.072 104.626 501.202 110.87 509.675C107.214 512.207 104.763 516.846 99.6477 515.922C97.3892 515.514 94.6327 514.839 93.2147 513.276C81.0896 499.913 69.2129 486.324 57.2781 472.789C53.9498 469.014 53.9624 463.608 57.6088 459.957C61.0905 456.472 64.8893 453.303 68.851 449.778C72.1646 454.141 75.1761 458.72 78.1035 463.957C77.6168 465.912 76.4575 467.855 76.9285 468.407C81.4846 473.743 86.3145 478.846 91.0662 484.015C91.0662 484.015 90.9892 484.01 91.0177 484.279C91.3964 484.68 91.7466 484.811 92.0968 484.942Z" fill="#0198DA"/>
<path d="M120.285 501.049C116.62 497.028 113.271 492.846 109.989 488.014C114.395 483.551 118.735 479.738 123.074 475.925C126.382 480.658 129.689 485.392 133.003 490.48C128.874 494.186 124.737 497.538 120.285 501.049Z" fill="#0297D9"/>
<path d="M168.966 384.783C184.955 370.454 200.998 356.477 217.006 342.46C226.115 334.484 235.167 326.441 244.778 317.957C253.147 327.421 261.452 336.811 270.028 346.509C242.998 370.3 216.105 393.97 188.974 417.91C183.757 410.206 178.721 402.269 173.83 394.242C172.043 391.31 170.603 388.166 168.966 384.783Z" fill="#FCFDFE"/>
<path d="M122.952 475.605C118.735 479.738 114.395 483.551 109.883 487.673C105.181 481.604 100.567 475.283 96.1545 468.825C93.2828 464.623 90.7036 460.221 88.3188 455.446C93.131 451.236 97.618 447.489 102.105 443.741C109.013 454.256 115.921 464.77 122.952 475.605Z" fill="#FBFCFC"/>
<path d="M102.036 443.404C97.618 447.489 93.131 451.236 88.3042 455.094C85.2912 450.436 82.6179 445.67 79.9617 440.534C84.1249 436.475 88.271 432.786 92.7312 428.934C96.0195 433.536 98.9937 438.302 102.036 443.404Z" fill="#0298D9"/>
<path d="M91.2869 483.688C86.3145 478.846 81.4846 473.743 76.9285 468.407C76.4575 467.855 77.6168 465.912 78.2243 464.303C82.7885 470.448 87.148 476.904 91.2869 483.688Z" fill="#EBF2F6"/>
<path d="M92.0268 484.616C91.7466 484.811 91.3964 484.68 91.0183 484.241C91.3125 484.052 91.6346 484.171 92.0268 484.616Z" fill="#EBF2F6"/>
<path d="M374.918 302.814C373.288 302.369 371.552 302.031 370.619 300.98C354.709 283.069 338.898 265.07 323.066 247.09C316.706 239.867 310.345 232.645 303.997 225.411C302.695 223.927 301.451 222.393 300.017 220.688C318.688 204.255 337.128 188.025 355.958 171.452C380.431 199.287 404.657 226.842 429.334 254.909C411.218 270.862 393.202 286.726 374.918 302.814Z" fill="#FDFEFE"/>
<path d="M275.442 183.435C268.431 189.617 261.627 195.5 254.958 201.533C245.038 210.506 241.316 210.27 232.74 199.837C232.02 198.96 231.387 198.012 230.42 196.699C267.292 164.254 303.99 131.961 341.054 99.3473C343.796 102.54 346.483 105.22 348.628 108.279C351.447 112.3 350.407 117.377 346.092 121.209C331.184 134.452 316.205 147.614 301.24 160.793C292.742 168.277 284.221 175.735 275.442 183.435Z" fill="#FCFDFE"/>
<path d="M417.325 324.322C436.301 307.636 455.078 291.26 473.712 274.723C484.163 265.449 486.679 265.4 496.052 275.379C496.963 276.348 497.829 277.359 499.085 278.763C462.197 311.247 425.351 343.695 388.611 376.049C387.958 375.725 387.594 375.649 387.384 375.427C375.814 363.197 375.935 360.923 388.645 349.708C398.129 341.339 407.593 332.947 417.325 324.322Z" fill="#FCFDFE"/>
<path d="M351.184 139.33C353.77 141.543 356.05 143.926 358.711 146.707C330.729 171.337 303.074 195.679 275.199 220.215C272.782 217.527 270.582 215.081 268.026 212.239C295.713 187.931 323.295 163.715 351.184 139.33Z" fill="#F9FCFD"/>
<path d="M449.095 274.09C425.237 295.094 401.652 315.873 377.853 336.84C375.332 334.037 373.149 331.61 370.694 328.88C398.535 304.398 426.115 280.145 454.106 255.531C456.54 258.194 458.83 260.697 461.282 263.379C457.109 267.052 453.238 270.458 449.095 274.09Z" fill="#F9FCFD"/>
<path d="M281.198 303.827C286.643 310.057 291.85 316.022 297.347 322.319C292.424 326.695 287.667 330.923 282.591 335.435C274.187 325.896 266.001 316.603 257.44 306.884C262.438 302.452 267.197 298.232 272.214 293.784C275.271 297.202 278.116 300.383 281.198 303.827Z" fill="#FBFDFE"/>
<path d="M306.73 281.742C311.446 277.588 315.898 273.67 320.633 269.504C323.035 272.248 325.19 274.71 327.658 277.529C318.556 285.514 309.668 293.312 300.946 300.964C298.394 298.11 296.208 295.666 293.843 293.022C298.1 289.299 302.284 285.639 306.73 281.742Z" fill="#F9FCFD"/>
</svg>
