<?xml version="1.0" encoding="utf-8"?>
<svg version="1.1" xmlns:xlink="http://www.w3.org/1999/xlink" width="30px" height="30px" xmlns="http://www.w3.org/2000/svg">
  <g transform="matrix(1 0 0 1 -43 -425 )">
    <path d="M 16.875 25.1171875  C 17.213541666666668 25.1171875  17.506510416666668 24.993489583333336  17.75390625 24.74609375  L 19.74609375 22.75390625  C 19.993489583333332 22.506510416666664  20.1171875 22.213541666666664  20.1171875 21.875000000000004  C 20.1171875 21.536458333333332  19.993489583333332 21.243489583333332  19.74609375 20.996093750000004  L 13.75 15  L 19.74609375 9.003906250000002  C 19.993489583333332 8.756510416666664  20.1171875 8.463541666666664  20.1171875 8.125000000000002  C 20.1171875 7.786458333333331  19.993489583333332 7.493489583333331  19.74609375 7.246093750000001  L 17.75390625 5.253906250000001  C 17.506510416666668 5.006510416666664  17.213541666666668 4.882812499999999  16.875 4.882812499999999  C 16.536458333333332 4.882812499999999  16.243489583333332 5.006510416666664  15.99609375 5.253906250000001  L 7.12890625 14.12109375  C 6.881510416666668 14.368489583333334  6.7578125 14.661458333333334  6.7578125 15  C 6.7578125 15.338541666666663  6.881510416666668 15.631510416666663  7.12890625 15.87890625  L 15.99609375 24.74609375  C 16.243489583333332 24.993489583333336  16.536458333333332 25.1171875  16.875 25.1171875  Z M 27.98828125 7.470703125  C 29.32942708333333 9.76888020833333  30 12.278645833333329  30 15  C 30 17.721354166666668  29.32942708333333 20.231119791666664  27.98828125 22.529296875  C 26.64713541666667 24.827473958333332  24.827473958333332 26.647135416666668  22.529296875 27.98828125  C 20.23111979166667 29.329427083333336  17.721354166666668 30  15 30  C 12.278645833333334 30  9.768880208333334 29.329427083333336  7.470703125 27.98828125  C 5.172526041666667 26.647135416666668  3.352864583333334 24.827473958333332  2.01171875 22.529296875  C 0.6705729166666665 20.231119791666664  0 17.721354166666668  0 15  C 0 12.278645833333329  0.6705729166666665 9.76888020833333  2.01171875 7.470703125  C 3.352864583333334 5.172526041666666  5.172526041666667 3.3528645833333304  7.470703125 2.011718749999999  C 9.768880208333334 0.6705729166666641  12.278645833333334 0  15 0  C 17.721354166666668 0  20.23111979166667 0.6705729166666641  22.529296875 2.011718749999999  C 24.827473958333332 3.3528645833333304  26.64713541666667 5.172526041666666  27.98828125 7.470703125  Z " fill-rule="nonzero" fill="#000000" stroke="none" transform="matrix(1 0 0 1 43 425 )" />
  </g>
</svg>